<svg width="350" height="350" viewBox="0 0 350 350" version="1.1" xmlns="http://www.w3.org/2000/svg" xmlns:xlink="http://www.w3.org/1999/xlink">
<title>ICON 1</title>
<desc>Created using Figma</desc>
<g id="Canvas" transform="translate(44192 -34754)">
<clipPath id="clip-0" clip-rule="evenodd">
<path d="M -44192 34754L -43842 34754L -43842 35104L -44192 35104L -44192 34754Z" fill="#FFFFFF"/>
</clipPath>
<g id="ICON 1" clip-path="url(#clip-0)">
<path d="M -44192 34754L -43842 34754L -43842 35104L -44192 35104L -44192 34754Z" fill="#FFFFFF"/>
<g id="004-flask">
<g id="Vector">
<use xlink:href="#path0_fill" transform="translate(-44192 34754)" fill="#31C0E8"/>
</g>
<g id="Vector">
<use xlink:href="#path1_fill" transform="translate(-44085.3 34815.3)" fill="#27AACE"/>
</g>
<g id="Vector">
<use xlink:href="#path2_fill" transform="translate(-44046.6 34862.2)" fill="#F2F9FF"/>
</g>
<g id="Vector">
<use xlink:href="#path3_fill" transform="translate(-44085.3 34894.3)" fill="#E1EFFA"/>
</g>
<g id="Vector">
<use xlink:href="#path4_fill" transform="translate(-44079.9 34966.6)" fill="#FF8E31"/>
</g>
<g id="Vector">
<use xlink:href="#path5_fill" transform="translate(-44041.6 34873)" fill="#CEE2F2"/>
</g>
<g id="Vector">
<use xlink:href="#path6_fill" transform="translate(-44027.4 34815.2)" fill="#FF8E31"/>
</g>
<g id="Vector">
<use xlink:href="#path7_fill" transform="translate(-44025.5 34817.1)" fill="#FFDEA7"/>
</g>
<g id="Vector">
<use xlink:href="#path8_fill" transform="translate(-44013.1 34828.7)" fill="#FF8E31"/>
</g>
<g id="Vector">
<use xlink:href="#path9_fill" transform="translate(-44010.5 34831.3)" fill="#FFDEA7"/>
</g>
<g id="Vector">
<use xlink:href="#path10_fill" transform="translate(-44023.9 34848.6)" fill="#FF8E31"/>
</g>
<g id="Vector">
<use xlink:href="#path11_fill" transform="translate(-44022.7 34849.7)" fill="#FFDEA7"/>
</g>
<g id="Vector">
<use xlink:href="#path12_fill" transform="translate(-44002 34973.6)" fill="#E1EFFA"/>
</g>
<g id="Vector">
<use xlink:href="#path13_fill" transform="translate(-44001.3 34974.3)" fill="#FFFFFF"/>
</g>
<g id="Vector">
<use xlink:href="#path14_fill" transform="translate(-44030.9 34973.6)" fill="#E1EFFA"/>
</g>
<g id="Vector">
<use xlink:href="#path15_fill" transform="translate(-44029.4 34975.1)" fill="#FFFFFF"/>
</g>
<g id="Vector">
<use xlink:href="#path16_fill" transform="translate(-44047.2 34995.4)" fill="#E1EFFA"/>
</g>
<g id="Vector">
<use xlink:href="#path17_fill" transform="translate(-44045.1 34997.5)" fill="#FFFFFF"/>
</g>
<g id="Vector">
<use xlink:href="#path18_fill" transform="translate(-44016.4 34983.3)" fill="#E1EFFA"/>
</g>
<g id="Vector">
<use xlink:href="#path19_fill" transform="translate(-44013.2 34986.4)" fill="#FFFFFF"/>
</g>
<g id="Vector">
<use xlink:href="#path20_fill" transform="translate(-43990.6 35008.5)" fill="#E1EFFA"/>
</g>
<g id="Vector">
<use xlink:href="#path21_fill" transform="translate(-43989.7 35009.4)" fill="#FFFFFF"/>
</g>
</g>
</g>
</g>
<defs>
<path id="path0_fill" d="M 351 175.002C 351 271.65 272.425 350 175.5 350C 78.5712 350 0 271.65 0 175.002C 0 78.3481 78.5712 1.78359e-11 175.5 1.78359e-11C 272.425 1.78455e-11 351 78.3481 351 175.002Z"/>
<path id="path1_fill" d="M 87.4636 16.5951L 86.3091 15.4473C 84.8297 14.2223 82.9239 13.4751 80.844 13.4751C 80.6506 13.4751 80.4683 13.5168 80.277 13.5278L 68.5363 1.82385C 67.4326 0.695222 65.8757 1.16826e-06 64.1488 1.16826e-06C 60.7163 1.16826e-06 57.9309 2.77405 57.9309 6.19889C 57.9309 7.70213 58.4595 9.05155 59.361 10.1262L 60.1891 10.9766C 60.2364 11.0012 60.2632 11.0237 60.2872 11.0483L 72.3336 23.0606C 72.5303 24.7368 73.1775 26.2721 74.201 27.5265L 75.3555 28.6777L 93.7425 47.0126C 93.6616 47.0071 93.5883 46.9743 93.5074 46.9743L 85.1835 46.9743L 80.5396 46.9743L 68.3053 34.7747L 67.7809 34.2518C 67.1035 33.6516 66.2521 33.3262 65.3012 33.3262C 63.1445 33.3262 61.3875 35.0742 61.3875 37.2255C 61.3875 38.1757 61.7158 39.0261 62.3177 39.7035L 62.8422 40.2265L 69.6113 46.9763L 44.0637 46.9763C 41.0802 46.9763 38.6492 49.4004 38.6492 52.3542C 38.6492 52.7097 38.6897 53.0542 38.7528 53.3953C 38.7685 53.4637 38.7912 53.5245 38.8069 53.5963C 38.8721 53.8691 38.9543 54.1391 39.0599 54.3975C 39.0791 54.4447 39.1003 54.4939 39.123 54.5376C 39.2477 54.8213 39.3951 55.0941 39.5651 55.3498C 39.5754 55.3634 39.5788 55.3744 39.5898 55.388C 39.6844 55.5282 39.7687 55.6717 39.8743 55.8009C 39.9813 55.9165 40.0971 56.0265 40.2116 56.1373C 40.2308 56.1564 40.25 56.1755 40.2678 56.1947C 40.3837 56.3047 40.4872 56.4237 40.601 56.5256L 43.688 59.6038L 43.688 122.401L 1.5399 195.155C -0.437899 198.63 -0.587348 203.028 1.5399 206.73C 2.0191 207.552 2.59496 208.305 3.22086 208.954L 3.67333 209.381L 82.6778 288.157C 155.475 282.467 215.797 232.532 236.545 165.265L 87.4636 16.5951Z"/>
<path id="path2_fill" d="M 60.2616 5.39156C 60.2616 8.36317 57.8307 10.7886 54.8561 10.7886L 5.40896 10.7886C 2.42889 10.7886 -2.00844e-06 8.36317 -2.00844e-06 5.39156C -2.00844e-06 2.4302 2.42889 -4.25581e-06 5.40896 -4.25581e-06L 54.8561 -4.25581e-06C 57.8307 0.00136295 60.2616 2.43088 60.2616 5.39156Z"/>
<path id="path3_fill" d="M 11.5936 133.455C 7.58723 133.455 3.70155 131.379 1.5551 127.679C -0.594773 123.973 -0.440525 119.579 1.5551 116.119L 68.7874 1.16826e-06L 136.02 116.117C 138.013 119.579 138.167 123.971 136.02 127.677C 133.87 131.377 129.984 133.452 125.979 133.452L 11.5936 133.452L 11.5936 133.455Z"/>
<path id="path4_fill" d="M 125.913 46.5361L 102.303 5.74498L 85.1141 5.74498C 84.0049 4.19457 82.1902 3.17259 80.1301 3.17259C 78.0783 3.17259 76.2637 4.19457 75.1565 5.74498L 64.4297 5.74498C 62.2744 2.29758 58.4648 2.33652e-06 54.0979 2.33652e-06C 49.7405 2.33652e-06 45.9179 2.29758 43.7626 5.74498L 24.4384 5.74498L 0.826768 46.5361C -0.275592 48.4365 -0.275592 50.799 0.826768 52.6994C 1.92022 54.5944 3.96795 55.7811 6.1761 55.7811L 120.562 55.7811C 122.769 55.7811 124.82 54.5944 125.912 52.6994C 127.015 50.799 127.015 48.4365 125.913 46.5361Z"/>
<path id="path5_fill" d="M 50.2156 0L 0 0L 0 64.6542L 50.2156 64.6542L 50.2156 0Z"/>
<path id="path6_fill" d="M 6.21791 12.4005C 9.65197 12.4005 12.4358 9.62456 12.4358 6.20025C 12.4358 2.77595 9.65197 0 6.21791 0C 2.78386 0 -2.67792e-06 2.77595 -2.67792e-06 6.20025C -2.67792e-06 9.62456 2.78386 12.4005 6.21791 12.4005Z"/>
<path id="path7_fill" d="M 3.23065 0.377618C 3.83941 0.983288 3.68859 2.11533 2.90227 2.89737C 2.11595 3.67941 0.978626 3.82844 0.373288 3.21935C -0.235478 2.61368 -0.0812269 1.4871 0.701668 0.694128C 1.48799 -0.0879105 2.62325 -0.23147 3.23065 0.377618Z"/>
<path id="path8_fill" d="M 17.2113 8.57509C 17.2113 13.3179 13.3538 17.159 8.60841 17.159C 3.8562 17.159 -4.18425e-06 13.3179 -4.18425e-06 8.57509C -4.18425e-06 3.84115 3.85552 -2.08618e-06 8.60841 -2.08618e-06C 13.3524 -2.08618e-06 17.2113 3.84115 17.2113 8.57509Z"/>
<path id="path9_fill" d="M 4.66781 0.544122C 5.53846 1.42255 5.33965 3.0502 4.1989 4.18771C 3.0561 5.31634 1.41901 5.52825 0.543568 4.65324C -0.333932 3.76935 -0.126894 2.1417 1.00494 1.00965C 2.15118 -0.127857 3.78346 -0.334305 4.66781 0.544122Z"/>
<path id="path10_fill" d="M 7.80221 3.88832C 7.80221 6.03893 6.04927 7.78211 3.90282 7.78211C 1.74609 7.78211 4.93741e-06 6.03893 4.93741e-06 3.88832C 4.93741e-06 1.74113 1.74609 -1.63485e-06 3.90282 -1.63485e-06C 6.04927 -0.000685235 7.80221 1.7425 7.80221 3.88832Z"/>
<path id="path11_fill" d="M 2.11876 0.248556C 2.51569 0.64231 2.41355 1.38606 1.90624 1.89876C 1.38317 2.41146 0.646203 2.50444 0.249271 2.11068C -0.151088 1.71146 -0.0612726 0.973163 0.4618 0.454994C 0.971161 -0.0597572 1.7184 -0.150667 2.11876 0.248556Z"/>
<path id="path12_fill" d="M 4.48554 2.22785C 4.48554 3.46654 3.47846 4.46937 2.23557 4.46937C 0.998155 4.46937 8.03375e-06 3.46654 8.03375e-06 2.22785C 8.03375e-06 0.993953 0.998841 -3.43311e-06 2.23557 -3.43311e-06C 3.47778 -0.00137063 4.48554 0.993953 4.48554 2.22785Z"/>
<path id="path13_fill" d="M 1.21637 0.140402C 1.44808 0.371459 1.38844 0.798713 1.09845 1.09266C 0.798184 1.38524 0.371771 1.44265 0.143483 1.21159C -0.0882315 0.986006 -0.0340686 0.558764 0.268258 0.266866C 0.561672 -0.0311833 0.984651 -0.0886041 1.21637 0.140402Z"/>
<path id="path14_fill" d="M 10.2428 5.10444C 10.2428 7.92224 7.94892 10.2075 5.1231 10.2075C 2.29247 10.2075 -7.53164e-07 7.92224 -7.53164e-07 5.10444C -7.53164e-07 2.28185 2.29179 6.342e-06 5.1231 6.342e-06C 7.94892 6.342e-06 10.2428 2.28185 10.2428 5.10444Z"/>
<path id="path15_fill" d="M 2.76932 0.323424C 3.29924 0.848429 3.17653 1.82119 2.50058 2.48838C 1.81983 3.17061 0.851152 3.29504 0.319167 2.77208C -0.193622 2.25391 -0.0811863 1.27911 0.603675 0.602346C 1.281 -0.0744181 2.25104 -0.200214 2.76932 0.323424Z"/>
<path id="path16_fill" d="M 13.9063 6.93717C 13.9063 10.7681 10.7946 13.8757 6.96036 13.8757C 3.11307 13.8757 2.51055e-06 10.7694 2.51055e-06 6.93717C 2.51055e-06 3.10833 3.1117 9.51299e-06 6.96036 9.51299e-06C 10.7946 9.51299e-06 13.9063 3.10628 13.9063 6.93717Z"/>
<path id="path17_fill" d="M 3.76395 0.443338C 4.48172 1.14881 4.31308 2.47363 3.3917 3.38692C 2.47033 4.30226 1.15614 4.4718 0.434255 3.76154C -0.265688 3.05606 -0.104582 1.73466 0.809938 0.823419C 1.73543 -0.101492 3.0599 -0.274443 3.76395 0.443338Z"/>
<path id="path18_fill" d="M 21.3322 10.6245C 21.3322 16.496 16.5532 21.2648 10.6651 21.2648C 4.7721 21.2648 8.36849e-07 16.496 8.36849e-07 10.6245C 8.36849e-07 4.75513 4.77004 -6.54789e-06 10.6651 -6.54789e-06C 16.5553 -0.00137375 21.3322 4.75308 21.3322 10.6245Z"/>
<path id="path19_fill" d="M 5.77298 0.676486C 6.86642 1.76136 6.60456 3.78824 5.19919 5.18483C 3.78971 6.59168 1.76802 6.85077 0.674577 5.76043C -0.412015 4.68034 -0.161101 2.65619 1.24838 1.24729C 2.65787 -0.154778 4.68844 -0.417275 5.77298 0.676486Z"/>
<path id="path20_fill" d="M 3.08907 6.16062C 4.79512 6.16062 6.17815 4.78151 6.17815 3.0803C 6.17815 1.3791 4.79512 -7.67715e-06 3.08907 -7.67715e-06C 1.38302 -7.67715e-06 6.69479e-06 1.3791 6.69479e-06 3.0803C 6.69479e-06 4.78151 1.38302 6.16062 3.08907 6.16062Z"/>
<path id="path21_fill" d="M 1.67676 0.194373C 1.9976 0.51088 1.91738 1.0974 1.51017 1.50483C 1.10158 1.90747 0.516806 1.98404 0.191857 1.66753C -0.115268 1.35581 -0.0501297 0.764492 0.361884 0.361851C 0.771155 -0.0469417 1.36621 -0.118716 1.67676 0.194373Z"/>
</defs>
</svg>
