<svg width="350" height="350" viewBox="0 0 350 350" version="1.1" xmlns="http://www.w3.org/2000/svg" xmlns:xlink="http://www.w3.org/1999/xlink">
<title>ICON 2</title>
<desc>Created using Figma</desc>
<g id="Canvas" transform="translate(43661 -34766)">
<clipPath id="clip-0" clip-rule="evenodd">
<path d="M -43661 34766L -43311 34766L -43311 35116L -43661 35116L -43661 34766Z" fill="#FFFFFF"/>
</clipPath>
<g id="ICON 2" clip-path="url(#clip-0)">
<path d="M -43661 34766L -43311 34766L -43311 35116L -43661 35116L -43661 34766Z" fill="#FFFFFF"/>
<g id="business-partnership 2">
<g id="Strategy">
<g id="partnership">
<g id="Vector">
<use xlink:href="#path0_fill" transform="translate(-43661 34766)" fill="#31C0E8"/>
</g>
<g id="Vector">
<use xlink:href="#path1_fill" transform="translate(-43439.1 34807.3)" fill="#33495F"/>
</g>
<g id="Vector">
<use xlink:href="#path2_fill" transform="translate(-43395 34855.6)" fill="#2B3E51"/>
</g>
<g id="Vector">
<use xlink:href="#path3_fill" transform="translate(-43660.4 34807.3)" fill="#95A5A6"/>
</g>
<g id="Vector">
<use xlink:href="#path4_fill" transform="translate(-43660.4 34855.6)" fill="#7F8C8D"/>
</g>
<g id="Vector">
<use xlink:href="#path5_fill" transform="matrix(0.7071 -0.7071 0.7071 0.7071 -43523.2 34972.4)" fill="#D55400"/>
</g>
<g id="Vector">
<use xlink:href="#path6_fill" transform="translate(-43574.8 34967.2)" fill="#D55400"/>
</g>
<g id="Vector">
<use xlink:href="#path7_fill" transform="translate(-43563.6 34977.9)" fill="#D55400"/>
</g>
<g id="Vector">
<use xlink:href="#path8_fill" transform="translate(-43534.3 35005.3)" fill="#D55400"/>
</g>
<g id="Vector">
<use xlink:href="#path9_fill" transform="translate(-43504.5 35023)" fill="#D55400"/>
</g>
<g id="Vector">
<use xlink:href="#path10_fill" transform="matrix(0.7071 -0.7071 0.7071 0.7071 -43451.9 34894.3)" fill="#ECF0F1"/>
</g>
<g id="Vector">
<use xlink:href="#path11_fill" transform="matrix(0.7071 -0.7071 0.7071 0.7071 -43411.9 34934.3)" fill="#BDC3C7"/>
</g>
<g id="Vector">
<use xlink:href="#path12_fill" transform="translate(-43360.2 34905.3)" fill="#ECF0F1"/>
</g>
<g id="Vector">
<use xlink:href="#path13_fill" transform="matrix(-0.7071 -0.7071 0.7071 -0.7071 -43524.7 35048.2)" fill="#F59D00"/>
</g>
<g id="Vector">
<use xlink:href="#path14_fill" transform="translate(-43473.3 34967.2)" fill="#F59D00"/>
</g>
<g id="Vector">
<use xlink:href="#path15_fill" transform="translate(-43506.1 34977.9)" fill="#F59D00"/>
</g>
<g id="Vector">
<use xlink:href="#path16_fill" transform="translate(-43520.3 35005.3)" fill="#F59D00"/>
</g>
<g id="Vector">
<use xlink:href="#path17_fill" transform="translate(-43536.4 35023)" fill="#F59D00"/>
</g>
<g id="Vector">
<use xlink:href="#path18_fill" transform="matrix(-0.7071 -0.7071 0.7071 -0.7071 -43603.1 34977.3)" fill="#ECF0F1"/>
</g>
<g id="Vector">
<use xlink:href="#path19_fill" transform="matrix(-0.7071 -0.7071 0.7071 -0.7071 -43603 34977.2)" fill="#BDC3C7"/>
</g>
<g id="Vector">
<use xlink:href="#path20_fill" transform="translate(-43523.5 34897.7)" fill="#E87E04"/>
</g>
<g id="Vector">
<use xlink:href="#path21_fill" transform="translate(-43421.3 35018.9)" fill="#ECF0F1"/>
</g>
<g id="Vector">
<use xlink:href="#path22_fill" transform="translate(-43432.9 35050.8)" fill="#ECF0F1"/>
</g>
<g id="Vector">
<use xlink:href="#path23_fill" transform="translate(-43459.5 35065.7)" fill="#ECF0F1"/>
</g>
<g id="Vector">
<use xlink:href="#path24_fill" transform="translate(-43484.5 35074.6)" fill="#ECF0F1"/>
</g>
<g id="Vector">
<use xlink:href="#path25_fill" transform="translate(-43639.8 34905.3)" fill="#ECF0F1"/>
</g>
<g id="Vector">
<use xlink:href="#path26_fill" transform="translate(-43536.7 34897.7)" fill="#D55400"/>
</g>
<g id="Vector">
<use xlink:href="#path27_fill" transform="translate(-43467.5 34934.3)" fill="#E87E04"/>
</g>
</g>
</g>
</g>
</g>
</g>
<defs>
<path id="path0_fill" d="M 350 175C 350 271.65 271.65 350 175 350C 78.3501 350 0 271.65 0 175C 0 171.142 0.125098 167.313 0.370508 163.518C 2.10137 136.798 35.8798 146.613 48.2727 124.494C 58.5922 106.074 46.0954 54.8092 62.1154 41.272C 92.588 15.5224 131.981 0 175 0C 218.019 0 257.411 15.5217 287.883 41.2706C 303.581 54.5351 288.215 104.474 298.455 122.443C 310.572 143.706 347.057 133.795 349.317 159.433C 349.769 164.561 350 169.753 350 175Z"/>
<path id="path1_fill" d="M 127.553 119.775C 125.519 93.9764 117.884 69.7566 105.874 48.3178C 95.5534 29.8977 82.0012 13.5372 65.9811 1.0848e-06L -6.67572e-07 65.9812L 90.7122 156.694L 127.559 119.847C 127.558 119.823 127.555 119.799 127.553 119.775Z"/>
<path id="path2_fill" d="M 7.84397e-06 61.7682L 46.5685 108.337L 83.4483 71.4574C 81.414 45.6586 73.7796 21.4389 61.7688 1.66893e-07L 32.2191 29.5504L 7.84397e-06 61.7682Z"/>
<path id="path3_fill" d="M 61.5713 7.09295e-07C 45.5513 13.5365 31.999 29.897 21.6795 48.3178C 9.66875 69.7566 2.03437 93.9764 1.04308e-08 119.776L 36.8792 156.655L 67.6382 125.897L 83.4483 110.087L 127.553 65.9818L 61.5713 7.09295e-07Z"/>
<path id="path4_fill" d="M 1.04308e-08 71.4574L 36.8792 108.337L 67.6382 77.5783L 83.4483 61.7682L 21.6795 1.66893e-07C 9.66875 21.4389 2.03437 45.6586 1.04308e-08 71.4574Z"/>
<path id="path5_fill" d="M 109.374 0L 3.67165e-06 0L 3.67165e-06 107.324L 109.374 107.324L 109.374 0Z"/>
<path id="path6_fill" d="M 3.98775 72.1434C 9.30474 77.4604 18.0055 77.4604 23.3225 72.1434L 72.1434 23.3225C 77.4604 18.0055 77.4604 9.30472 72.1434 3.98773C 66.8264 -1.32926 58.1256 -1.32926 52.8086 3.98773L 3.98775 52.8087C -1.32925 58.125 -1.32925 66.8264 3.98775 72.1434Z"/>
<path id="path7_fill" d="M 4.38688 93.3269C 10.2357 99.1758 19.8067 99.1758 25.6548 93.3269L 93.3272 25.6546C 99.1767 19.8058 99.1767 10.2348 93.3272 4.38662C 87.4784 -1.46221 77.9074 -1.46221 72.0592 4.38662L 4.38688 72.059C -1.46264 77.9071 -1.46195 87.4781 4.38688 93.3269Z"/>
<path id="path8_fill" d="M 3.58887 78.9954C 8.37471 83.7806 16.2053 83.7806 20.9904 78.9954L 78.9961 20.9904C 83.7812 16.2053 83.7812 8.37403 78.9961 3.58887C 74.2103 -1.19628 66.3797 -1.19628 61.5945 3.58887L 3.58887 61.5938C -1.19629 66.379 -1.19629 74.2103 3.58887 78.9954Z"/>
<path id="path9_fill" d="M 2.79111 66.1136C 6.51328 69.8358 12.6034 69.8358 16.3256 66.1136L 66.1131 16.3261C 69.8352 12.6039 69.8352 6.51379 66.1131 2.79163C 62.3916 -0.930542 56.3008 -0.930542 52.5786 2.79163L 2.79111 52.5791C -0.930371 56.3006 -0.930371 62.3914 2.79111 66.1136Z"/>
<path id="path10_fill" d="M 23.9258 0L 4.673e-06 0L 4.673e-06 117.348L 23.9258 117.348L 23.9258 0Z"/>
<path id="path11_fill" d="M 23.9258 4.00543e-06L -2.00272e-06 4.00543e-06L -2.00272e-06 60.7606L 23.9258 60.7606L 23.9258 4.00543e-06Z"/>
<path id="path12_fill" d="M 13.9966 27.9932C 21.7267 27.9932 27.9932 21.7267 27.9932 13.9966C 27.9932 6.26648 21.7267 4.92334e-06 13.9966 4.92334e-06C 6.26649 4.92334e-06 5.84126e-06 6.26648 5.84126e-06 13.9966C 5.84126e-06 21.7267 6.26649 27.9932 13.9966 27.9932Z"/>
<path id="path13_fill" d="M 109.374 0L 0 0L 0 107.324L 109.374 107.324L 109.374 0Z"/>
<path id="path14_fill" d="M 72.1429 72.1434C 66.8259 77.4604 58.1251 77.4604 52.8081 72.1434L 3.98724 23.3225C -1.32907 18.0055 -1.32907 9.30472 3.98724 3.98773C 9.30423 -1.32926 18.0057 -1.32926 23.322 3.98773L 72.1429 52.8087C 77.4599 58.125 77.4599 66.8264 72.1429 72.1434Z"/>
<path id="path15_fill" d="M 93.327 93.3269C 87.4781 99.1758 77.9078 99.1758 72.059 93.3269L 4.38662 25.6546C -1.46221 19.8058 -1.46221 10.2348 4.38662 4.38662C 10.2361 -1.46221 19.8065 -1.46221 25.6553 4.38662L 93.327 72.059C 99.1765 77.9071 99.1765 87.4781 93.327 93.3269Z"/>
<path id="path16_fill" d="M 78.9954 78.9954C 74.2103 83.7806 66.379 83.7806 61.5939 78.9954L 3.58887 20.9904C -1.19629 16.2053 -1.19629 8.37403 3.58887 3.58887C 8.37402 -1.19628 16.2046 -1.19628 20.9904 3.58887L 78.9954 61.5938C 83.7806 66.379 83.7806 74.2103 78.9954 78.9954Z"/>
<path id="path17_fill" d="M 66.1131 66.1136C 62.3916 69.8358 56.3008 69.8358 52.5786 66.1136L 2.79111 16.3261C -0.930373 12.6039 -0.930373 6.51379 2.79111 2.79163C 6.51328 -0.930542 12.6034 -0.930542 16.3256 2.79163L 66.1131 52.5791C 69.8353 56.3006 69.8353 62.3914 66.1131 66.1136Z"/>
<path id="path18_fill" d="M 23.9258 0L 2.00272e-06 0L 2.00272e-06 117.348L 23.9258 117.348L 23.9258 0Z"/>
<path id="path19_fill" d="M 23.9258 3.25441e-06L -2.12789e-06 3.25441e-06L -2.12789e-06 60.7599L 23.9258 60.7599L 23.9258 3.25441e-06Z"/>
<path id="path20_fill" d="M 38.9238 38.9245L 52.5964 22.3405L 39.4201 9.23877L -3.17097e-06 -1.83582e-06L 38.9238 38.9245Z"/>
<path id="path21_fill" d="M 10.2539 20.5078C 15.917 20.5078 20.5078 15.917 20.5078 10.2539C 20.5078 4.59083 15.917 0 10.2539 0C 4.59082 0 -5.84126e-06 4.59083 -5.84126e-06 10.2539C -5.84126e-06 15.917 4.59082 20.5078 10.2539 20.5078Z"/>
<path id="path22_fill" d="M 10.2539 20.5078C 15.917 20.5078 20.5078 15.917 20.5078 10.2539C 20.5078 4.59083 15.917 3.17097e-06 10.2539 3.17097e-06C 4.59082 3.17097e-06 -6.67572e-06 4.59083 -6.67572e-06 10.2539C -6.67572e-06 15.917 4.59082 20.5078 10.2539 20.5078Z"/>
<path id="path23_fill" d="M 8.88672 17.7734C 13.7947 17.7734 17.7734 13.7947 17.7734 8.88671C 17.7734 3.97871 13.7947 -1.00136e-05 8.88672 -1.00136e-05C 3.97872 -1.00136e-05 -2.16961e-06 3.97871 -2.16961e-06 8.88671C -2.16961e-06 13.7947 3.97872 17.7734 8.88672 17.7734Z"/>
<path id="path24_fill" d="M 6.83594 13.6719C 10.6113 13.6719 13.6719 10.6113 13.6719 6.83594C 13.6719 3.06056 10.6113 6.67572e-06 6.83594 6.67572e-06C 3.06055 6.67572e-06 0 3.06056 0 6.83594C 0 10.6113 3.06055 13.6719 6.83594 13.6719Z"/>
<path id="path25_fill" d="M 13.9966 27.9932C 21.7267 27.9932 27.9932 21.7267 27.9932 13.9966C 27.9932 6.26648 21.7267 4.92334e-06 13.9966 4.92334e-06C 6.26648 4.92334e-06 0 6.26648 0 13.9966C 0 21.7267 6.26648 27.9932 13.9966 27.9932Z"/>
<path id="path26_fill" d="M 34.7895 66.2225C 21.8497 79.8499 3.33786e-07 69.4853 3.33786e-07 69.4853L 48.7956 9.23877L 88.2157 -1.83582e-06C 88.2164 -1.83582e-06 47.7299 52.5957 34.7895 66.2225Z"/>
<path id="path27_fill" d="M 5.89259 7.23447C 5.89259 7.23447 28.9044 26.6772 55.5851 -2.75373e-06L 80.6121 25.0277C 80.6121 25.0277 66.757 79.6961 46.2485 60.429C 29.5203 44.7132 -9.84669e-06 13.0231 -9.84669e-06 13.0231L 5.89259 7.23447Z"/>
</defs>
</svg>
