<svg width="338" height="338" viewBox="0 0 338 338" version="1.1" xmlns="http://www.w3.org/2000/svg" xmlns:xlink="http://www.w3.org/1999/xlink">
<title>ICON 3</title>
<desc>Created using Figma</desc>
<g id="Canvas" transform="translate(43094 -34766)">
<clipPath id="clip-0" clip-rule="evenodd">
<path d="M -43094 34766L -42756 34766L -42756 35104L -43094 35104L -43094 34766Z" fill="#FFFFFF"/>
</clipPath>
<g id="ICON 3" clip-path="url(#clip-0)">
<path d="M -43094 34766L -42756 34766L -42756 35104L -43094 35104L -43094 34766Z" fill="#FFFFFF"/>
<g id="Startup Icon">
<g id="Vector">
<use xlink:href="#path0_fill" transform="translate(-43094 34766)" fill="#31C0E8"/>
</g>
<g id="002-connection">
<g id="Group">
<g id="Group">
<g id="Vector">
<use xlink:href="#path1_fill" transform="translate(-43017.5 34841.8)" fill="#F2F9FF"/>
</g>
</g>
</g>
</g>
<g id="Woman">
<g id="Vector">
<use xlink:href="#path2_fill" transform="translate(-42957.5 34837.7)" fill="#5A4146"/>
</g>
<g id="Vector">
<use xlink:href="#path3_fill" transform="translate(-42937.9 34837.7)" fill="#694B4B"/>
</g>
<g id="Vector">
<use xlink:href="#path4_fill" transform="translate(-42958.3 34883.1)" fill="#E6AF78"/>
</g>
<g id="Vector">
<use xlink:href="#path5_fill" transform="translate(-42938.5 34883.1)" fill="#D29B6E"/>
</g>
<g id="Vector">
<use xlink:href="#path6_fill" transform="translate(-42958.3 34900.7)" fill="#34495E"/>
</g>
<g id="Vector">
<use xlink:href="#path7_fill" transform="translate(-42948.2 34856.9)" fill="#F0C087"/>
</g>
<g id="Vector">
<use xlink:href="#path8_fill" transform="translate(-42948.2 34856.9)" fill="#E6AF78"/>
</g>
<g id="Group">
<g id="Vector">
<use xlink:href="#path9_fill" transform="translate(-42909.2 34907.5)" fill="#577796"/>
</g>
<g id="Vector">
<use xlink:href="#path10_fill" transform="translate(-42958.3 34907.5)" fill="#577796"/>
</g>
</g>
<g id="Vector">
<use xlink:href="#path11_fill" transform="translate(-42960.9 34835.1)"/>
</g>
<g id="Vector">
<use xlink:href="#path12_fill" transform="translate(-42950 34917.1)"/>
</g>
<g id="Vector">
<use xlink:href="#path13_fill" transform="translate(-42911.7 34917.1)"/>
</g>
</g>
<g id="Man">
<g id="Vector">
<use xlink:href="#path14_fill" transform="translate(-42897.8 34940.7)" fill="#5A4146"/>
</g>
<g id="Vector">
<use xlink:href="#path15_fill" transform="translate(-42891.6 34937.6)" fill="#694B4B"/>
</g>
<g id="Vector">
<use xlink:href="#path16_fill" transform="translate(-42886 34984.2)" fill="#E6AF78"/>
</g>
<g id="Vector">
<use xlink:href="#path17_fill" transform="translate(-42886 34984.2)" fill="#D29B6E"/>
</g>
<g id="Vector">
<use xlink:href="#path18_fill" transform="translate(-42909.2 34995)" fill="#FF8E31"/>
</g>
<g id="Vector">
<use xlink:href="#path19_fill" transform="translate(-42894.7 34953)" fill="#F0C087"/>
</g>
<g id="Vector">
<use xlink:href="#path20_fill" transform="translate(-42894.7 34953)" fill="#E6AF78"/>
</g>
<g id="Group">
<g id="Vector">
<use xlink:href="#path21_fill" transform="translate(-42909.2 35003.4)" fill="#C9691A"/>
</g>
<g id="Vector">
<use xlink:href="#path22_fill" transform="translate(-42856.2 35003.4)" fill="#C9691A"/>
</g>
</g>
<g id="Vector">
<use xlink:href="#path23_fill" transform="translate(-42889.7 34950.7)"/>
</g>
<g id="Vector">
<use xlink:href="#path24_fill" transform="translate(-42911.8 34935)"/>
</g>
<g id="Vector">
<use xlink:href="#path25_fill" transform="translate(-42859.3 35011.9)"/>
</g>
<g id="Vector">
<use xlink:href="#path25_fill" transform="translate(-42898 35011.9)"/>
</g>
</g>
<g id="chat (1)">
<g id="Vector">
<use xlink:href="#path26_fill" transform="translate(-43018.3 34937.5)" fill="#0B647D"/>
</g>
<g id="Vector">
<use xlink:href="#path27_fill" transform="translate(-42996.1 34964)" fill="#FFD05B"/>
</g>
<g id="Group">
<g id="Vector">
<use xlink:href="#path28_fill" transform="translate(-42972.9 34974.3)" fill="#324A5E"/>
</g>
<g id="Vector">
<use xlink:href="#path29_fill" transform="translate(-42980.9 34974.3)" fill="#324A5E"/>
</g>
<g id="Vector">
<use xlink:href="#path29_fill" transform="translate(-42988.9 34974.3)" fill="#324A5E"/>
</g>
</g>
<g id="Vector">
<use xlink:href="#path30_fill" transform="translate(-43010.1 34951.1)" fill="#FFFFFF"/>
</g>
<g id="Group">
<g id="Vector">
<use xlink:href="#path31_fill" transform="translate(-42988.1 34961.5)" fill="#84DBFF"/>
</g>
<g id="Vector">
<use xlink:href="#path32_fill" transform="translate(-42996.1 34961.5)" fill="#84DBFF"/>
</g>
<g id="Vector">
<use xlink:href="#path32_fill" transform="translate(-43004.1 34961.5)" fill="#84DBFF"/>
</g>
</g>
</g>
</g>
</g>
</g>
<defs>
<path id="path0_fill" d="M 169 338C 262.336 338 338 262.336 338 169C 338 75.6639 262.336 0 169 0C 75.6639 0 0 75.6639 0 169C 0 262.336 75.6639 338 169 338Z"/>
<path id="path1_fill" d="M 143.778 99.0442L 123.718 73.4881C 130.841 66.1798 135.143 56.5793 135.857 46.395L 166.92 46.395L 166.92 49.7971C 159.73 51.2759 154.566 57.6057 154.558 64.952C 154.56 73.4924 161.48 80.4145 170.014 80.413C 178.548 80.4114 185.465 73.4862 185.463 64.9458C 185.462 57.5984 180.295 51.2666 173.101 49.7971L 173.101 43.3022C 173.101 41.5942 171.717 40.2094 170.011 40.2094L 135.857 40.2094C 135.253 31.6403 132.099 23.4482 126.802 16.6884L 131.113 12.3739L 167.489 12.3739C 169.195 17.2053 174.493 19.7372 179.32 18.0288C 184.148 16.3208 186.678 11.0193 184.971 6.1883C 183.264 1.35731 177.967 -1.17494 173.14 0.533073C 170.499 1.46711 168.422 3.54587 167.489 6.18791L 129.834 6.18791C 129.014 6.18791 128.229 6.51421 127.649 7.09411L 122.658 12.089C 105.483 -4.46377 78.1514 -3.9492 61.6105 13.2384C 54.5803 20.5436 50.3421 30.0912 49.6382 40.209L 23.6778 40.209L 13.5745 17.4678C 18.0909 15.0891 19.8255 9.49724 17.4489 4.97746C 15.0723 0.457686 9.48423 -1.27778 4.96782 1.10061C 0.451793 3.47899 -1.28276 9.07081 1.09385 13.5906C 2.34281 15.9659 4.5618 17.6812 7.17406 18.2901L 18.8408 44.5606C 19.3376 45.6767 20.4448 46.3954 21.6655 46.3946L 49.6378 46.3946C 50.3494 56.4618 54.568 65.9598 61.558 73.2341L 35.4678 99.3438C 18.5978 96.8142 2.87283 108.449 0.34517 125.332C -2.18249 142.215 9.44405 157.951 26.3141 160.481C 26.8232 160.557 27.3343 160.621 27.8466 160.671L 27.8466 176.293C 27.8466 178.001 29.2303 179.386 30.9371 179.386L 59.3204 179.386C 61.0272 184.217 66.3247 186.749 71.1521 185.041C 75.9795 183.332 78.5099 178.031 76.8027 173.2C 75.0956 168.369 69.7985 165.837 64.9711 167.546C 62.3306 168.48 60.2538 170.558 59.3204 173.2L 34.0276 173.2L 34.0276 160.671C 51.0015 158.978 63.3903 143.835 61.6982 126.848C 60.5532 115.353 53.0988 105.457 42.372 101.19L 66.169 77.3754C 81.6665 89.5867 103.48 89.6744 119.076 77.5888L 136.222 99.4304C 112.547 102.735 96.0312 124.621 99.3338 148.314C 102.636 172.007 124.506 188.535 148.181 185.23C 171.856 181.924 188.372 160.038 185.069 136.346C 182.169 115.535 164.761 99.8092 143.778 99.0442ZM 179.282 64.952C 179.282 70.0764 175.131 74.2304 170.011 74.2304C 164.89 74.2304 160.739 70.0764 160.739 64.952C 160.739 59.8275 164.89 55.6735 170.011 55.6735C 175.131 55.6735 179.282 59.8275 179.282 64.952ZM 176.192 6.1883C 177.898 6.1883 179.282 7.57311 179.282 9.28112C 179.282 10.9891 177.898 12.3739 176.192 12.3739C 174.485 12.3739 173.101 10.9891 173.101 9.28112C 173.101 7.57311 174.485 6.1883 176.192 6.1883ZM 9.30343 12.3739C 7.59669 12.3739 6.21291 10.9891 6.21291 9.28112C 6.21291 7.57311 7.59669 6.1883 9.30343 6.1883C 11.0102 6.1883 12.394 7.57311 12.394 9.28112C 12.394 10.9891 11.0102 12.3739 9.30343 12.3739ZM 68.0233 173.201C 69.7301 173.201 71.1139 174.586 71.1139 176.294C 71.1139 178.002 69.7301 179.386 68.0233 179.386C 66.3166 179.386 64.9328 178.002 64.9328 176.294C 64.9328 174.586 66.3166 173.201 68.0233 173.201ZM 43.2992 151.297C 35.6613 155.761 26.2128 155.761 18.575 151.297L 18.575 145.365C 18.575 138.533 24.1097 132.994 30.9371 132.994C 37.7644 132.994 43.2992 138.533 43.2992 145.365L 43.2992 151.297ZM 24.756 120.623C 24.756 117.206 27.5232 114.437 30.9371 114.437C 34.351 114.437 37.1181 117.206 37.1181 120.623C 37.1181 124.039 34.351 126.808 30.9371 126.808C 27.5232 126.808 24.756 124.039 24.756 120.623ZM 49.4802 113.481C 53.4755 118.015 55.6744 123.856 55.6613 129.901C 55.6601 135.911 53.4616 141.713 49.4802 146.213L 49.4802 145.365C 49.4763 138.604 45.7975 132.379 39.878 129.119C 44.5922 124.176 44.4098 116.345 39.4712 111.628C 34.5325 106.91 26.7073 107.092 21.9931 112.035C 17.4334 116.815 17.4334 124.338 21.9931 129.118C 16.0748 132.379 12.3974 138.604 12.394 145.365L 12.394 146.212C 3.36229 135.964 4.34276 120.328 14.5836 111.29C 24.8248 102.251 40.4485 103.233 49.4802 113.481ZM 114.381 73.3768C 101.479 82.7504 84.0156 82.7504 71.1139 73.3768L 71.1139 65.8798C 71.1139 60.2431 75.6801 55.6735 81.3126 55.6735L 88.1735 55.6735L 83.6892 66.8942C 83.2299 68.0436 83.4999 69.3569 84.3753 70.2314L 90.5563 76.417C 91.7632 77.6244 93.7195 77.6244 94.9263 76.417L 101.107 70.2314C 101.983 69.3565 102.253 68.0436 101.793 66.8942L 97.3122 55.6735L 104.182 55.6735C 109.815 55.6735 114.381 60.2431 114.381 65.8798L 114.381 73.3768ZM 93.1898 23.1524C 93.074 23.3457 92.9797 23.5506 92.9086 23.7644C 91.3448 28.4562 82.9019 30.2346 77.4657 30.7511C 78.2947 20.3863 83.1684 15.4664 92.7479 15.4664C 101.519 15.4664 106.346 19.617 107.728 28.2769L 97.43 22.0912C 95.9659 21.2128 94.0676 21.688 93.1898 23.1524ZM 97.0093 29.0566L 108.055 35.6907C 106.816 43.262 97.4915 49.4878 92.7475 49.4878C 85.8545 48.3129 80.1204 43.5295 77.7245 36.9557C 83.0155 36.5196 92.5683 34.9144 97.0093 29.0566ZM 95.3003 67.2994L 92.7475 69.8572L 90.1947 67.2994L 92.7475 60.9065L 95.3003 67.2994ZM 106.231 49.6301C 111.053 45.8333 114.019 40.1525 114.381 34.0237C 114.381 13.574 102.616 9.28112 92.7475 9.28112C 82.8795 9.28112 71.1139 13.574 71.1139 34.0237C 71.4731 40.156 74.44 45.8406 79.2636 49.6394C 71.0714 50.6496 64.9208 57.6192 64.9328 65.8798L 64.9328 67.7602C 51.3851 52.3873 52.8554 28.9341 68.2173 15.3763C 83.5791 1.81853 107.015 3.28994 120.562 18.6628C 132.924 32.6907 132.924 53.732 120.562 67.7598L 120.562 65.8794C 120.579 57.6158 114.427 50.6403 106.231 49.6301ZM 163.83 172.347C 150.928 181.721 133.464 181.721 120.562 172.347L 120.562 164.85C 120.562 159.213 125.128 154.644 130.761 154.644L 137.622 154.644L 133.138 165.865C 132.678 167.014 132.948 168.327 133.824 169.202L 140.005 175.387C 141.212 176.595 143.168 176.595 144.375 175.387L 150.556 169.202C 151.431 168.327 151.701 167.014 151.242 165.865L 146.761 154.644L 153.631 154.644C 159.263 154.644 163.83 159.213 163.83 164.85L 163.83 172.347ZM 146.458 128.027L 146.458 128.024L 157.503 134.658C 156.264 142.232 146.94 148.458 142.196 148.458C 135.303 147.283 129.569 142.5 127.173 135.926C 132.464 135.49 142.017 133.884 146.458 128.027ZM 126.913 129.722C 127.741 119.358 132.615 114.437 142.196 114.437C 150.967 114.437 155.794 118.588 157.176 127.248L 146.878 121.062C 145.414 120.183 143.516 120.658 142.638 122.123C 142.522 122.316 142.428 122.521 142.357 122.735C 140.793 127.427 132.349 129.205 126.913 129.722ZM 144.749 166.27L 142.196 168.828L 139.643 166.27L 142.196 159.877L 144.749 166.27ZM 170.011 166.739L 170.011 164.85C 170.027 156.586 163.875 149.611 155.68 148.6C 160.501 144.803 163.468 139.122 163.83 132.994C 163.83 112.544 152.064 108.251 142.196 108.251C 132.328 108.251 120.562 112.544 120.562 132.994C 120.921 139.126 123.888 144.811 128.712 148.609C 120.52 149.62 114.369 156.589 114.381 164.85L 114.381 166.73C 100.865 151.345 102.371 127.908 117.744 114.382C 133.118 100.856 156.538 102.363 170.054 117.748C 176.009 124.526 179.29 133.246 179.282 142.272C 179.28 151.287 175.983 159.99 170.011 166.739Z"/>
<path id="path2_fill" d="M 58.9556 50.7458C 56.1015 43.178 53.8375 30.1687 53.3486 23.3958C 52.4186 10.507 42.7115 -1.41585e-06 29.5902 -1.41585e-06C 16.4689 -1.41585e-06 6.7621 10.507 5.83176 23.3958C 5.34289 30.1687 3.0789 43.178 0.22479 50.7458C -0.404191 52.4139 0.321949 54.2537 1.96344 54.9984C 5.02209 56.3854 11.543 59.1026 19.4079 60.1611L 39.7722 60.1611C 47.6002 59.1002 54.1668 56.3813 57.2166 54.9984C 58.8584 54.2537 59.5846 52.4139 58.9556 50.7458Z"/>
<path id="path3_fill" d="M 37.5862 54.9984C 39.2277 54.2537 39.9542 52.4143 39.3249 50.7458C 36.4707 43.178 34.2068 30.1687 33.7179 23.3958C 32.7879 10.507 23.0808 1.37421e-06 9.95944 1.37421e-06C 9.92638 1.37421e-06 9.89331 -1.41587e-06 9.86024 0.000339721C -0.207893 0.0412761 -3.76598 13.7812 4.90134 18.9082C 5.42192 19.2162 5.75533 19.3643 5.75533 19.3643L 13.3467 60.1611L 20.1414 60.1611C 27.9698 59.1002 34.5364 56.3817 37.5862 54.9984Z"/>
<path id="path4_fill" d="M 54.5819 21.4142L 43.773 16.0065C 41.5097 14.8742 40.0802 12.5593 40.0802 10.0274L 40.0809 9.99423e-07L 20.0405 9.99423e-07L 20.0405 10.0274C 20.0405 12.5593 18.611 14.8735 16.3481 16.0061L 5.53913 21.4145C 2.14433 23.1127 -2.4709e-08 26.5844 -2.4709e-08 30.3823L -2.4709e-08 47.5193L 60.1214 47.5193L 60.1214 30.3826C 60.1214 26.5844 57.9767 23.1127 54.5819 21.4142Z"/>
<path id="path5_fill" d="M 10.2004 13.3691C 13.797 13.3691 17.2416 12.6275 20.3998 11.3066C 20.3169 10.8853 20.2201 10.4664 20.2201 10.027L 20.2208 -1.41585e-06L 0.180343 -1.41585e-06L 0.180343 10.0274C 0.180343 10.4688 0.0838654 10.8898 1.29007e-06 11.3128C 3.15991 12.6268 6.60311 13.3691 10.2004 13.3691Z"/>
<path id="path6_fill" d="M 54.5819 3.85314L 46.8818 0.000687103C 43.3114 5.51789 37.1184 9.17691 30.0609 9.17691C 23.003 9.17691 16.81 5.51754 13.2393 0L 5.53913 3.8528C 2.14433 5.55166 0 9.02341 0 12.8213L 0 29.9583L 60.1214 29.9583L 60.1214 12.8216C 60.1214 9.02374 57.9767 5.55166 54.5819 3.85314Z"/>
<path id="path7_fill" d="M 19.9038 32.8749C 9.7146 32.8749 1.3016 25.2662 0.029656 15.4169C -0.154777 13.9899 0.530796 12.5906 1.81433 11.9424C 3.35218 11.166 5.58651 9.85736 7.72641 7.947C 10.109 5.81967 11.5068 3.57636 12.2963 1.92936C 12.9761 0.510909 14.5388 -0.290768 16.062 0.0977865C 27.8224 3.09945 35.8287 9.22182 38.7333 11.7213C 39.5133 12.3923 39.9626 13.382 39.8822 14.4085C 39.0739 24.7418 30.4383 32.8749 19.9038 32.8749Z"/>
<path id="path8_fill" d="M 38.7339 11.7213C 35.829 9.2218 27.8227 3.09942 16.0623 0.0977619C 14.5391 -0.290793 12.9764 0.511226 12.2962 1.92933C 11.6983 3.17653 10.7107 4.76554 9.24406 6.38764C 9.24338 6.3914 9.24269 6.39515 9.24201 6.3989C 8.78689 6.91504 8.30246 7.4322 7.72632 7.94697C 5.58676 9.85768 3.35209 11.1659 1.81424 11.9424C 0.530708 12.5905 -0.154524 13.9899 0.0295683 15.4168C 1.17162 24.2625 8.08939 31.25 16.8655 32.5927C 12.8662 29.8705 9.88327 26.18 9.88327 19.5057L 9.88327 14.7397C 10.6421 14.1795 11.4061 13.6201 12.1742 12.9347C 14.0308 11.2771 15.6511 9.35962 16.951 7.2954C 33.5681 10.8142 38.9207 18.9268 38.9207 18.9268C 39.3912 17.4776 39.7594 15.9831 39.8828 14.4084C 39.9629 13.3823 39.5136 12.3927 38.7339 11.7213Z"/>
<path id="path9_fill" d="M 8.89505 1.33256e-06C 10.182 1.70841 10.9313 3.80503 10.9313 6.02515L 10.9313 23.1618L 1.24845e-07 23.1618L 1.24845e-07 11.3012C 1.24845e-07 9.86806 0.562163 8.49191 1.56581 7.46953L 8.89505 1.33256e-06Z"/>
<path id="path10_fill" d="M 2.03626 1.33256e-06C 0.749323 1.70807 -2.4709e-08 3.8047 -2.4709e-08 6.02482L -2.4709e-08 23.1618L 10.9313 23.1618L 10.9313 11.3012C 10.9313 9.86806 10.3692 8.49191 9.36551 7.46953L 2.03626 1.33256e-06Z"/>
<path id="path11_fill" d="M 59.2899 69.1018L 49.1076 64.0073C 55.9176 62.0645 60.2029 59.5466 62.3383 58.049C 64.3916 56.6087 65.1611 53.9997 64.2096 51.7045C 62.1873 46.8273 59.8118 37.5439 59.7699 27.4316C 59.7116 13.3772 48.9095 1.37905 35.1776 0.117182C 33.4761 -0.0390583 31.7576 -0.0390583 30.0571 0.117182C 16.3252 1.37905 5.52276 13.3772 5.46447 27.4316C 5.42253 37.5439 3.04672 46.8273 1.02478 51.7045C 0.073296 54 0.843073 56.6087 2.89638 58.049C 5.03185 59.5466 9.31642 62.0645 16.1271 64.0073L 5.94515 69.1018C 2.27831 70.9368 1.6192e-11 74.6252 1.6192e-11 78.728L 1.6192e-11 95.5344C 1.6192e-11 96.9474 1.14444 98.0929 2.55683 98.0929C 3.96923 98.0929 5.11367 96.9474 5.11367 95.5344L 5.11367 78.728C 5.11367 76.5758 6.30856 74.6412 8.23232 73.6785L 16.3037 69.6401C 19.6893 75.3511 25.9007 78.9508 32.6177 78.9508C 39.3943 78.9508 45.5539 75.3668 48.9327 69.6408L 57.0027 73.6785C 58.9265 74.6412 60.1211 76.5758 60.1211 78.728L 60.1211 95.5344C 60.1211 96.9474 61.2655 98.0929 62.6779 98.0929C 64.0903 98.0929 65.2347 96.9474 65.2347 95.5344L 65.2347 78.728C 65.2347 74.6255 62.9571 70.9368 59.2899 69.1018ZM 5.74845 53.6657C 7.94835 48.3587 10.5335 38.3098 10.5785 27.4535C 10.6259 16.006 19.3873 6.23683 30.5252 5.21342C 31.9161 5.08549 33.3183 5.08549 34.7099 5.21342C 45.8474 6.23683 54.6089 16.006 54.6562 27.4535C 54.7012 38.3098 57.2864 48.359 59.4863 53.6657C 59.5241 53.7568 59.4508 53.8261 59.4038 53.8588C 57.1469 55.441 52.1001 58.3342 43.4795 60.121C 43.4103 59.8707 43.3728 59.6083 43.3728 59.3392L 43.3728 54.2068C 46.7011 52.3032 49.5286 49.5243 51.4841 46.0809C 55.0705 39.7658 53.7743 31.614 48.4022 26.6975C 44.6358 23.2507 37.8919 19.142 27.1522 19.142C 26.4741 19.142 25.824 19.4115 25.344 19.8915L 19.8785 25.3603C 18.88 26.3594 18.88 27.9795 19.8785 28.9783C 20.8774 29.9775 22.496 29.9775 23.4946 28.9783L 28.1968 24.2731C 35.029 24.4644 40.6615 26.5478 44.9512 30.4732C 48.5788 33.7932 49.4567 39.294 47.0382 43.5524C 44.0941 48.7363 38.5683 51.9566 32.6177 51.9566C 23.4792 51.9566 16.045 44.5171 16.045 35.373C 16.045 33.96 14.9005 32.8144 13.4882 32.8144C 12.0758 32.8144 10.9313 33.96 10.9313 35.373C 10.9313 43.4238 15.3386 50.4594 21.8623 54.2051L 21.8623 59.3388C 21.8623 59.608 21.8245 59.8703 21.7556 60.1207C 13.1343 58.3338 8.08812 55.4407 5.83197 53.8588C 5.78458 53.8257 5.7106 53.7565 5.74845 53.6657ZM 32.6177 73.8337C 27.8354 73.8337 23.408 71.3322 20.8975 67.3419L 22.5414 66.5194C 25.2765 65.1508 26.976 62.3995 26.976 59.3392L 26.976 56.3249C 28.776 56.8107 30.6663 57.0744 32.6177 57.0744C 34.5466 57.0744 36.4414 56.8151 38.2591 56.3228L 38.2591 59.3392C 38.2591 62.3992 39.9582 65.1504 42.6937 66.5194L 44.3444 67.3453C 41.84 71.3455 37.443 73.8337 32.6177 73.8337Z"/>
<path id="path12_fill" d="M 2.55683 1.58242e-06C 1.14444 1.58242e-06 -4.6817e-07 1.14554 -4.6817e-07 2.55853L -4.6817e-07 13.4967C -4.6817e-07 14.9097 1.14444 16.0552 2.55683 16.0552C 3.96923 16.0552 5.11367 14.9097 5.11367 13.4967L 5.11367 2.55853C 5.11367 1.1452 3.96923 1.58242e-06 2.55683 1.58242e-06Z"/>
<path id="path13_fill" d="M 2.55683 1.58242e-06C 1.14444 1.58242e-06 1.24845e-07 1.14554 1.24845e-07 2.55853L 1.24845e-07 13.4967C 1.24845e-07 14.9097 1.14444 16.0552 2.55683 16.0552C 3.96923 16.0552 5.11367 14.9097 5.11367 13.4967L 5.11367 2.55853C 5.11367 1.1452 3.96923 1.58242e-06 2.55683 1.58242e-06Z"/>
<path id="path14_fill" d="M -2.52595e-06 9.26598L -2.52595e-06 11.4336C -2.52595e-06 14.0892 0.431091 16.7277 1.27673 19.2471L 6.22018 33.9747L 15.5504 33.9747L 15.5504 2.09037e-07L 9.33027 2.09037e-07C 4.17748 0.000342696 -2.52595e-06 4.14889 -2.52595e-06 9.26598Z"/>
<path id="path15_fill" d="M 36.364 18.7703L 31.1012 37.0629L 6.22018 15.4427C 2.78487 15.4427 -4.4625e-06 12.6772 -4.4625e-06 9.26564C -4.4625e-06 4.1482 4.17748 7.94342e-07 9.33027 7.94342e-07L 37.3214 7.94342e-07L 37.3214 11.9822C 37.3211 14.2783 36.999 16.5627 36.364 18.7703Z"/>
<path id="path16_fill" d="M 19.9049 -3.3446e-06L -3.87312e-06 -3.3446e-06L -3.87312e-06 17.3267L 19.9049 17.3267L 19.9049 -3.3446e-06Z"/>
<path id="path17_fill" d="M 1.76816e-06 8.79712C 3.07698 10.0386 6.43194 10.7376 9.95243 10.7376C 13.4729 10.7376 16.8279 10.0386 19.9049 8.79712L 19.9049 1.50507e-06L 1.76816e-06 1.50507e-06L 1.76816e-06 8.79712Z"/>
<path id="path18_fill" d="M 59.131 4.54103L 43.126 0.000342905L 33.1746 6.55862L 23.2222 -2.00676e-06L 7.21825 4.54103C 2.94559 5.75344 4.7151e-06 9.63142 4.7151e-06 14.0444L 4.7151e-06 33.189L 66.3496 33.189L 66.3496 14.0444C 66.3496 9.63142 63.4037 5.75309 59.131 4.54103Z"/>
<path id="path19_fill" d="M 18.6609 33.9368C 8.35462 33.9368 1.76816e-06 25.64 1.76816e-06 15.4052L 1.76816e-06 11.7868C 1.76816e-06 10.1483 0.655262 8.57735 1.82198 7.41871L 7.46173 1.81803C 8.65604 0.631996 10.289 -0.0498916 11.9772 0.00285143C 21.9193 0.314172 30.7191 2.42937 35.5298 7.09507C 36.7072 8.23727 37.3221 9.83496 37.3221 11.4697L 37.3221 15.4052C 37.3214 25.64 28.9668 33.9368 18.6609 33.9368Z"/>
<path id="path20_fill" d="M 9.33096 14.7188C 9.33096 11.1559 12.3366 8.55064 15.9243 8.55064C 21.4258 8.55064 32.4842 9.22808 37.2356 12.7208C 37.049 11.4176 36.4851 8.02184 35.5298 7.09507C 30.7195 2.42937 21.9193 0.314171 11.9772 0.00285014L 11.9768 0.00319505L 11.9765 0.00285014C 10.2887 -0.0498928 8.6557 0.632337 7.46174 1.81803L -3.11533e-06 9.22808L -3.11533e-06 15.4052C -3.11533e-06 23.8564 5.70217 30.9719 13.4902 33.2001C 10.8977 30.0239 9.33027 25.9925 9.33027 21.5823L 9.33027 14.7188L 9.33096 14.7188Z"/>
<path id="path21_fill" d="M 13.2701 15.4694C 13.2701 12.8481 12.2217 10.3342 10.3552 8.48066L 1.81543 4.18075e-07C 0.673892 1.61996 2.27335e-06 3.57043 2.27335e-06 5.6524L 2.27335e-06 24.7978L 13.2698 24.7978L 13.2698 15.4694L 13.2701 15.4694Z"/>
<path id="path22_fill" d="M -4.5467e-06 15.4694C -4.5467e-06 12.8481 1.04843 10.3342 2.91489 8.48066L 11.4547 4.18075e-07C 12.5962 1.61996 13.2701 3.57043 13.2701 5.6524L 13.2701 24.7978L 0.000342771 24.7978L 0.000342771 15.4694L -4.5467e-06 15.4694Z"/>
<path id="path23_fill" d="M 5.17314 6.08409L 5.17314 5.50324C 10.7143 4.71723 15.098 5.36213 17.9125 6.09745C 21.3037 6.98346 23.2157 8.18799 23.2788 8.2284C 23.7171 8.51575 24.2117 8.65309 24.7007 8.65309C 25.5367 8.65309 26.3568 8.25135 26.8551 7.50884C 27.6477 6.32863 27.3262 4.73367 26.1378 3.94697C 25.7626 3.69867 16.7834 -2.10032 2.07926 0.820068C 0.870123 1.06015 3.95732e-06 2.11433 3.95732e-06 3.33872L 3.95732e-06 6.08409C 3.95732e-06 7.50267 1.15775 8.65274 2.58657 8.65274C 4.01539 8.65274 5.17314 7.50267 5.17314 6.08409Z"/>
<path id="path24_fill" d="M 64.4631 64.0498L 51.3158 59.1536C 50.1736 58.7283 49.4066 57.6289 49.4066 56.4175L 49.4066 49.8312C 49.9697 49.3852 50.5146 48.9099 51.0385 48.4047C 55.3343 44.2651 57.6998 38.7116 57.6998 32.7685L 57.6998 27.8839L 58.4399 26.4136C 59.7642 23.7837 60.4643 20.8393 60.4643 17.898L 60.4643 2.56865C 60.4643 1.15007 59.3066 -1.63049e-06 57.8777 -1.63049e-06L 29.071 -1.63049e-06C 19.1385 -1.63049e-06 11.0584 8.02447 11.0584 17.898C 11.0584 20.8386 11.7582 23.7833 13.0825 26.4133L 13.8226 27.8836L 13.8226 31.9622C 13.8226 39.0274 17.0772 45.4162 22.1165 49.5839L 22.1165 56.4172C 22.1165 57.6286 21.3492 58.7279 20.207 59.1533L 7.06029 64.0495C 2.83729 65.6219 2.27335e-06 69.6875 2.27335e-06 74.1666L 2.27335e-06 93.1677C 2.27335e-06 94.5863 1.15775 95.7364 2.58657 95.7364C 4.01539 95.7364 5.17314 94.5863 5.17314 93.1677L 5.17314 74.1669C 5.17314 71.8174 6.66128 69.6851 8.87642 68.8601L 22.0234 63.9639C 22.7349 63.6988 23.3902 63.3347 23.9837 62.8981L 33.1746 69.7433L 33.1746 93.1677C 33.1746 94.5863 34.3324 95.7364 35.7612 95.7364C 37.19 95.7364 38.3478 94.5863 38.3478 93.1677L 38.3478 69.7433L 47.5384 62.8981C 48.1319 63.3351 48.7872 63.6991 49.4986 63.9639L 62.6463 68.8601C 64.8611 69.6848 66.3493 71.8174 66.3493 74.1669L 66.3493 93.1677C 66.3493 94.5863 67.507 95.7364 68.9358 95.7364C 70.3647 95.7364 71.5224 94.5863 71.5224 93.1677L 71.5224 74.1669C 71.5231 69.6879 68.6858 65.6222 64.4631 64.0498ZM 18.9961 31.9626L 18.9961 27.2774C 18.9961 26.8784 18.9026 26.4852 18.723 26.1287L 17.7097 24.1159C 16.7427 22.1955 16.2319 20.0454 16.2319 17.8881C 16.2319 10.8572 21.9917 5.1373 29.0713 5.1373L 55.2915 5.1373L 55.2915 17.898C 55.2915 20.0454 54.7804 22.1955 53.8134 24.1159L 52.8001 26.1287C 52.6205 26.4855 52.527 26.8784 52.527 27.2774L 52.527 32.7681C 52.527 37.3102 50.7192 41.5539 47.4359 44.7178C 44.1548 47.88 39.8276 49.5465 35.2435 49.4099C 26.2847 49.1431 18.9961 41.3162 18.9961 31.9626ZM 35.0887 54.5451C 35.3163 54.552 35.5429 54.5554 35.7698 54.5554C 38.7237 54.5554 41.5858 53.9763 44.2334 52.8755L 44.2334 56.4179C 44.2334 57.1984 44.3531 57.9604 44.5704 58.6875L 35.7616 65.2482L 26.9527 58.6875C 27.17 57.9604 27.2897 57.198 27.2897 56.4179L 27.2897 52.7772C 29.7069 53.8362 32.3362 54.4629 35.0887 54.5451Z"/>
<path id="path25_fill" d="M 2.58657 2.17399e-06C 1.15775 2.17399e-06 4.6309e-06 1.15007 4.6309e-06 2.56865L 4.6309e-06 16.2959C 4.6309e-06 17.7144 1.15775 18.8645 2.58657 18.8645C 4.01539 18.8645 5.17314 17.7144 5.17314 16.2959L 5.17314 2.56865C 5.17314 1.15007 4.01539 2.17399e-06 2.58657 2.17399e-06Z"/>
<path id="path26_fill" d="M 32.8583 65.7685C 51.0055 65.7685 65.7166 51.0457 65.7166 32.8842C 65.7166 14.7228 51.0055 0 32.8583 0C 14.7112 0 0 14.7228 0 32.8842C 0 51.0457 14.7112 65.7685 32.8583 65.7685Z"/>
<path id="path27_fill" d="M 18.1056 3.95097e-07C 8.63619 3.95097e-07 0.977875 5.59291 0.977875 12.4805C 0.977875 15.4841 2.47849 18.2805 4.91052 20.4555C 3.66863 21.4395 2.16802 22.4752 0.667401 23.0966C -0.264016 23.4592 -0.21227 24.8574 0.770892 25.1163C 1.65056 25.3752 2.58198 25.5306 3.5134 25.5824C 5.99718 25.7377 9.20539 25.5824 11.8962 24.0806C 13.8107 24.6502 15.9323 24.9609 18.1056 24.9609C 27.575 24.9609 35.2333 19.368 35.2333 12.4805C 35.2333 5.59291 27.575 3.95097e-07 18.1056 3.95097e-07Z"/>
<path id="path28_fill" d="M 2.48378 4.97147C 3.85553 4.97147 4.96756 3.85857 4.96756 2.48574C 4.96756 1.1129 3.85553 0 2.48378 0C 1.11203 0 0 1.1129 0 2.48574C 0 3.85857 1.11203 4.97147 2.48378 4.97147Z"/>
<path id="path29_fill" d="M 2.48378 4.97147C 3.85553 4.97147 4.96756 3.85857 4.96756 2.48574C 4.96756 1.1129 3.85553 0 2.48378 0C 1.11202 0 0 1.1129 0 2.48574C 0 3.85857 1.11202 4.97147 2.48378 4.97147Z"/>
<path id="path30_fill" d="M 34.4624 0.513875C 33.5828 0.254944 32.6513 0.0995857 31.7199 0.0477995C 29.2361 -0.107559 26.0279 0.0477992 23.3372 1.5496C 21.4226 0.979951 19.301 0.669234 17.1277 0.669234C 7.65832 0.669234 -1.97393e-07 6.26214 -1.97393e-07 13.1497C -1.97393e-07 20.0373 7.65832 25.6302 17.1277 25.6302C 26.5971 25.6302 34.2554 20.0373 34.2554 13.1497C 34.2554 10.1461 32.7548 7.34965 30.3228 5.17463C 31.5647 4.1907 33.0653 3.15497 34.5659 2.53354C 35.4973 2.17103 35.4456 0.772806 34.4624 0.513875Z"/>
<path id="path31_fill" d="M 2.48378 4.97147C 3.85553 4.97147 4.96756 3.85857 4.96756 2.48574C 4.96756 1.1129 3.85553 0 2.48378 0C 1.11202 0 0 1.1129 0 2.48574C 0 3.85857 1.11202 4.97147 2.48378 4.97147Z"/>
<path id="path32_fill" d="M 2.48378 4.97147C 3.85553 4.97147 4.96756 3.85857 4.96756 2.48574C 4.96756 1.1129 3.85553 0 2.48378 0C 1.11203 0 0 1.1129 0 2.48574C 0 3.85857 1.11203 4.97147 2.48378 4.97147Z"/>
</defs>
</svg>
