<?xml version="1.0" encoding="UTF-8" standalone="no"?>
<!-- Created with Inkscape (http://www.inkscape.org/) -->

<svg
   xmlns:dc="http://purl.org/dc/elements/1.1/"
   xmlns:cc="http://creativecommons.org/ns#"
   xmlns:rdf="http://www.w3.org/1999/02/22-rdf-syntax-ns#"
   xmlns:svg="http://www.w3.org/2000/svg"
   xmlns="http://www.w3.org/2000/svg"
   xmlns:sodipodi="http://sodipodi.sourceforge.net/DTD/sodipodi-0.dtd"
   xmlns:inkscape="http://www.inkscape.org/namespaces/inkscape"
   width="403.09"
   height="221.36"
   id="svg2"
   version="1.1"
   inkscape:version="0.48.1 "
   sodipodi:docname="Nowy dokument 1">
  <defs
     id="defs4" />
  <sodipodi:namedview
     id="base"
     pagecolor="#ffffff"
     bordercolor="#666666"
     borderopacity="1.0"
     inkscape:pageopacity="0.0"
     inkscape:pageshadow="2"
     inkscape:zoom="1.4"
     inkscape:cx="251.9463"
     inkscape:cy="120.73347"
     inkscape:document-units="px"
     inkscape:current-layer="layer1"
     showgrid="false"
     inkscape:window-width="1024"
     inkscape:window-height="682"
     inkscape:window-x="-4"
     inkscape:window-y="-4"
     inkscape:window-maximized="1" />
  <metadata
     id="metadata7">
    <rdf:RDF>
      <cc:Work
         rdf:about="">
        <dc:format>image/svg+xml</dc:format>
        <dc:type
           rdf:resource="http://purl.org/dc/dcmitype/StillImage" />
        <dc:title></dc:title>
      </cc:Work>
    </rdf:RDF>
  </metadata>
  <g
     inkscape:label="Layer 1"
     inkscape:groupmode="layer"
     id="layer1"
     transform="translate(0,-830.99372)">
    <g
       transform="translate(5.0000001,-24.285714)"
       style="font-size:250px;font-style:normal;font-variant:normal;font-weight:normal;font-stretch:normal;text-align:start;line-height:125%;letter-spacing:0px;word-spacing:0px;writing-mode:lr-tb;text-anchor:start;fill:#000000;fill-opacity:1;stroke:none;font-family:Trebuchet MS;-inkscape-font-specification:Trebuchet MS"
       id="flowRoot2985">
      <path
         d="m 114.12207,1052.8396 c -11.80023,5.778 -26.041754,8.667 -42.724609,8.667 -17.008517,0 -30.151408,-5.0252 -39.428711,-15.0757 -9.277366,-10.0504 -13.916033,-24.2716 -13.916016,-42.6635 -1.7e-5,-9.44007 1.40379,-17.61878 4.211426,-24.53617 2.807593,-6.91723 7.954886,-14.07868 15.441895,-21.48437 C 26.23142,946.35374 20.494121,934.51293 20.494141,922.2244 c -2e-5,-12.45103 4.699682,-23.09148 14.099121,-31.92139 9.399371,-8.82957 21.992945,-13.24445 37.780761,-13.24463 16.764235,1.8e-4 29.703677,3.70298 38.818357,11.1084 l -10.13183,18.79883 c -9.277438,-7.73096 -17.578211,-11.59652 -24.902347,-11.59668 -21.647189,1.6e-4 -32.470746,9.76578 -32.470703,29.29687 -4.3e-5,10.57955 4.720004,19.53137 14.160156,26.85547 l 45.410154,0 0,-22.33887 23.19336,-8.91113 0,31.61621 30.39551,0 0,19.53125 -30.39551,0 0,40.28317 c -1.2e-4,11.2305 1.50541,18.8803 4.5166,22.9493 3.01094,4.069 8.21927,6.1035 15.625,6.1035 4.39438,0 9.56202,-1.5055 15.50293,-4.5166 l 3.2959,21.6064 c -8.54508,2.4414 -18.31069,3.6621 -29.29687,3.6621 -7.56849,0 -14.8927,-2.889 -21.97266,-8.667 z m -10.86426,-32.1045 0,-49.31637 -49.194333,0 c -7.731166,9.92847 -11.596722,20.34512 -11.59668,31.24997 -4.2e-5,25.3907 12.410427,38.086 37.231445,38.086 11.067618,0 19.368391,-1.9938 24.902348,-5.9815 -0.89529,-3.7434 -1.34288,-8.4228 -1.34278,-14.0381 z"
         style="font-family:Trebuchet MS;-inkscape-font-specification:Trebuchet MS"
         id="path3035" />
    </g>
    <g
       transform="translate(226.13497,7.365395)"
       style="font-size:250px;font-style:normal;font-variant:normal;font-weight:normal;font-stretch:normal;text-align:start;line-height:125%;letter-spacing:0px;word-spacing:0px;writing-mode:lr-tb;text-anchor:start;fill:#000000;fill-opacity:1;stroke:none;font-family:Trebuchet MS;-inkscape-font-specification:Trebuchet MS"
       id="flowRoot2985-1">
      <path
         d="m 154.77148,1015.2424 -17.82226,15.0146 -15.50293,-19.5312 c -14.16026,13.0208 -31.901131,19.5312 -53.222657,19.5312 -16.438853,0 -30.00899,-5.0862 -40.710449,-15.2587 -10.701514,-10.1725 -16.052257,-22.50163 -16.052246,-36.98734 -1.1e-5,-11.06765 3.417954,-20.75189 10.253906,-29.05274 6.835909,-8.30069 17.252566,-16.39802 31.25,-24.29199 -12.695352,-16.27592 -19.043002,-29.41881 -19.042969,-39.42871 -3.3e-5,-11.39308 4.211388,-20.91455 12.634277,-28.56445 8.422798,-7.64957 19.063249,-11.47443 31.921387,-11.47461 11.962801,1.8e-4 21.870831,3.72332 29.724121,11.16943 7.85307,7.44645 11.77967,16.4593 11.77979,27.03857 -1.2e-4,9.44024 -2.88912,17.5986 -8.667,24.4751 -5.7781,6.87674 -14.56715,13.73302 -26.367184,20.56885 l 36.010744,44.7998 c 3.49922,-8.95176 5.49304,-19.04289 5.98144,-30.27343 l 23.80371,0 c -1.05809,18.79889 -5.81883,35.27837 -14.28222,49.43847 z M 73.228516,913.92404 c 8.38208,-4.55717 14.52628,-9.09411 18.432617,-13.61084 3.906155,-4.51647 5.859278,-9.98928 5.859375,-16.41845 -9.7e-5,-6.18475 -2.014255,-11.16928 -6.042481,-14.95362 -4.028407,-3.78402 -8.768799,-5.6761 -14.221191,-5.67627 -5.859446,1.7e-4 -10.782943,1.81087 -14.770508,5.43213 -3.987688,3.62158 -5.981501,8.36197 -5.981445,14.22119 -5.6e-5,6.59194 3.66205,14.5265 10.986328,23.80371 z m 35.278324,80.32227 -43.579106,-54.56543 c -10.33534,6.10359 -17.863002,11.86124 -22.583007,17.27295 -4.720089,5.41185 -7.080113,11.90191 -7.080079,19.47021 -3.4e-5,9.11463 3.153446,17.11022 9.46045,23.98686 6.306915,6.8766 14.221133,10.3149 23.742675,10.3149 16.438718,0 29.785059,-5.4931 40.039067,-16.47949 z"
         style="font-family:Microsoft Sans Serif;-inkscape-font-specification:Microsoft Sans Serif"
         id="path3038" />
    </g>
  </g>
</svg>
