<svg id="Layer_1" data-name="Layer 1" xmlns="http://www.w3.org/2000/svg" viewBox="0 0 80 80"><defs><style>.cls-1{fill:#fff;}.cls-2{opacity:0.5;}.cls-3{fill:#dfc7b7;}.cls-4{fill:#d18450;}.cls-5{fill:#c07a49;}.cls-6{fill:#a4693e;}.cls-7{fill:#8d5a33;}.cls-8{fill:#583415;}</style></defs><title>a</title><circle id="_Path_" data-name="&lt;Path&gt;" class="cls-1" cx="40" cy="40" r="40"/><g id="_Group_" data-name="&lt;Group&gt;" class="cls-2"><path class="cls-3" d="M40,1A39,39,0,1,1,1,40,39,39,0,0,1,40,1m0-1A40,40,0,1,0,80,40,40,40,0,0,0,40,0h0Z"/></g><path class="cls-4" d="M28.65,51a1.69,1.69,0,0,0-.07-1.29,2.3,2.3,0,0,0-.68-0.67,14.1,14.1,0,0,1-3.79-4.5,21.42,21.42,0,0,1-1.83-5.75A0.88,0.88,0,0,0,21.8,38a0.51,0.51,0,0,0-.5.36,1.84,1.84,0,0,0-.1.71,29.47,29.47,0,0,0,.95,7.46c0.54,2.07,1.25,4.67,3.12,5.69A2.37,2.37,0,0,0,28.65,51Z"/><path class="cls-5" d="M24.81,48.16a12.06,12.06,0,0,1-3-10.12,0.52,0.52,0,0,0-.48.36,1.84,1.84,0,0,0-.1.71,29.47,29.47,0,0,0,.95,7.46c0.54,2.07,1.25,4.67,3.12,5.69l0.15,0.07a1.49,1.49,0,0,0,1-1,2.26,2.26,0,0,0-.35-1.84A9,9,0,0,0,24.81,48.16Z"/><path class="cls-6" d="M16,28.19a7.88,7.88,0,0,0,.71,4.12,3.42,3.42,0,0,0,3.09,2,4,4,0,0,0,2.9-2.26,28,28,0,0,0,1.51-3.77,6.81,6.81,0,0,1,2.18-3.24,2.48,2.48,0,0,1,3.35.29A9.8,9.8,0,0,0,31.52,23a3.78,3.78,0,0,0,.18-3,3.73,3.73,0,0,0-2.06-1.81,9.1,9.1,0,0,0-9,1.13A12.21,12.21,0,0,0,16,28.19Z"/><path class="cls-7" d="M31.69,19.94a2.65,2.65,0,0,0-.13-0.25c-2.11,2.28-5.82,2-7.72,4.58-0.92,1.23-1.22,2.91-2,4.26s-2.42,2.5-3.92,2.13A2.92,2.92,0,0,1,16,28.74a7.45,7.45,0,0,0,.73,3.56,3.42,3.42,0,0,0,3.09,2,4,4,0,0,0,2.9-2.26,28,28,0,0,0,1.51-3.77,6.81,6.81,0,0,1,2.18-3.24,2.48,2.48,0,0,1,3.35.29A9.8,9.8,0,0,0,31.52,23,3.78,3.78,0,0,0,31.69,19.94Z"/><path class="cls-6" d="M64,28.19a7.88,7.88,0,0,1-.71,4.12,3.42,3.42,0,0,1-3.09,2,4,4,0,0,1-2.9-2.26,28,28,0,0,1-1.51-3.77,6.81,6.81,0,0,0-2.18-3.24,2.48,2.48,0,0,0-3.35.29A9.8,9.8,0,0,1,48.48,23a3.78,3.78,0,0,1-.18-3,3.73,3.73,0,0,1,2.06-1.81,9.1,9.1,0,0,1,9,1.13A12.21,12.21,0,0,1,64,28.19Z"/><path class="cls-7" d="M48.31,19.94a2.66,2.66,0,0,1,.13-0.25c2.11,2.28,5.82,2,7.72,4.58,0.92,1.23,1.22,2.91,2,4.26s2.42,2.5,3.92,2.13A2.92,2.92,0,0,0,64,28.74a7.45,7.45,0,0,1-.73,3.56,3.42,3.42,0,0,1-3.09,2,4,4,0,0,1-2.9-2.26,28,28,0,0,1-1.51-3.77,6.81,6.81,0,0,0-2.18-3.24,2.48,2.48,0,0,0-3.35.29A9.8,9.8,0,0,1,48.48,23,3.78,3.78,0,0,1,48.31,19.94Z"/><path class="cls-7" d="M29.86,57.39a16.63,16.63,0,0,0-2.74-8.73,8.66,8.66,0,0,0-2.92,1.07,5,5,0,0,0-2.08,2.77,4.15,4.15,0,0,0,.58,3.66,11.44,11.44,0,0,1,1.24,1.22,1.34,1.34,0,0,1-.13,1.72,1.17,1.17,0,0,0-.85.36,0.62,0.62,0,0,0,.19.67,1,1,0,0,0,.58.17l3.41,0.23a2.36,2.36,0,0,0,2.26-.7A4,4,0,0,0,29.86,57.39Z"/><path class="cls-7" d="M51.75,57.39a16.63,16.63,0,0,1,2.74-8.73,8.66,8.66,0,0,1,2.92,1.07A5,5,0,0,1,59.5,52.5a4.15,4.15,0,0,1-.58,3.66,11.44,11.44,0,0,0-1.24,1.22,1.34,1.34,0,0,0,.13,1.72,1.17,1.17,0,0,1,.85.36,0.62,0.62,0,0,1-.19.67,1,1,0,0,1-.58.17l-3.41.23a2.36,2.36,0,0,1-2.26-.7A4,4,0,0,1,51.75,57.39Z"/><path class="cls-4" d="M35.67,40.64a9.2,9.2,0,0,0-4.38,5.14,15.75,15.75,0,0,0-.78,7.29,10.42,10.42,0,0,0,1.29,4.27,8.26,8.26,0,0,0,3,2.75,12.74,12.74,0,0,0,2.75,1.19A10,10,0,0,0,46.27,60a10.27,10.27,0,0,0,4-8.88,14.85,14.85,0,0,0-1.13-4.29,11.86,11.86,0,0,0-3.74-5.47,9.21,9.21,0,0,0-4.68-1.4A10,10,0,0,0,35.67,40.64Z"/><path class="cls-5" d="M44.59,52.84a7.21,7.21,0,0,1-6.48,1.61,7.39,7.39,0,0,1-4.92-5.05L30.43,52.1q0,0.48.08,1a10.42,10.42,0,0,0,1.29,4.27,8.26,8.26,0,0,0,3,2.75,12.75,12.75,0,0,0,2.75,1.19A10,10,0,0,0,46.27,60a10.27,10.27,0,0,0,4-8.88c0-.06,0-0.12,0-0.18a14.69,14.69,0,0,0-2-4.61A11.84,11.84,0,0,1,44.59,52.84Z"/><path class="cls-6" d="M27.93,59.91a3,3,0,0,0-.32-2.48,24.76,24.76,0,0,1-.85-17,5.89,5.89,0,0,1,1.83-3.07,4,4,0,0,1,3.57-.48,6.9,6.9,0,0,1,3,2.14,4,4,0,0,1,1.16,2.53,6.22,6.22,0,0,1-1.23,2.9,12.85,12.85,0,0,0-1.33,7,19,19,0,0,0,1.47,6.9,10.7,10.7,0,0,1,.85,2.32A2.85,2.85,0,0,1,35.6,63a3.39,3.39,0,0,1-2.33,1,10,10,0,0,1-3.75-.36,3.79,3.79,0,0,1-1.78-1,1.75,1.75,0,0,1-.37-1.91C27.52,60.42,27.77,60.2,27.93,59.91Z"/><path class="cls-7" d="M36.33,41.55A4,4,0,0,0,35.17,39a6.9,6.9,0,0,0-3-2.14,4,4,0,0,0-3.57.48,3.45,3.45,0,0,0-.38.34l0.67,3a4.45,4.45,0,0,1,2.19,3.36,32.26,32.26,0,0,1,.27,4.39,19.11,19.11,0,0,0,2,7.5A14.93,14.93,0,0,1,35,60.11a5.69,5.69,0,0,1-.64,3.63A2.57,2.57,0,0,0,35.6,63a2.85,2.85,0,0,0,.49-2.35,10.7,10.7,0,0,0-.85-2.32,19,19,0,0,1-1.47-6.9,12.85,12.85,0,0,1,1.33-7A6.22,6.22,0,0,0,36.33,41.55Z"/><path class="cls-7" d="M29.17,59.71a6,6,0,0,1,3.53-.24A5.71,5.71,0,0,0,28.09,59a1.61,1.61,0,0,1-.17.88c-0.15.29-.4,0.51-0.55,0.8a1.69,1.69,0,0,0,.19,1.68A3.06,3.06,0,0,1,29.17,59.71Z"/><path class="cls-7" d="M32.91,60.64A5.2,5.2,0,0,0,32.12,64a10,10,0,0,0,1.15,0h0A5.64,5.64,0,0,1,32.91,60.64Z"/><path class="cls-7" d="M30.27,63.78a3.82,3.82,0,0,1,.08-3.07A3.33,3.33,0,0,0,29,63.44l0.49,0.16C29.77,63.67,30,63.73,30.27,63.78Z"/><path class="cls-6" d="M53.36,59.91a3,3,0,0,1,.32-2.48,24.76,24.76,0,0,0,.85-17,5.89,5.89,0,0,0-1.83-3.07,4,4,0,0,0-3.57-.48,6.9,6.9,0,0,0-3,2.14,4,4,0,0,0-1.16,2.53,6.22,6.22,0,0,0,1.23,2.9,12.85,12.85,0,0,1,1.33,7A19,19,0,0,1,46,58.32a10.7,10.7,0,0,0-.85,2.32A2.85,2.85,0,0,0,45.68,63,3.39,3.39,0,0,0,48,64a10,10,0,0,0,3.75-.36,3.79,3.79,0,0,0,1.78-1,1.75,1.75,0,0,0,.37-1.91C53.76,60.42,53.51,60.2,53.36,59.91Z"/><path class="cls-7" d="M44.95,41.55A4,4,0,0,1,46.11,39a6.9,6.9,0,0,1,3-2.14,4,4,0,0,1,3.57.48,3.45,3.45,0,0,1,.38.34l-0.67,3a4.45,4.45,0,0,0-2.19,3.36A32.26,32.26,0,0,0,50,48.5,19.11,19.11,0,0,1,48,56a14.93,14.93,0,0,0-1.76,4.11,5.69,5.69,0,0,0,.64,3.63A2.57,2.57,0,0,1,45.68,63a2.85,2.85,0,0,1-.49-2.35A10.7,10.7,0,0,1,46,58.32a19,19,0,0,0,1.47-6.9,12.85,12.85,0,0,0-1.33-7A6.22,6.22,0,0,1,44.95,41.55Z"/><path class="cls-7" d="M52.11,59.71a6,6,0,0,0-3.53-.24A5.71,5.71,0,0,1,53.19,59a1.61,1.61,0,0,0,.17.88c0.15,0.29.4,0.51,0.55,0.8a1.69,1.69,0,0,1-.19,1.68A3.06,3.06,0,0,0,52.11,59.71Z"/><path class="cls-7" d="M48.37,60.64A5.2,5.2,0,0,1,49.16,64,10,10,0,0,1,48,64h0A5.64,5.64,0,0,0,48.37,60.64Z"/><path class="cls-7" d="M51,63.78a3.82,3.82,0,0,0-.08-3.07,3.33,3.33,0,0,1,1.31,2.73l-0.49.16C51.51,63.67,51.26,63.73,51,63.78Z"/><path class="cls-4" d="M39.45,16C27.54,16,23.72,28.54,25,35.78c1.65,9.52,20.85,12.28,28.59,3.91C59.43,33.34,53.93,16,39.45,16Z"/><path class="cls-5" d="M55.82,31.49a15,15,0,0,1-9.69,5.8,5.5,5.5,0,0,1-3.29-.39,3.29,3.29,0,0,1-1.77-3H39.74A3.44,3.44,0,0,1,36.8,37a8.09,8.09,0,0,1-4.22-.92,19.24,19.24,0,0,1-5.51-3.15,9.75,9.75,0,0,1-2.13-2.7,18.34,18.34,0,0,0,0,5.53c1.65,9.52,20.85,12.28,28.59,3.91C55.38,37.72,56.1,34.71,55.82,31.49Z"/><path class="cls-8" d="M40.26,30.51c-6,0-2.82,5.41-.11,5.41S46.07,30.51,40.26,30.51Z"/><ellipse class="cls-8" cx="34.64" cy="28" rx="1.28" ry="1.46"/><ellipse class="cls-1" cx="34.2" cy="27.45" rx="0.42" ry="0.48"/><ellipse class="cls-1" cx="35.06" cy="28.92" rx="0.21" ry="0.23"/><ellipse class="cls-8" cx="45.41" cy="28" rx="1.28" ry="1.46"/><ellipse class="cls-1" cx="44.96" cy="27.45" rx="0.42" ry="0.48"/><ellipse class="cls-1" cx="45.82" cy="28.92" rx="0.21" ry="0.23"/><path class="cls-8" d="M43.53,37.69A21.31,21.31,0,0,1,41.08,39c-1.47.41-2.65-.36-3.9-1.08a0.19,0.19,0,0,0-.23.3c1.42,1.92,5.61,2.28,6.75-.24C43.75,37.84,43.68,37.64,43.53,37.69Z"/><path class="cls-8" d="M40.38,34.72a0.15,0.15,0,0,0-.29,0,8.72,8.72,0,0,0-.13,2A8.66,8.66,0,0,0,40.1,39a0.31,0.31,0,0,0,.61-0.09A17.49,17.49,0,0,0,40.38,34.72Z"/></svg>