<svg id="Layer_1" data-name="Layer 1" xmlns="http://www.w3.org/2000/svg" viewBox="0 0 80 80"><defs><style>.cls-1{fill:#fff;}.cls-2{opacity:0.5;}.cls-3{fill:#dfc7b7;}.cls-4{fill:#ff9656;}.cls-5{fill:#ef8c56;}.cls-6{fill:#ffd7a3;}.cls-7{fill:#fdc88e;}.cls-8{fill:#ff4612;}.cls-9{fill:#ffe1b2;}.cls-10{fill:#ed1c24;}.cls-11{fill:#c1272d;}.cls-12{fill:#fcbc85;}.cls-13{fill:#f7945e;}.cls-14{fill:#3b2519;}</style></defs><title>a</title><circle id="_Path_" data-name="&lt;Path&gt;" class="cls-1" cx="40" cy="40" r="40"/><g id="_Group_" data-name="&lt;Group&gt;" class="cls-2"><path class="cls-3" d="M40,1A39,39,0,1,1,1,40,39,39,0,0,1,40,1m0-1A40,40,0,1,0,80,40,40,40,0,0,0,40,0h0Z"/></g><path class="cls-4" d="M40,11.1h0c-9.11,0-18,6.88-18,16.13,0,12.25,6.64,18,6.64,18a22.71,22.71,0,0,0-1.78,5.34h5a29.32,29.32,0,0,1-.35-5.34s25.61-4.66,25.61-18c0-9.11-8-16.13-17.07-16.13h0Zm0,0"/><path class="cls-5" d="M48,13a17.73,17.73,0,0,0-8-1.89h0c-9.11,0-18,6.88-18,16.13,0,12.25,6.64,18,6.64,18a22.7,22.7,0,0,0-1.78,5.34h5a29.32,29.32,0,0,1-.35-5.34,62,62,0,0,0,6.37-1.62l-13-12.84S43.69,24.18,48,13h0Zm0,0"/><path class="cls-6" d="M58,60.19l-0.18-.62a0.63,0.63,0,0,0-.68-0.44l-0.63-4.74a4.84,4.84,0,0,0-2.76-3.71l-1.86-.93a0.62,0.62,0,0,0-.75.29L47,48.53a1.9,1.9,0,0,1-1.3-1.8V43.67L49.8,42a5.69,5.69,0,0,0,3.5-5.25V35.76a2.85,2.85,0,1,0,0-5.69v-1.9c0-2.62-2.12-6.64-4.74-6.64H31.49c-2.62,0-4.74,4-4.74,6.64v1.9a2.85,2.85,0,1,0,0,5.69v0.95A5.69,5.69,0,0,0,30.25,42l4.09,1.7v3.06a1.9,1.9,0,0,1-1.3,1.8L28.95,50a0.62,0.62,0,0,0-.75-0.29l-1.86.93a4.84,4.84,0,0,0-2.76,3.71l-0.63,4.74a0.63,0.63,0,0,0-.68.44l-0.18.62a0.63,0.63,0,0,0,.43.78l1.4,0.41v2.85a1.9,1.9,0,0,0,1.9,1.9H54.25a1.9,1.9,0,0,0,1.9-1.9V61.37l1.4-.41A0.63,0.63,0,0,0,58,60.19h0Zm0,0"/><path class="cls-7" d="M45.72,43.57l-11.38,0v3.14a1.9,1.9,0,0,1-.92,1.62,12.87,12.87,0,0,0,12.3-4.78h0Zm0,0"/><path class="cls-8" d="M56.48,54.38a4.84,4.84,0,0,0-2.76-3.71l-1.86-.93a0.72,0.72,0,0,0-.85.4,33.74,33.74,0,0,1-11,8.39,33.74,33.74,0,0,1-11-8.39,0.72,0.72,0,0,0-.85-0.4l-1.86.93a4.84,4.84,0,0,0-2.76,3.71l-0.77,5.79c2.51,0.86,6.8,2.15,6.8,2.15v3.79H50.46V62.32s4.29-1.29,6.8-2.15Zm0,0"/><path class="cls-9" d="M53.3,30.07v-1.9c0-2.62-2.12-6.64-4.74-6.64H31.49c-2.62,0-4.74,4-4.74,6.64v1.9a2.85,2.85,0,0,0,0,5.69v0.95A5.69,5.69,0,0,0,30.25,42l6.13,2.55a9.49,9.49,0,0,0,7.3,0L49.8,42a5.69,5.69,0,0,0,3.5-5.25V35.76a2.85,2.85,0,1,0,0-5.69h0Zm0,0"/><path class="cls-6" d="M26.74,30.07a2.85,2.85,0,1,0,0,5.69v0.95A5.69,5.69,0,0,0,30.25,42l6.13,2.55a9.52,9.52,0,0,0,.92.33A39.53,39.53,0,0,1,31.72,40a4.44,4.44,0,0,1-1.19-3V32s15.81-2,19.92-8.54a4.7,4.7,0,0,0,.51-1c-9.25,5.32-24.22,7.69-24.22,7.69h0Zm0,0"/><path class="cls-10" d="M29.57,62a5.68,5.68,0,0,0-1.12-3.12L24,53a4.62,4.62,0,0,0-.43,1.41L22.81,60Zm0,0"/><path class="cls-11" d="M22.07,60.19a0.63,0.63,0,0,0,.43.78L29.59,63V62.32A5.68,5.68,0,0,0,29.42,61L23,59.14a0.63,0.63,0,0,0-.78.43Zm0,0"/><path class="cls-10" d="M50.48,62a5.68,5.68,0,0,1,1.11-3.12L56.05,53a4.63,4.63,0,0,1,.43,1.41L57.23,60Zm0,0"/><path class="cls-11" d="M58,60.19a0.63,0.63,0,0,1-.43.78L50.46,63V62.32A5.69,5.69,0,0,1,50.63,61L57,59.14a0.63,0.63,0,0,1,.78.43Zm0,0"/><path class="cls-8" d="M31.49,46.2H28.64a0.95,0.95,0,1,1,0-1.9h2.85a0.95,0.95,0,0,1,0,1.9h0Zm0,0"/><path class="cls-4" d="M24.85,21.18v9.61c14.81-1.76,21.82-4.88,25-7a38.78,38.78,0,0,1-1.45,13.88s5.68-7.92,4.8-16.48H24.85Zm0,0"/><path class="cls-5" d="M24.85,21.18v9.61s9.87-3.46,16.95-9.61H24.85Zm0,0"/><path class="cls-12" d="M40,36.71c-1.51,0-2.41-1.13-2.41-.58S38,37.71,40,37.71s2.41-1,2.41-1.58-0.91.58-2.41,0.58h0Zm0,0"/><path class="cls-12" d="M40,41.72c-0.52,0-.84-0.39-0.84-0.2s0.15,0.55.84,0.55,0.83-.36.83-0.55-0.31.2-.83,0.2h0Zm0,0"/><path class="cls-13" d="M40,40.33c-2.39,0-3.83-1-3.83-.73s0.69,1.22,3.83,1.22,3.83-1,3.83-1.22-1.44.73-3.83,0.73h0Zm0,0"/><path class="cls-14" d="M48.19,32.44a1.53,1.53,0,1,1-1.52-1.67,1.6,1.6,0,0,1,1.52,1.67h0Zm0,0"/><path class="cls-1" d="M46.45,31.7A0.46,0.46,0,1,1,46,31.25a0.46,0.46,0,0,1,.46.46h0Zm0,0"/><path class="cls-14" d="M34.84,32.44a1.53,1.53,0,1,1-1.52-1.67,1.6,1.6,0,0,1,1.52,1.67h0Zm0,0"/><path class="cls-1" d="M33.11,31.7a0.46,0.46,0,1,1-.46-0.46,0.46,0.46,0,0,1,.46.46h0Zm0,0"/></svg>