<svg width="569" height="359" viewBox="0 0 569 359" version="1.1" xmlns="http://www.w3.org/2000/svg" xmlns:xlink="http://www.w3.org/1999/xlink">
<title>Logo_Website</title>
<desc>Created using Figma</desc>
<g id="Canvas" transform="matrix(0.25 0 0 0.25 590.5 -2072.75)">
<g id="Logo_Website">
<g id="bitcoinbay_horz">
<g id="Group">
<g id="Group">
<g id="Group">
<g id="Group">
<g id="Vector">
<use xlink:href="#path0_fill" transform="translate(-1010.71 8920.54)" fill="#434345"/>
</g>
<g id="Vector">
<use xlink:href="#path1_fill" transform="translate(-763.263 8995.64)" fill="#434345"/>
</g>
<g id="Vector">
<use xlink:href="#path2_fill" transform="translate(-517.245 9001.06)" fill="#434345"/>
</g>
</g>
<g id="Group">
<g id="Vector">
<use xlink:href="#path3_fill" transform="translate(-1083.15 8551.07)" fill="#434345"/>
</g>
<g id="Vector">
<use xlink:href="#path4_fill" transform="translate(-999.24 8575.46)" fill="#434345"/>
</g>
<g id="Vector">
<use xlink:href="#path5_fill" transform="translate(-863.19 8632.37)" fill="#434345"/>
</g>
<g id="Vector">
<use xlink:href="#path6_fill" transform="translate(-628.926 8631.98)" fill="#434345"/>
</g>
<g id="Vector">
<use xlink:href="#path7_fill" transform="translate(-377.825 8551.07)" fill="#434345"/>
</g>
<g id="Vector">
<use xlink:href="#path8_fill" transform="translate(-284.366 8631.98)" fill="#434345"/>
</g>
<g id="Vector">
<use xlink:href="#path9_fill" transform="translate(-1334.88 8556.1)" fill="#434345"/>
</g>
</g>
</g>
</g>
<g id="Group">
<g id="Group">
<g id="Vector">
<use xlink:href="#path10_fill" transform="translate(-2071.29 8927.15)" fill="#A78F7C"/>
</g>
</g>
<g id="Vector">
<use xlink:href="#path11_fill" transform="translate(-2362 8291)" fill="#E56D85"/>
</g>
<g id="Vector">
<use xlink:href="#path12_fill" transform="translate(-1769.94 8707.89)" fill="#8DC63F"/>
</g>
<g id="Vector">
<use xlink:href="#path13_fill" transform="translate(-2057.21 8960.76)" fill="#31C0E8"/>
</g>
<g id="Group">
<g id="Vector">
<use xlink:href="#path14_fill" transform="translate(-1780.86 9196.8)" fill="#D8765A"/>
</g>
<g id="Vector">
<use xlink:href="#path15_fill" transform="translate(-1743.28 9232.46)" fill="#AEA2CF"/>
</g>
<g id="Vector">
<use xlink:href="#path16_fill" transform="translate(-2071.58 8681.09)" fill="#DBAE2E"/>
</g>
</g>
</g>
</g>
</g>
<g id="BitcoinBay.ca">
<use xlink:href="#path17_fill" transform="translate(-1224 9353)" fill="#777777"/>
</g>
</g>
</g>
<defs>
<path id="path0_fill" d="M -6.32118e-05 242.674L -6.32118e-05 -6.21584e-06L 57.2272 -6.21584e-06L 57.2272 101.822C 68.0554 87.497 90.8677 75.1072 121.806 75.1072C 189.087 75.1072 228.53 125.051 228.53 186.217C 228.53 247.389 194.12 297.33 115.976 297.33C 31.6917 297.33 -6.32118e-05 242.674 -6.32118e-05 242.674ZM 113.296 246.227C 148.872 246.227 171.686 219.901 171.686 186.217C 171.686 151.374 150.032 125.821 113.296 125.821C 77.3348 125.821 54.9086 150.988 54.9086 186.217C 54.9086 223.387 77.3348 246.227 113.296 246.227Z"/>
<path id="path1_fill" d="M 171.3 196.283C 162.405 208.287 136.885 222.222 106.724 222.222C 39.443 222.222 4.85376e-05 172.281 4.85376e-05 111.11C 4.85376e-05 49.9411 39.443 2.2038e-05 106.724 2.2038e-05C 137.657 2.2038e-05 160.472 12.3898 171.3 26.7146L 171.3 4.6453L 228.53 4.6453L 228.53 217.58L 171.3 217.58L 171.3 196.283ZM 115.231 50.7165C 78.4954 50.7165 56.8411 76.2691 56.8411 111.112C 56.8411 144.796 79.6559 171.122 115.231 171.122C 151.195 171.122 173.621 148.282 173.621 111.112C 173.621 75.8826 151.193 50.7165 115.231 50.7165Z"/>
<path id="path2_fill" d="M 54.5203 291.914L 91.2562 204.414L -4.51513e-05 2.9949e-05L 66.895 2.9949e-05L 120.645 135.501L 170.142 2.9949e-05L 237.04 2.9949e-05L 118.327 291.914L 54.5203 291.914Z"/>
<path id="path3_fill" d="M 32.48 62.3309C 14.6957 62.3309 -5.64391e-06 48.395 -5.64391e-06 30.971C -5.64391e-06 13.9382 14.6934 -2.40157e-06 32.48 -2.40157e-06C 49.8805 -2.40157e-06 64.1903 13.9382 64.1903 30.971C 64.1903 48.3927 49.8805 62.3309 32.48 62.3309ZM 3.48144 85.1732L 61.4832 85.1732L 61.4832 297.719L 3.48144 297.719L 3.48144 85.1732Z"/>
<path id="path4_fill" d="M 83.1372 197.445C 83.1372 209.06 83.5234 229.194 109.431 229.194C 116.006 229.194 120.645 228.807 124.125 228.419L 124.125 277.2C 117.162 277.973 106.336 278.748 98.2168 278.748C 53.362 278.748 25.9077 270.617 25.9077 225.706L 25.9077 107.627L 4.17649e-05 107.627L 4.17649e-05 56.9079L 25.9077 56.9079L 25.9077 2.26031e-06L 83.1372 2.26031e-06L 83.1372 56.9079L 125.669 56.9079L 125.669 107.627L 83.1372 107.627L 83.1372 197.445Z"/>
<path id="path5_fill" d="M 1.80605e-05 110.726C 1.80605e-05 49.5569 52.2016 -3.673e-06 115.617 -3.673e-06C 160.472 -3.673e-06 198.366 22.067 220.02 61.9467L 167.819 82.4629C 155.058 61.1713 136.497 50.7188 115.617 50.7188C 81.9745 50.7188 57.6156 76.2715 57.6156 110.726C 57.6156 145.569 82.3629 170.733 116.003 170.733C 136.883 170.733 156.219 161.831 169.751 139.762L 218.862 159.121C 198.366 200.933 164.726 221.841 116.003 221.841C 52.5876 221.838 1.80605e-05 171.895 1.80605e-05 110.726Z"/>
<path id="path6_fill" d="M 1.46742e-05 110.726C 1.46742e-05 49.9434 51.8155 1.44094e-05 115.234 1.44094e-05C 178.649 1.44094e-05 231.237 49.9434 231.237 110.726C 231.237 172.284 178.649 221.838 115.234 221.838C 51.8155 221.838 1.46742e-05 172.281 1.46742e-05 110.726ZM 56.8435 110.726C 56.8435 145.956 81.9768 171.508 115.234 171.508C 148.1 171.508 173.621 145.183 173.621 110.726C 173.621 76.658 148.1 50.7188 115.234 50.7188C 82.7512 50.7165 56.8435 77.0422 56.8435 110.726Z"/>
<path id="path7_fill" d="M 32.4824 62.3309C 14.6981 62.3309 3.38635e-06 48.395 3.38635e-06 30.971C 3.38635e-06 13.9382 14.6958 -2.40157e-06 32.4824 -2.40157e-06C 49.8829 -2.40157e-06 64.1926 13.9382 64.1926 30.971C 64.1926 48.3927 49.8829 62.3309 32.4824 62.3309ZM 3.48145 85.1732L 61.4832 85.1732L 61.4832 297.719L 3.48145 297.719L 3.48145 85.1732Z"/>
<path id="path8_fill" d="M 198.366 90.9804L 198.366 216.804L 139.204 216.804L 139.204 90.9804C 139.204 58.0721 120.643 48.0084 98.2168 48.0084C 82.3652 48.0084 56.4574 57.6856 57.6179 104.146L 57.6179 216.804L -4.62801e-05 216.804L -4.62801e-05 3.86994L 57.6179 3.86994L 57.6179 22.8423C 71.923 8.51754 95.5098 1.44094e-05 114.459 1.44094e-05C 175.94 1.44094e-05 198.366 35.6163 198.366 90.9804Z"/>
<path id="path9_fill" d="M -1.80605e-05 242.674L -1.80605e-05 5.9333e-06L 57.2296 5.9333e-06L 57.2296 101.822C 68.0555 87.497 90.8701 75.1072 121.806 75.1072C 189.087 75.1072 228.53 125.048 228.53 186.22C 228.53 247.389 194.122 297.332 115.978 297.332C 31.694 297.334 -1.80605e-05 242.674 -1.80605e-05 242.674ZM 113.299 246.229C 148.874 246.229 171.689 219.903 171.689 186.22C 171.689 151.376 150.035 125.824 113.299 125.824C 77.3348 125.824 54.9109 150.99 54.9109 186.22C 54.9109 223.387 77.3372 246.229 113.299 246.229Z"/>
<path id="path10_fill" d="M 152.002 281.392C 117.122 281.392 84.0643 271.465 56.4043 252.684C 29.1951 234.21 9.16377 207.928 1.0159e-05 178.686L 31.7726 168.703C 46.4152 215.425 95.8566 248.053 152.002 248.053C 220.668 248.053 276.529 199.892 276.529 140.695C 276.529 81.4977 220.668 33.3388 152.002 33.3388C 95.8566 33.3388 46.4152 65.967 31.7726 112.689L 1.0159e-05 102.708C 9.16608 73.4639 29.1974 47.1844 56.4043 28.7074C 84.0643 9.9271 117.122 1.92126e-05 152.002 1.92126e-05C 193.754 1.92126e-05 233.107 14.371 262.813 40.4676C 293.132 67.1035 309.834 102.699 309.834 140.697C 309.834 178.695 293.132 214.29 262.813 240.929C 233.107 267.021 193.752 281.392 152.002 281.392Z"/>
<path id="path11_fill" d="M 316.559 1154.39C 271.538 1142.67 229.085 1124.72 190.375 1101.03C 152.108 1077.61 118.394 1049.15 90.165 1016.44C 61.5225 983.247 39.2396 946.485 23.9289 907.173C 8.05412 866.406 0 823.677 0 780.173L 0 0L 323.725 0L 323.725 419.446L 290.425 419.446L 290.425 33.3411L 33.303 33.3411L 33.303 780.173C 33.303 819.516 40.585 858.171 54.9525 895.061C 68.8831 930.827 89.208 964.333 115.365 994.644C 141.338 1024.74 172.419 1050.97 207.74 1072.58C 243.658 1094.56 283.089 1111.22 324.937 1122.12L 316.559 1154.39Z"/>
<path id="path12_fill" d="M 245.064 273.744C 212.547 163.94 120.939 73.3852 -3.49922e-05 31.508L 10.886 1.27142e-05C 141.95 45.3814 241.43 144.173 276.989 264.266L 245.064 273.744Z"/>
<path id="path13_fill" d="M 427.342 764.295C 377.323 764.295 328.24 756.972 281.455 742.525C 236.154 728.535 193.921 708.179 155.923 682.015C 118.197 656.034 85.6548 625.04 59.2061 589.885C 32.2188 554.018 12.3008 514.77 4.23293e-06 473.231L 31.9275 463.755C 43.0956 501.462 61.222 537.148 85.8074 569.822C 110.095 602.101 140.034 630.607 174.796 654.544C 210.008 678.793 249.197 697.673 291.268 710.662C 334.875 724.129 380.659 730.956 427.345 730.956C 482.746 730.956 536.461 721.434 587.003 702.652C 635.707 684.557 679.42 658.671 716.921 625.725C 754.265 592.914 783.564 554.761 803.995 512.324C 825.062 468.563 835.745 422.096 835.745 374.212C 835.745 334.867 828.463 296.214 814.095 259.322C 800.167 223.558 779.84 190.05 753.682 159.741C 727.712 129.64 696.633 103.419 661.307 81.8056C 625.39 59.8289 585.958 43.1618 544.113 32.2672L 552.489 2.65586e-05C 597.51 11.7186 639.965 29.6726 678.678 53.3597C 716.939 76.7714 750.654 105.233 778.883 137.945C 807.528 171.138 829.813 207.902 845.119 247.215C 860.998 287.979 869.05 330.708 869.05 374.215C 869.05 427.151 857.255 478.49 833.995 526.804C 811.608 573.296 779.611 615.009 738.883 650.787C 698.314 686.427 651.113 714.394 598.587 733.914C 544.326 754.074 486.713 764.295 427.342 764.295Z"/>
<path id="path14_fill" d="M 157.828 33.3388C 179.708 33.3388 200.283 38.2364 218.169 46.8142C 224.151 37.3615 229.642 27.6543 234.644 17.7063C 211.418 6.15206 185.136 -2.2603e-06 157.828 -2.2603e-06C 116.075 -2.2603e-06 76.7222 14.3711 47.0209 40.4676C 16.6978 67.1035 2.14469e-05 102.699 2.14469e-05 140.699C 2.14469e-05 163.109 5.81173 184.68 16.7971 204.072C 17.9391 203.657 19.0858 203.245 20.2231 202.82C 29.7013 199.299 38.9784 195.473 48.0681 191.37C 38.6501 176.269 33.2984 159.014 33.2984 140.699C 33.3007 81.5023 89.1664 33.3388 157.828 33.3388Z"/>
<path id="path15_fill" d="M 231.052 4.80966C 229.175 3.15938 227.259 1.55771 225.305 1.13015e-05C 220.152 10.0267 214.546 19.8172 208.487 29.367C 230.899 48.7931 244.775 75.5447 244.775 105.041C 244.775 164.238 188.909 212.397 120.243 212.397C 86.4708 212.397 55.7986 200.739 33.34 181.852C 22.491 187.041 11.3738 191.832 2.76552e-05 196.228C 2.98449 199.343 6.12153 202.361 9.43658 205.273C 39.1379 231.367 78.4907 245.738 120.243 245.738C 161.998 245.738 201.348 231.367 231.054 205.273C 261.378 178.637 278.075 143.037 278.075 105.041C 278.071 67.041 261.375 31.4455 231.052 4.80966Z"/>
<path id="path16_fill" d="M 578.625 291.064L 575.953 282.037L 566.849 279.67C 526.384 269.136 484.276 263.797 441.703 263.797C 401.583 263.797 361.996 268.523 323.728 277.867L 323.728 30.6794L 312.52 26.7979C 261.169 9.01519 206.92 5.9333e-06 151.281 5.9333e-06C 103.656 5.9333e-06 56.788 6.66127 11.9749 19.7964L -8.74806e-06 23.3052L -8.74806e-06 653.882C -8.74806e-06 687.41 4.83154 720.729 14.3582 752.901L 17.0306 761.927L 26.1343 764.295C 66.5991 774.829 108.705 780.169 151.281 780.169C 210.646 780.169 268.26 769.945 322.521 749.783C 324.458 749.063 326.382 748.332 328.296 747.591C 339.669 743.198 350.787 738.405 361.636 733.215C 398.681 715.505 432.595 693.213 462.821 666.658C 492.092 640.941 516.858 612.153 536.783 580.73C 542.842 571.183 548.45 561.392 553.601 551.363C 555.083 548.486 556.523 545.589 557.926 542.67C 581.187 494.358 592.981 443.019 592.981 390.081C 592.981 356.555 588.152 323.236 578.625 291.064ZM 527.933 528.197C 527.09 529.945 526.227 531.683 525.356 533.416C 520.353 543.364 514.863 553.072 508.88 562.524C 490.613 591.408 467.837 617.898 440.855 641.601C 410.649 668.14 376.41 690.081 338.782 707.077C 329.692 711.181 320.415 715.009 310.937 718.527C 309.799 718.953 308.653 719.365 307.511 719.78C 257.965 737.729 205.429 746.83 151.283 746.83C 114.762 746.83 78.634 742.631 43.7428 734.326C 36.8145 708.068 33.303 681.055 33.303 653.882L 33.303 48.4644C 71.4306 38.4239 111.054 33.3411 151.281 33.3411C 199.168 33.3411 245.919 40.4862 290.427 54.591L 290.427 321.839L 311.757 315.587C 353.521 303.343 397.246 297.135 441.703 297.135C 478.222 297.135 514.352 301.339 549.245 309.639C 556.176 335.895 559.685 362.913 559.685 390.085C 559.683 437.971 549 484.438 527.933 528.197Z"/>
<path id="path17_fill" d="M 138.281 134L 138.281 31.625L 168.515 31.625C 179.484 31.625 187.804 33.8984 193.476 38.4453C 199.148 42.9453 201.984 49.6016 201.984 58.4141C 201.984 63.7109 200.531 68.3281 197.624 72.2656C 194.765 76.1562 190.827 78.9453 185.812 80.6328C 191.765 81.9453 196.546 84.875 200.156 89.4219C 203.812 93.9688 205.64 99.2188 205.64 105.172C 205.64 114.219 202.71 121.297 196.851 126.406C 191.038 131.469 182.929 134 172.523 134L 138.281 134ZM 146.929 84.7812L 146.929 126.688L 172.874 126.688C 180.281 126.688 186.14 124.812 190.452 121.062C 194.812 117.266 196.992 112.016 196.992 105.312C 196.992 98.9844 194.906 93.9922 190.734 90.3359C 186.609 86.6328 180.89 84.7812 173.577 84.7812L 146.929 84.7812ZM 146.929 77.5391L 170.554 77.5391C 177.773 77.3984 183.351 75.7109 187.288 72.4766C 191.273 69.1953 193.265 64.4375 193.265 58.2031C 193.265 51.6406 191.202 46.8125 187.077 43.7188C 182.999 40.5781 176.812 39.0078 168.515 39.0078L 146.929 39.0078L 146.929 77.5391ZM 235.486 134L 227.049 134L 227.049 57.9219L 235.486 57.9219L 235.486 134ZM 225.572 35.9141C 225.572 34.3203 226.088 32.9844 227.119 31.9062C 228.15 30.7812 229.557 30.2188 231.338 30.2188C 233.119 30.2188 234.525 30.7812 235.557 31.9062C 236.635 32.9844 237.174 34.3203 237.174 35.9141C 237.174 37.5078 236.635 38.8437 235.557 39.9219C 234.525 41 233.119 41.5391 231.338 41.5391C 229.557 41.5391 228.15 41 227.119 39.9219C 226.088 38.8437 225.572 37.5078 225.572 35.9141ZM 272.926 38.4453L 272.926 57.9219L 288.676 57.9219L 288.676 64.8125L 272.926 64.8125L 272.926 115.508C 272.926 119.727 273.676 122.867 275.176 124.93C 276.723 126.992 279.278 128.023 282.84 128.023C 284.247 128.023 286.52 127.789 289.661 127.32L 290.012 134.211C 287.809 135.008 284.809 135.406 281.012 135.406C 275.247 135.406 271.051 133.742 268.426 130.414C 265.801 127.039 264.489 122.094 264.489 115.578L 264.489 64.8125L 250.497 64.8125L 250.497 57.9219L 264.489 57.9219L 264.489 38.4453L 272.926 38.4453ZM 335.679 128.305C 341.538 128.305 346.437 126.664 350.374 123.383C 354.358 120.055 356.515 115.766 356.843 110.516L 364.929 110.516C 364.694 115.156 363.241 119.398 360.569 123.242C 357.897 127.039 354.335 130.016 349.882 132.172C 345.476 134.328 340.741 135.406 335.679 135.406C 325.694 135.406 317.772 131.937 311.913 125C 306.101 118.062 303.194 108.734 303.194 97.0156L 303.194 94.4844C 303.194 86.9844 304.507 80.3516 307.132 74.5859C 309.757 68.8203 313.507 64.3672 318.382 61.2266C 323.304 58.0859 329.046 56.5156 335.608 56.5156C 343.952 56.5156 350.819 59 356.21 63.9688C 361.647 68.9375 364.554 75.4766 364.929 83.5859L 356.843 83.5859C 356.468 77.6328 354.312 72.8281 350.374 69.1719C 346.483 65.5156 341.562 63.6875 335.608 63.6875C 328.015 63.6875 322.108 66.4297 317.89 71.9141C 313.718 77.3984 311.632 85.0859 311.632 94.9766L 311.632 97.4375C 311.632 107.141 313.718 114.711 317.89 120.148C 322.108 125.586 328.038 128.305 335.679 128.305ZM 378.603 94.8359C 378.603 87.5234 380.009 80.9375 382.822 75.0781C 385.681 69.2188 389.689 64.6719 394.845 61.4375C 400.048 58.1563 405.931 56.5156 412.494 56.5156C 422.619 56.5156 430.822 60.0781 437.103 67.2031C 443.384 74.2813 446.525 83.6797 446.525 95.3984L 446.525 97.1562C 446.525 104.516 445.095 111.148 442.236 117.055C 439.423 122.914 435.439 127.437 430.283 130.625C 425.127 133.812 419.244 135.406 412.634 135.406C 402.556 135.406 394.353 131.867 388.025 124.789C 381.744 117.664 378.603 108.242 378.603 96.5234L 378.603 94.8359ZM 387.041 97.1562C 387.041 106.25 389.384 113.727 394.072 119.586C 398.806 125.398 404.994 128.305 412.634 128.305C 420.228 128.305 426.369 125.398 431.056 119.586C 435.791 113.727 438.158 106.016 438.158 96.4531L 438.158 94.8359C 438.158 89.0234 437.08 83.7031 434.923 78.875C 432.767 74.0469 429.744 70.3203 425.853 67.6953C 421.962 65.0234 417.509 63.6875 412.494 63.6875C 404.994 63.6875 398.877 66.6406 394.142 72.5469C 389.408 78.4062 387.041 86.0938 387.041 95.6094L 387.041 97.1562ZM 474.824 134L 466.387 134L 466.387 57.9219L 474.824 57.9219L 474.824 134ZM 464.91 35.9141C 464.91 34.3203 465.426 32.9844 466.457 31.9062C 467.488 30.7812 468.895 30.2188 470.676 30.2188C 472.457 30.2188 473.863 30.7812 474.895 31.9062C 475.973 32.9844 476.512 34.3203 476.512 35.9141C 476.512 37.5078 475.973 38.8437 474.895 39.9219C 473.863 41 472.457 41.5391 470.676 41.5391C 468.895 41.5391 467.488 41 466.457 39.9219C 465.426 38.8437 464.91 37.5078 464.91 35.9141ZM 507.202 57.9219L 507.483 70.9297C 510.342 66.2422 513.905 62.6797 518.171 60.2422C 522.436 57.7578 527.147 56.5156 532.303 56.5156C 540.46 56.5156 546.53 58.8125 550.514 63.4062C 554.499 68 556.514 74.8906 556.561 84.0781L 556.561 134L 548.194 134L 548.194 84.0078C 548.147 77.2109 546.694 72.1484 543.835 68.8203C 541.022 65.4922 536.499 63.8281 530.264 63.8281C 525.061 63.8281 520.444 65.4687 516.413 68.75C 512.428 71.9844 509.475 76.3672 507.553 81.8984L 507.553 134L 499.186 134L 499.186 57.9219L 507.202 57.9219ZM 581.767 134L 581.767 31.625L 612.001 31.625C 622.97 31.625 631.29 33.8984 636.962 38.4453C 642.634 42.9453 645.47 49.6016 645.47 58.4141C 645.47 63.7109 644.017 68.3281 641.111 72.2656C 638.251 76.1562 634.314 78.9453 629.298 80.6328C 635.251 81.9453 640.032 84.875 643.642 89.4219C 647.298 93.9688 649.126 99.2188 649.126 105.172C 649.126 114.219 646.197 121.297 640.337 126.406C 634.525 131.469 626.415 134 616.009 134L 581.767 134ZM 590.415 84.7812L 590.415 126.688L 616.361 126.688C 623.767 126.688 629.626 124.812 633.939 121.062C 638.298 117.266 640.478 112.016 640.478 105.312C 640.478 98.9844 638.392 93.9922 634.22 90.3359C 630.095 86.6328 624.376 84.7812 617.064 84.7812L 590.415 84.7812ZM 590.415 77.5391L 614.04 77.5391C 621.259 77.3984 626.837 75.7109 630.775 72.4766C 634.759 69.1953 636.751 64.4375 636.751 58.2031C 636.751 51.6406 634.689 46.8125 630.564 43.7188C 626.486 40.5781 620.298 39.0078 612.001 39.0078L 590.415 39.0078L 590.415 77.5391ZM 717.574 134C 716.73 131.609 716.191 128.07 715.957 123.383C 713.004 127.227 709.23 130.203 704.637 132.312C 700.09 134.375 695.262 135.406 690.152 135.406C 682.84 135.406 676.91 133.367 672.363 129.289C 667.863 125.211 665.613 120.055 665.613 113.82C 665.613 106.414 668.683 100.555 674.824 96.2422C 681.012 91.9297 689.613 89.7734 700.629 89.7734L 715.887 89.7734L 715.887 81.125C 715.887 75.6875 714.199 71.4219 710.824 68.3281C 707.496 65.1875 702.621 63.6172 696.199 63.6172C 690.34 63.6172 685.488 65.1172 681.644 68.1172C 677.801 71.1172 675.879 74.7266 675.879 78.9453L 667.441 78.875C 667.441 72.8281 670.254 67.6016 675.879 63.1953C 681.504 58.7422 688.418 56.5156 696.621 56.5156C 705.105 56.5156 711.785 58.6484 716.66 62.9141C 721.582 67.1328 724.113 73.0391 724.254 80.6328L 724.254 116.633C 724.254 123.992 725.027 129.5 726.574 133.156L 726.574 134L 717.574 134ZM 691.137 127.953C 696.762 127.953 701.777 126.594 706.183 123.875C 710.637 121.156 713.871 117.523 715.887 112.977L 715.887 96.2422L 700.84 96.2422C 692.449 96.3359 685.887 97.8828 681.152 100.883C 676.418 103.836 674.051 107.914 674.051 113.117C 674.051 117.383 675.621 120.922 678.762 123.734C 681.949 126.547 686.074 127.953 691.137 127.953ZM 771.186 121.906L 793.405 57.9219L 802.475 57.9219L 769.991 146.938L 768.303 150.875C 764.131 160.109 757.686 164.727 748.967 164.727C 746.952 164.727 744.795 164.398 742.498 163.742L 742.428 156.781L 746.787 157.203C 750.912 157.203 754.241 156.172 756.772 154.109C 759.35 152.094 761.53 148.602 763.311 143.633L 767.037 133.367L 738.35 57.9219L 747.561 57.9219L 771.186 121.906ZM 808.626 128.938C 808.626 127.297 809.142 125.914 810.173 124.789C 811.251 123.617 812.728 123.031 814.603 123.031C 816.478 123.031 817.954 123.617 819.032 124.789C 820.11 125.914 820.649 127.297 820.649 128.938C 820.649 130.578 820.11 131.937 819.032 133.016C 817.954 134.047 816.478 134.562 814.603 134.562C 812.728 134.562 811.251 134.047 810.173 133.016C 809.142 131.937 808.626 130.578 808.626 128.938ZM 873.417 128.305C 879.277 128.305 884.175 126.664 888.113 123.383C 892.097 120.055 894.253 115.766 894.582 110.516L 902.667 110.516C 902.433 115.156 900.98 119.398 898.308 123.242C 895.636 127.039 892.074 130.016 887.621 132.172C 883.214 134.328 878.48 135.406 873.417 135.406C 863.433 135.406 855.511 131.937 849.652 125C 843.839 118.062 840.933 108.734 840.933 97.0156L 840.933 94.4844C 840.933 86.9844 842.246 80.3516 844.871 74.5859C 847.496 68.8203 851.246 64.3672 856.121 61.2266C 861.042 58.0859 866.785 56.5156 873.347 56.5156C 881.691 56.5156 888.558 59 893.949 63.9688C 899.386 68.9375 902.292 75.4766 902.667 83.5859L 894.582 83.5859C 894.207 77.6328 892.05 72.8281 888.113 69.1719C 884.222 65.5156 879.3 63.6875 873.347 63.6875C 865.753 63.6875 859.847 66.4297 855.628 71.9141C 851.457 77.3984 849.371 85.0859 849.371 94.9766L 849.371 97.4375C 849.371 107.141 851.457 114.711 855.628 120.148C 859.847 125.586 865.777 128.305 873.417 128.305ZM 969.006 134C 968.162 131.609 967.623 128.07 967.389 123.383C 964.436 127.227 960.662 130.203 956.068 132.312C 951.522 134.375 946.693 135.406 941.584 135.406C 934.272 135.406 928.342 133.367 923.795 129.289C 919.295 125.211 917.045 120.055 917.045 113.82C 917.045 106.414 920.115 100.555 926.256 96.2422C 932.443 91.9297 941.045 89.7734 952.061 89.7734L 967.318 89.7734L 967.318 81.125C 967.318 75.6875 965.631 71.4219 962.256 68.3281C 958.928 65.1875 954.053 63.6172 947.631 63.6172C 941.772 63.6172 936.92 65.1172 933.076 68.1172C 929.233 71.1172 927.311 74.7266 927.311 78.9453L 918.873 78.875C 918.873 72.8281 921.686 67.6016 927.311 63.1953C 932.936 58.7422 939.85 56.5156 948.053 56.5156C 956.537 56.5156 963.217 58.6484 968.092 62.9141C 973.014 67.1328 975.545 73.0391 975.686 80.6328L 975.686 116.633C 975.686 123.992 976.459 129.5 978.006 133.156L 978.006 134L 969.006 134ZM 942.568 127.953C 948.193 127.953 953.209 126.594 957.615 123.875C 962.068 121.156 965.303 117.523 967.318 112.977L 967.318 96.2422L 952.272 96.2422C 943.881 96.3359 937.318 97.8828 932.584 100.883C 927.85 103.836 925.483 107.914 925.483 113.117C 925.483 117.383 927.053 120.922 930.193 123.734C 933.381 126.547 937.506 127.953 942.568 127.953Z"/>
</defs>
</svg>
