<svg width="1256" height="156" viewBox="0 0 1256 156" version="1.1" xmlns="http://www.w3.org/2000/svg" xmlns:xlink="http://www.w3.org/1999/xlink">
<title>Lockup 2</title>
<desc>Created using Figma</desc>
<g id="Canvas" transform="matrix(0.5 0 0 0.5 22200.5 -16880.5)">
<g id="Lockup 2">
<g id="Rectangle 2.196">
<use xlink:href="#path0_fill" transform="matrix(0.999993 -0.0036497 0.0036497 0.999993 -44400.7 33770.7)"/>
</g>
<g id="HACK">
<use xlink:href="#path1_fill" transform="matrix(0.999993 -0.0036497 0.0036497 0.999993 -43564 33834.7)" fill="#FFFFFF"/>
<use xlink:href="#path2_fill" transform="matrix(0.999993 -0.0036497 0.0036497 0.999993 -43564 33834.7)" fill="#FFFFFF"/>
<use xlink:href="#path3_fill" transform="matrix(0.999993 -0.0036497 0.0036497 0.999993 -43564 33834.7)" fill="#FFFFFF"/>
<use xlink:href="#path4_fill" transform="matrix(0.999993 -0.0036497 0.0036497 0.999993 -43564 33834.7)" fill="#FFFFFF"/>
</g>
<g id="Group 62">
<g id="Rectangle 2.195">
<use xlink:href="#path5_fill" transform="matrix(0.999993 -0.0036497 0.0036497 0.999993 -44340.9 33821.1)"/>
<mask id="mask0_outline_ins">
<use xlink:href="#path5_fill" fill="white" transform="matrix(0.999993 -0.0036497 0.0036497 0.999993 -44340.9 33821.1)"/>
</mask>
<g mask="url(#mask0_outline_ins)">
<use xlink:href="#path6_stroke_2x" transform="matrix(0.999993 -0.0036497 0.0036497 0.999993 -44340.9 33821.1)"/>
</g>
</g>
<g id="BL">
<use xlink:href="#path7_fill" transform="matrix(0.999993 -0.0036497 0.0036497 0.999993 -44317.4 33840.5)" fill="#FFFFFF"/>
<use xlink:href="#path8_fill" transform="matrix(0.999993 -0.0036497 0.0036497 0.999993 -44317.4 33840.5)" fill="#FFFFFF"/>
</g>
<g id="CK">
<use xlink:href="#path9_fill" transform="matrix(0.999993 -0.0036497 0.0036497 0.999993 -43959.9 33842.2)" fill="#FFFFFF"/>
<use xlink:href="#path10_fill" transform="matrix(0.999993 -0.0036497 0.0036497 0.999993 -43959.9 33842.2)" fill="#FFFFFF"/>
</g>
<g id="Group 43.20">
<g id="Rectangle 2.141">
<use xlink:href="#path11_fill" transform="matrix(0.999993 -0.0036497 0.0036497 0.999993 -44075.8 33836.6)" fill="#31C0E8"/>
</g>
<g id="Rectangle 2.142">
<use xlink:href="#path12_fill" transform="matrix(0.999993 -0.0036497 0.0036497 0.999993 -44107.9 33888.5)" fill="#31C0E8"/>
</g>
<g id="Rectangle 2.143">
<use xlink:href="#path13_fill" transform="matrix(0.999993 -0.0036497 0.0036497 0.999993 -44105.5 33940.4)" fill="#31C0E8"/>
</g>
<g id="Rectangle 2.144">
<use xlink:href="#path14_fill" transform="matrix(0.999993 -0.0036497 0.0036497 0.999993 -44078.6 33994.5)" fill="#31C0E8"/>
</g>
</g>
</g>
<g id="TORONTO">
<use xlink:href="#path15_fill" transform="matrix(0.999993 -0.0036497 0.0036497 0.999993 -42673.2 33884.8)" fill="#FFFFFF"/>
<use xlink:href="#path16_fill" transform="matrix(0.999993 -0.0036497 0.0036497 0.999993 -42673.2 33884.8)" fill="#FFFFFF"/>
<use xlink:href="#path17_fill" transform="matrix(0.999993 -0.0036497 0.0036497 0.999993 -42673.2 33884.8)" fill="#FFFFFF"/>
<use xlink:href="#path18_fill" transform="matrix(0.999993 -0.0036497 0.0036497 0.999993 -42673.2 33884.8)" fill="#FFFFFF"/>
<use xlink:href="#path19_fill" transform="matrix(0.999993 -0.0036497 0.0036497 0.999993 -42673.2 33884.8)" fill="#FFFFFF"/>
<use xlink:href="#path20_fill" transform="matrix(0.999993 -0.0036497 0.0036497 0.999993 -42673.2 33884.8)" fill="#FFFFFF"/>
<use xlink:href="#path21_fill" transform="matrix(0.999993 -0.0036497 0.0036497 0.999993 -42673.2 33884.8)" fill="#FFFFFF"/>
</g>
<g id="Rectangle 14">
<use xlink:href="#path22_fill" transform="matrix(0.999993 -0.0036497 0.0036497 0.999993 -42789.5 33831.9)" fill="#FFFFFF"/>
</g>
</g>
</g>
<defs>
<path id="path0_fill" d="M 0 0L 2508.82 0L 2508.82 301.699L 0 301.699L 0 0Z"/>
<path id="path1_fill" d="M 148.858 1.74695L 148.858 178.189L 106.953 178.189L 106.953 104.568L 41.6607 104.568L 41.6607 178.189L 0 178.189L 0 1.74695L 41.6607 1.74695L 41.6607 70.1276L 106.953 70.1276L 106.953 1.74695L 148.858 1.74695Z"/>
<path id="path2_fill" d="M 291.507 145.995L 226.945 145.995L 216.225 178.189L 172.372 178.189L 235.472 2.99477L 283.467 2.99477L 346.567 178.189L 302.226 178.189L 291.507 145.995ZM 280.787 113.552L 259.348 48.6651L 237.665 113.552L 280.787 113.552Z"/>
<path id="path3_fill" d="M 429.272 0C 451.198 0 469.308 5.90636 483.601 17.7191C 498.056 29.5318 507.396 45.5039 511.619 65.6355L 467.522 65.6355C 464.273 57.483 459.238 51.0775 452.417 46.419C 445.757 41.7605 437.799 39.4312 428.541 39.4312C 416.359 39.4312 406.533 44.0065 399.062 53.1572C 391.59 62.3079 387.855 74.5366 387.855 89.8432C 387.855 105.15 391.59 117.378 399.062 126.529C 406.533 135.514 416.359 140.006 428.541 140.006C 437.799 140.006 445.757 137.676 452.417 133.018C 459.238 128.359 464.273 122.037 467.522 114.051L 511.619 114.051C 507.396 134.016 498.056 149.988 483.601 161.967C 469.308 173.78 451.198 179.686 429.272 179.686C 412.542 179.686 397.843 175.943 385.175 168.456C 372.506 160.803 362.68 150.155 355.696 136.512C 348.874 122.869 345.463 107.313 345.463 89.8432C 345.463 72.3737 348.874 56.8175 355.696 43.1747C 362.68 29.5318 372.506 18.9669 385.175 11.48C 397.843 3.82666 412.542 0 429.272 0Z"/>
<path id="path4_fill" d="M 613.659 88.0963L 683.094 178.189L 632.663 178.189L 574.191 99.0771L 574.191 178.189L 532.531 178.189L 532.531 1.74695L 574.191 1.74695L 574.191 79.3615L 633.15 1.74695L 683.094 1.74695L 613.659 88.0963Z"/>
<path id="path5_fill" d="M 0 0L 715.053 0L 715.053 207.138L 0 207.138L 0 0Z"/>
<path id="path6_stroke_2x" d="M 0 0L 0 -2L -2 -2L -2 0L 0 0ZM 715.053 0L 717.053 0L 717.053 -2L 715.053 -2L 715.053 0ZM 715.053 207.138L 715.053 209.138L 717.053 209.138L 717.053 207.138L 715.053 207.138ZM 0 207.138L -2 207.138L -2 209.138L 0 209.138L 0 207.138ZM 0 2L 715.053 2L 715.053 -2L 0 -2L 0 2ZM 713.053 0L 713.053 207.138L 717.053 207.138L 717.053 0L 713.053 0ZM 715.053 205.138L 0 205.138L 0 209.138L 715.053 209.138L 715.053 205.138ZM 2 207.138L 2 0L -2 0L -2 207.138L 2 207.138Z"/>
<path id="path7_fill" d="M 97.7418 80.845C 107.577 83.202 115.338 88.0731 121.025 95.4584C 126.865 102.844 129.785 111.407 129.785 121.15C 129.785 135.449 125.097 146.605 115.723 154.619C 106.502 162.633 93.2082 166.64 75.8421 166.64L 0 166.64L 0 0L 73.9979 0C 90.5956 0 103.428 3.69263 112.495 11.0779C 121.563 18.4632 126.096 28.9911 126.096 42.6616C 126.096 52.7182 123.484 61.1248 118.258 67.8815C 113.033 74.4811 106.194 78.8023 97.7418 80.845ZM 39.4194 68.1172L 65.238 68.1172C 78.9157 68.1172 85.7546 62.1462 85.7546 50.204C 85.7546 38.2619 78.7621 32.2909 64.777 32.2909L 39.4194 32.2909L 39.4194 68.1172ZM 67.5433 133.877C 82.1431 133.877 89.443 127.749 89.443 115.493C 89.443 109.522 87.5219 104.886 83.6799 101.587C 79.8378 98.1297 74.3821 96.4012 67.3127 96.4012L 39.4194 96.4012L 39.4194 133.877L 67.5433 133.877Z"/>
<path id="path8_fill" d="M 178.499 135.763L 231.058 135.763L 231.058 166.64L 139.079 166.64L 139.079 0L 178.499 0L 178.499 135.763Z"/>
<path id="path9_fill" d="M 79.2999 0C 100.047 0 117.183 5.57823 130.707 16.7347C 144.384 27.8911 153.221 42.9759 157.217 61.989L 115.492 61.989C 112.418 54.2895 107.654 48.2399 101.2 43.8401C 94.8986 39.4404 87.3682 37.2406 78.6083 37.2406C 67.0822 37.2406 57.7844 41.5617 50.715 50.204C 43.6457 58.8464 40.111 70.3957 40.111 84.8519C 40.111 99.3082 43.6457 110.857 50.715 119.5C 57.7844 127.985 67.0822 132.228 78.6083 132.228C 87.3682 132.228 94.8986 130.028 101.2 125.628C 107.654 121.228 112.418 115.257 115.492 107.715L 157.217 107.715C 153.221 126.571 144.384 141.656 130.707 152.969C 117.183 164.126 100.047 169.704 79.2999 169.704C 63.4707 169.704 49.5624 166.168 37.5752 159.097C 25.5881 151.869 16.2903 141.813 9.68196 128.928C 3.22732 116.043 0 101.351 0 84.8519C 0 68.3529 3.22732 53.661 9.68196 40.7761C 16.2903 27.8911 25.5881 17.9132 37.5752 10.8422C 49.5624 3.61405 63.4707 0 79.2999 0Z"/>
<path id="path10_fill" d="M 249.158 83.202L 314.857 168.29L 267.138 168.29L 211.813 93.5728L 211.813 168.29L 172.393 168.29L 172.393 1.64989L 211.813 1.64989L 211.813 74.9525L 267.599 1.64989L 314.857 1.64989L 249.158 83.202Z"/>
<path id="path11_fill" d="M 24.0617 0L 79.2679 0L 103.465 14.142L 0 14.142L 24.0617 0Z"/>
<path id="path12_fill" d="M 6.01548 0L 157.605 0L 164.824 14.142L 0 14.142L 6.01548 0Z"/>
<path id="path13_fill" d="M 0 0L 162.418 0L 158.809 14.142L 2.40619 14.142L 0 0Z"/>
<path id="path14_fill" d="M 0 0L 109.481 0L 80.3354 14.142L 33.6863 14.142L 0 0Z"/>
<path id="path15_fill" d="M 52.1126 1.0203L 52.1126 15.5828L 34.8322 15.5828L 34.8322 66.6907L 17.0994 66.6907L 17.0994 15.5828L 0 15.5828L 0 1.0203L 52.1126 1.0203Z"/>
<path id="path16_fill" d="M 125.908 0C 131.939 0 137.428 1.45316 142.374 4.35948C 147.38 7.20396 151.3 11.1924 154.135 16.3249C 157.03 21.4573 158.478 27.239 158.478 33.67C 158.478 40.101 157.03 45.8827 154.135 51.0152C 151.24 56.1476 147.29 60.167 142.283 63.0733C 137.337 65.9178 131.879 67.34 125.908 67.34C 119.936 67.34 114.448 65.9178 109.442 63.0733C 104.435 60.167 100.485 56.1476 97.5895 51.0152C 94.6944 45.8827 93.2468 40.101 93.2468 33.67C 93.2468 27.239 94.6944 21.4573 97.5895 16.3249C 100.485 11.1924 104.435 7.20396 109.442 4.35948C 114.448 1.45316 119.936 0 125.908 0ZM 125.908 16.8814C 121.384 16.8814 117.825 18.3964 115.232 21.4264C 112.638 24.3945 111.341 28.4757 111.341 33.67C 111.341 38.7406 112.638 42.7909 115.232 45.8209C 117.825 48.8509 121.384 50.3659 125.908 50.3659C 130.371 50.3659 133.899 48.8509 136.493 45.8209C 139.087 42.7909 140.383 38.7406 140.383 33.67C 140.383 28.4757 139.087 24.3945 136.493 21.4264C 133.96 18.3964 130.431 16.8814 125.908 16.8814Z"/>
<path id="path17_fill" d="M 236.11 66.6907L 223.172 42.4817L 221.363 42.4817L 221.363 66.6907L 203.539 66.6907L 203.539 1.0203L 231.677 1.0203C 236.803 1.0203 241.146 1.94785 244.705 3.80295C 248.324 5.59621 251.038 8.10059 252.847 11.3161C 254.657 14.5316 255.562 18.149 255.562 22.1684C 255.562 26.7443 254.325 30.7328 251.852 34.1338C 249.379 37.473 245.821 39.8227 241.176 41.1832L 255.742 66.6907L 236.11 66.6907ZM 221.363 30.2381L 230.139 30.2381C 235.084 30.2381 237.557 27.9501 237.557 23.3742C 237.557 21.2099 236.924 19.5094 235.657 18.2727C 234.451 17.036 232.611 16.4176 230.139 16.4176L 221.363 16.4176L 221.363 30.2381Z"/>
<path id="path18_fill" d="M 330.593 0C 336.624 0 342.113 1.45316 347.059 4.35948C 352.065 7.20396 355.986 11.1924 358.82 16.3249C 361.716 21.4573 363.163 27.239 363.163 33.67C 363.163 40.101 361.716 45.8827 358.82 51.0152C 355.925 56.1476 351.975 60.167 346.969 63.0733C 342.023 65.9178 336.564 67.34 330.593 67.34C 324.622 67.34 319.133 65.9178 314.127 63.0733C 309.121 60.167 305.17 56.1476 302.275 51.0152C 299.38 45.8827 297.932 40.101 297.932 33.67C 297.932 27.239 299.38 21.4573 302.275 16.3249C 305.17 11.1924 309.121 7.20396 314.127 4.35948C 319.133 1.45316 324.622 0 330.593 0ZM 330.593 16.8814C 326.069 16.8814 322.511 18.3964 319.917 21.4264C 317.323 24.3945 316.027 28.4757 316.027 33.67C 316.027 38.7406 317.323 42.7909 319.917 45.8209C 322.511 48.8509 326.069 50.3659 330.593 50.3659C 335.056 50.3659 338.585 48.8509 341.178 45.8209C 343.772 42.7909 345.069 38.7406 345.069 33.67C 345.069 28.4757 343.772 24.3945 341.178 21.4264C 338.645 18.3964 335.116 16.8814 330.593 16.8814Z"/>
<path id="path19_fill" d="M 467.394 66.6907L 449.571 66.6907L 426.048 30.0526L 426.048 66.6907L 408.225 66.6907L 408.225 1.11306L 426.048 1.11306L 449.571 38.215L 449.571 1.11306L 467.394 1.11306L 467.394 66.6907Z"/>
<path id="path20_fill" d="M 562.544 1.0203L 562.544 15.5828L 545.264 15.5828L 545.264 66.6907L 527.531 66.6907L 527.531 15.5828L 510.432 15.5828L 510.432 1.0203L 562.544 1.0203Z"/>
<path id="path21_fill" d="M 636.339 0C 642.371 0 647.86 1.45316 652.806 4.35948C 657.812 7.20396 661.732 11.1924 664.567 16.3249C 667.462 21.4573 668.91 27.239 668.91 33.67C 668.91 40.101 667.462 45.8827 664.567 51.0152C 661.672 56.1476 657.721 60.167 652.715 63.0733C 647.769 65.9178 642.311 67.34 636.339 67.34C 630.368 67.34 624.88 65.9178 619.873 63.0733C 614.867 60.167 610.917 56.1476 608.021 51.0152C 605.126 45.8827 603.679 40.101 603.679 33.67C 603.679 27.239 605.126 21.4573 608.021 16.3249C 610.917 11.1924 614.867 7.20396 619.873 4.35948C 624.88 1.45316 630.368 0 636.339 0ZM 636.339 16.8814C 631.816 16.8814 628.257 18.3964 625.664 21.4264C 623.07 24.3945 621.773 28.4757 621.773 33.67C 621.773 38.7406 623.07 42.7909 625.664 45.8209C 628.257 48.8509 631.816 50.3659 636.339 50.3659C 640.803 50.3659 644.331 48.8509 646.925 45.8209C 649.518 42.7909 650.815 38.7406 650.815 33.67C 650.815 28.4757 649.518 24.3945 646.925 21.4264C 644.392 18.3964 640.863 16.8814 636.339 16.8814Z"/>
<path id="path22_fill" d="M 0 0L 21.8157 0L 21.8157 181.267L 0 181.267L 0 0Z"/>
</defs>
</svg>
