<svg width="475" height="646" viewBox="0 0 475 646" version="1.1" xmlns="http://www.w3.org/2000/svg" xmlns:xlink="http://www.w3.org/1999/xlink">
<title>bitcoinbay</title>
<desc>Created using Figma</desc>
<g id="Canvas" transform="translate(-520 -1581)">
<g id="bitcoinbay">
<g id="Group">
<g id="Group">
<g id="Vector">
<use xlink:href="#path0_fill" transform="translate(520 1581)" fill="#E56D85"/>
</g>
<g id="Vector">
<use xlink:href="#path1_fill" transform="translate(520 1581)" fill="#31C0E8"/>
</g>
<g id="Group">
<g id="Group">
<g id="Vector">
<use xlink:href="#path2_fill" transform="translate(675.445 1817.63)" fill="#A78F7C"/>
</g>
</g>
<g id="Group">
<g id="Vector">
<use xlink:href="#path3_fill" transform="translate(594.099 1639.99)" fill="#E56D85"/>
</g>
<g id="Vector">
<use xlink:href="#path4_fill" transform="translate(759.769 1756.4)" fill="#8DC63F"/>
</g>
<g id="Vector">
<use xlink:href="#path5_fill" transform="translate(679.384 1827.02)" fill="#31C0E8"/>
</g>
<g id="Group">
<g id="Vector">
<use xlink:href="#path6_fill" transform="translate(756.714 1892.93)" fill="#D8765A"/>
</g>
<g id="Vector">
<use xlink:href="#path7_fill" transform="translate(767.23 1902.89)" fill="#AEA2CF"/>
</g>
<g id="Vector">
<use xlink:href="#path8_fill" transform="translate(675.365 1748.92)" fill="#DBAE2E"/>
</g>
</g>
</g>
</g>
</g>
<g id="Group">
<g id="Group">
<g id="Vector">
<use xlink:href="#path9_fill" transform="translate(830.435 2143.27)" fill="#434345"/>
</g>
<g id="Vector">
<use xlink:href="#path10_fill" transform="translate(886.179 2160.16)" fill="#434345"/>
</g>
<g id="Vector">
<use xlink:href="#path11_fill" transform="translate(941.601 2161.37)" fill="#434345"/>
</g>
</g>
<g id="Group">
<g id="Vector">
<use xlink:href="#path12_fill" transform="translate(576.71 2142.57)" fill="#434345"/>
</g>
<g id="Vector">
<use xlink:href="#path13_fill" transform="translate(595.612 2148.06)" fill="#434345"/>
</g>
<g id="Vector">
<use xlink:href="#path14_fill" transform="translate(626.261 2160.85)" fill="#434345"/>
</g>
<g id="Vector">
<use xlink:href="#path15_fill" transform="translate(679.036 2160.76)" fill="#434345"/>
</g>
<g id="Vector">
<use xlink:href="#path16_fill" transform="translate(735.603 2142.57)" fill="#434345"/>
</g>
<g id="Vector">
<use xlink:href="#path17_fill" transform="translate(756.656 2160.77)" fill="#434345"/>
</g>
<g id="Vector">
<use xlink:href="#path18_fill" transform="translate(520 2143.71)" fill="#434345"/>
</g>
</g>
</g>
</g>
</g>
</g>
<defs>
<path id="path0_fill" d="M 0 522.814L 0 0L 474.331 0L 465.014 9.31046L 9.31825 9.31046L 9.31825 513.504L 0 522.814Z"/>
<path id="path1_fill" d="M 474.331 522.814L 0 522.814L 9.31825 513.504L 465.014 513.504L 465.014 9.31046L 474.331 0L 474.331 522.814Z"/>
<path id="path2_fill" d="M 42.534 78.5782C 32.7733 78.5782 23.5236 75.8061 15.7838 70.5611C 8.17004 65.402 2.56487 58.0635 0.00064814 49.8971L 8.89067 47.1101C 12.988 60.1564 26.8227 69.2684 42.534 69.2684C 61.7476 69.2684 77.3793 55.8195 77.3793 39.2888C 77.3793 22.7581 61.7476 9.30981 42.534 9.30981C 26.8227 9.30981 12.988 18.4212 8.89067 31.4675L -3.3165e-06 28.6805C 2.56486 20.514 8.17006 13.1756 15.7831 8.01651C 23.523 2.77214 32.7727 -3.15593e-07 42.5334 -3.15593e-07C 54.2166 -3.15593e-07 65.2284 4.0131 73.5408 11.3005C 82.0246 18.7386 86.6976 28.6785 86.6976 39.2894C 86.6976 49.9003 82.0246 59.8403 73.5408 67.279C 65.2291 74.5651 54.2166 78.5782 42.534 78.5782Z"/>
<path id="path3_fill" d="M 88.5794 322.361C 75.9821 319.089 64.1022 314.075 53.2703 307.461C 42.5625 300.922 33.1285 292.975 25.2295 283.839C 17.2153 274.57 10.9794 264.305 6.69517 253.327C 2.25307 241.943 0 230.011 0 217.862L 0 0L 90.5853 0L 90.5853 118.703L 81.2671 118.703L 81.2671 9.30982L 9.31761 9.30982L 9.31761 217.862C 9.31761 228.849 11.3559 239.642 15.3762 249.944C 19.2743 259.932 24.9617 269.288 32.2804 277.752C 39.5487 286.158 48.2453 293.48 58.129 299.516C 68.1795 305.653 79.2139 310.307 90.9236 313.349L 88.5794 322.361Z"/>
<path id="path4_fill" d="M 68.5741 76.4427C 59.4751 45.7799 33.8413 20.4927 8.37023e-06 8.79857L 3.04614 3.15593e-06C 39.7208 12.6727 67.5572 40.2602 77.5074 73.796L 68.5741 76.4427Z"/>
<path id="path5_fill" d="M 119.58 213.428C 105.583 213.428 91.8487 211.383 78.7572 207.349C 66.0816 203.442 54.2632 197.758 43.6305 190.452C 33.0741 183.197 23.9687 174.542 16.5672 164.724C 9.01617 154.709 3.44203 143.749 -3.94822e-07 132.149L 8.934 129.503C 12.0591 140.032 17.1306 149.998 24.0101 159.122C 30.8055 168.136 39.1839 176.096 48.911 182.78C 58.7642 189.552 69.73 194.824 81.5025 198.451C 93.7046 202.212 106.516 204.119 119.58 204.119C 135.082 204.119 150.113 201.46 164.255 196.214C 177.884 191.161 190.116 183.933 200.609 174.733C 211.059 165.57 219.257 154.916 224.975 143.066C 230.869 130.845 233.859 117.87 233.859 104.498C 233.859 93.5112 231.821 82.7174 227.801 72.4154C 223.903 62.4276 218.215 53.0719 210.896 44.6075C 203.629 36.2019 194.932 28.8802 185.047 22.8441C 174.997 16.7071 163.963 12.0529 152.254 9.01057L 154.598 1.73576e-06C 167.196 3.2724 179.075 8.28601 189.908 14.9006C 200.614 21.4389 210.048 29.3863 217.947 38.5209C 225.963 47.7894 232.199 58.0564 236.482 69.0338C 240.925 80.417 243.178 92.3491 243.178 104.498C 243.178 119.281 239.878 133.617 233.369 147.109C 227.105 160.091 218.151 171.74 206.755 181.731C 195.403 191.683 182.195 199.493 167.497 204.944C 152.313 210.574 136.192 213.428 119.58 213.428Z"/>
<path id="path6_fill" d="M 44.1629 9.31047C 50.2856 9.31047 56.0428 10.6781 61.0477 13.0734C 62.7218 10.4344 64.2581 7.72307 65.658 4.94447C 59.1588 1.71796 51.8044 8.83662e-06 44.1629 8.83662e-06C 32.4797 8.83662e-06 21.4679 4.01309 13.1568 11.3005C 4.67174 18.7386 9.00194e-06 28.6786 9.00194e-06 39.2901C 9.00194e-06 45.5479 1.6256 51.5718 4.69955 56.9868C 5.01911 56.8711 5.33996 56.756 5.65822 56.6371C 8.31042 55.654 10.9063 54.5856 13.4499 53.4396C 10.8145 49.223 9.31696 44.4045 9.31696 39.2901C 9.31696 22.7594 24.9494 9.31047 44.1629 9.31047Z"/>
<path id="path7_fill" d="M 64.6533 1.34243C 64.1281 0.882243 63.5918 0.434335 63.0452 -2.52475e-06C 61.6033 2.79992 60.0346 5.53393 58.3392 8.20006C 64.6106 13.6248 68.4932 21.0951 68.4932 29.332C 68.4932 45.8627 52.8608 59.311 33.6466 59.311C 24.1964 59.311 15.6137 56.0554 9.32925 50.7813C 6.29346 52.2304 3.18263 53.5683 1.57929e-06 54.7957C 0.835119 55.6656 1.71293 56.5085 2.64055 57.3216C 10.9516 64.6083 21.9634 68.6214 33.6466 68.6214C 45.3305 68.6214 56.3416 64.6083 64.654 57.3216C 73.1391 49.8835 77.8114 39.9422 77.8114 29.332C 77.8108 18.7205 73.1384 8.78046 64.6533 1.34243Z"/>
<path id="path8_fill" d="M 161.912 81.2793L 161.164 78.7586L 158.617 78.0974C 147.294 75.1559 135.511 73.6648 123.598 73.6648C 112.371 73.6648 101.294 74.9846 90.586 77.5939L 90.586 8.56718L 87.4499 7.48327C 73.0808 2.51748 57.9006 1.26237e-06 42.3309 1.26237e-06C 29.0053 1.26237e-06 15.8899 1.86016 3.35017 5.52811L 1.26343e-06 6.50795L 1.26343e-06 182.596C 1.26343e-06 191.958 1.35197 201.262 4.01775 210.246L 4.76554 212.767L 7.31229 213.428C 18.6352 216.37 30.4174 217.861 42.3303 217.861C 58.9427 217.861 75.0642 215.006 90.2477 209.376C 90.7897 209.175 91.3279 208.971 91.8635 208.764C 95.0462 207.537 98.157 206.198 101.193 204.749C 111.559 199.804 121.049 193.579 129.507 186.163C 137.697 178.982 144.627 170.943 150.203 162.168C 151.898 159.502 153.468 156.768 154.909 153.968C 155.323 153.164 155.726 152.355 156.119 151.54C 162.628 138.049 165.928 123.713 165.928 108.93C 165.93 99.568 164.578 90.264 161.912 81.2793ZM 147.727 147.499C 147.491 147.987 147.25 148.472 147.006 148.956C 145.606 151.734 144.07 154.445 142.396 157.085C 137.284 165.15 130.911 172.548 123.361 179.167C 114.909 186.578 105.328 192.705 94.7984 197.451C 92.2549 198.597 89.659 199.666 87.0068 200.648C 86.6885 200.767 86.3677 200.882 86.0481 200.998C 72.1849 206.01 57.4834 208.552 42.3316 208.552C 32.1129 208.552 22.0035 207.379 12.2402 205.06C 10.3009 197.728 9.3189 190.184 9.3189 182.596L 9.3189 13.5343C 19.9878 10.7305 31.0753 9.31111 42.3316 9.31111C 55.7323 9.31111 68.8134 11.3064 81.2684 15.2451L 81.2684 89.8736L 87.2365 88.1278C 98.9229 84.7087 111.158 82.9752 123.598 82.9752C 133.817 82.9752 143.927 84.149 153.691 86.4668C 155.63 93.7988 156.612 101.344 156.612 108.931C 156.612 122.303 153.623 135.279 147.727 147.499Z"/>
<path id="path9_fill" d="M -8.52815e-06 54.5572L -8.52815e-06 -1.57797e-06L 12.8923 -1.57797e-06L 12.8923 22.8919C 15.3316 19.6719 20.4717 16.8855 27.4405 16.8855C 42.5981 16.8855 51.4823 28.1143 51.4823 41.8664C 51.4823 55.6172 43.7314 66.8447 26.1267 66.8447C 7.13959 66.8447 -8.52815e-06 54.5572 -8.52815e-06 54.5572ZM 25.5225 55.356C 33.5379 55.356 38.6774 49.4369 38.6774 41.8664C 38.6774 34.0322 33.7993 28.2882 25.5225 28.2882C 17.4217 28.2882 12.3702 33.9449 12.3702 41.8664C 12.3702 50.2209 17.4217 55.356 25.5225 55.356Z"/>
<path id="path10_fill" d="M 38.5914 44.1286C 36.586 46.8264 30.8379 49.9592 24.0418 49.9592C 8.8855 49.9592 -1.26343e-06 38.7317 -1.26343e-06 24.9809C -1.26343e-06 11.2288 8.8855 -1.57797e-06 24.0418 -1.57797e-06C 31.0106 -1.57797e-06 36.1507 2.78637 38.5914 6.00641L 38.5914 1.04513L 51.4823 1.04513L 51.4823 48.9153L 38.5914 48.9153L 38.5914 44.1286ZM 25.9585 11.4027C 17.683 11.4027 12.8049 17.1466 12.8049 24.9809C 12.8049 32.5514 17.9444 38.4705 25.9585 38.4705C 34.0606 38.4705 39.1134 33.3354 39.1134 24.9809C 39.1134 17.0594 34.0606 11.4027 25.9585 11.4027Z"/>
<path id="path11_fill" d="M 12.2829 65.6263L 20.5584 45.957L 1.51612e-05 4.7339e-06L 15.0703 4.7339e-06L 27.1792 30.4637L 38.33 4.7339e-06L 53.399 4.7339e-06L 26.6571 65.6257L 12.2829 65.6257L 12.2829 65.6263Z"/>
<path id="path12_fill" d="M 7.31746 14.0132C 3.31071 14.0132 -1.18447e-07 10.8785 -1.18447e-07 6.96298C -1.18447e-07 3.1328 3.31071 5.68068e-06 7.31746 5.68068e-06C 11.2375 5.68068e-06 14.4609 3.13345 14.4609 6.96298C 14.4603 10.8785 11.2375 14.0132 7.31746 14.0132ZM 0.784013 19.147L 13.8503 19.147L 13.8503 66.9319L 0.784013 66.9319L 0.784013 19.147Z"/>
<path id="path13_fill" d="M 18.7284 44.3897C 18.7284 47.0002 18.815 51.5272 24.6525 51.5272C 26.1332 51.5272 27.1785 51.4386 27.9625 51.352L 27.9625 62.3184C 26.3945 62.4929 23.9558 62.6667 22.1258 62.6667C 12.0209 62.6667 5.83612 60.8389 5.83612 50.7425L 5.83612 24.1975L 3.15858e-07 24.1975L 3.15858e-07 12.7942L 5.83612 12.7942L 5.83612 1.13614e-05L 18.7284 1.13614e-05L 18.7284 12.7942L 28.3099 12.7942L 28.3099 24.1975L 18.7284 24.1975L 18.7284 44.3897Z"/>
<path id="path14_fill" d="M 3.47443e-06 24.893C 3.47443e-06 11.1422 11.7602 1.54641e-05 26.0465 1.54641e-05C 36.1513 1.54641e-05 44.6875 4.96128 49.5656 13.9266L 37.806 18.5395C 34.9307 13.7527 30.7493 11.4033 26.0458 11.4033C 18.467 11.4033 12.9789 17.1473 12.9789 24.893C 12.9789 32.7272 18.5537 38.3839 26.1319 38.3839C 30.8359 38.3839 35.1914 36.3816 38.2407 31.4209L 49.3036 35.7734C 44.6862 45.173 37.1081 49.8725 26.1319 49.8725C 11.8469 49.8732 3.47443e-06 38.6457 3.47443e-06 24.893Z"/>
<path id="path15_fill" d="M -2.05307e-06 24.893C -2.05307e-06 11.2288 11.6729 -5.99628e-06 25.9591 -5.99628e-06C 40.2448 -5.99628e-06 52.0917 11.2288 52.0917 24.893C 52.0917 38.7323 40.2448 49.8738 25.9591 49.8738C 11.6722 49.8738 -2.05307e-06 38.7323 -2.05307e-06 24.893ZM 12.8043 24.893C 12.8043 32.8145 18.4664 38.5584 25.9585 38.5584C 33.3626 38.5584 39.1114 32.6406 39.1114 24.893C 39.1114 17.2339 33.3626 11.4033 25.9585 11.4033C 18.641 11.4033 12.8043 17.3212 12.8043 24.893Z"/>
<path id="path16_fill" d="M 7.31746 14.0132C 3.31135 14.0132 7.26472e-06 10.8785 7.26472e-06 6.96298C 7.26472e-06 3.1328 3.31071 5.68068e-06 7.31746 5.68068e-06C 11.2375 5.68068e-06 14.4609 3.13345 14.4609 6.96298C 14.4609 10.8785 11.2375 14.0132 7.31746 14.0132ZM 0.784657 19.147L 13.8516 19.147L 13.8516 66.9319L 0.784657 66.9319L 0.784657 19.147Z"/>
<path id="path17_fill" d="M 44.6894 20.452L 44.6894 48.7408L 31.3612 48.7408L 31.3612 20.452C 31.3612 13.0547 27.1792 10.7925 22.127 10.7925C 18.5563 10.7925 12.7195 12.9674 12.9809 23.4122L 12.9809 48.7408L 7.89644e-07 48.7408L 7.89644e-07 0.870622L 12.9809 0.870622L 12.9809 5.13512C 16.2036 1.91508 21.5164 1.83435e-05 25.7858 1.83435e-05C 39.6373 -0.000627992 44.6894 8.00679 44.6894 20.452Z"/>
<path id="path18_fill" d="M 0 54.5572L 0 5.68068e-06L 12.8929 5.68068e-06L 12.8929 22.8919C 15.3316 19.6719 20.471 16.8855 27.4398 16.8855C 42.5974 16.8855 51.4823 28.113 51.4823 41.8651C 51.4823 55.6172 43.7314 66.8447 26.1273 66.8447C 7.14022 66.8447 0 54.5572 0 54.5572ZM 25.5238 55.356C 33.5379 55.356 38.6774 49.4382 38.6774 41.8651C 38.6774 34.0322 33.7986 28.2881 25.5238 28.2881C 17.423 28.2881 12.3702 33.9449 12.3702 41.8651C 12.3696 50.2209 17.4223 55.356 25.5238 55.356Z"/>
</defs>
</svg>
