<svg width="220" height="89" viewBox="0 0 220 89" version="1.1" xmlns="http://www.w3.org/2000/svg" xmlns:xlink="http://www.w3.org/1999/xlink">
<title>Blockchain Developers United</title>
<desc>Created using Figma</desc>
<g id="Canvas" transform="translate(-8622 -36160)">
<g id="Blockchain Developers United">
<g id="Group 426">
<g id="Fill 400">
<use xlink:href="#path0_fill" transform="translate(8776.26 36160)" fill="#1A1919"/>
</g>
<g id="Fill 402">
<use xlink:href="#path1_fill" transform="translate(8776.26 36170.4)" fill="#375F72"/>
</g>
<g id="Fill 404">
<use xlink:href="#path2_fill" transform="translate(8776.26 36180.8)" fill="#343B40"/>
</g>
<g id="Fill 406">
<use xlink:href="#path3_fill" transform="translate(8776.26 36160)" fill="#3585BA"/>
</g>
<g id="Fill 421">
<use xlink:href="#path4_fill" transform="translate(8622 36240.3)" fill="#D91F52"/>
</g>
<g id="Fill 426">
<use xlink:href="#path5_fill" transform="translate(8695.09 36209.8)" fill="#4E7D68"/>
</g>
<g id="Fill 428">
<use xlink:href="#path6_fill" transform="translate(8695.09 36220.6)" fill="#86BFA7"/>
</g>
<g id="Fill 430">
<use xlink:href="#path7_fill" transform="translate(8695.09 36199)" fill="#353936"/>
</g>
<g id="Fill 432">
<use xlink:href="#path8_fill" transform="translate(8695.09 36160.3)" fill="#1A1919"/>
</g>
<g id="Fill 434">
<use xlink:href="#path9_fill" transform="translate(8622 36160.2)" fill="#1A1919"/>
</g>
</g>
<g id="Group 426.1">
<g id="Fill 400">
<use xlink:href="#path0_fill" transform="translate(8776.26 36160)" fill="#333333"/>
</g>
<g id="Fill 402">
<use xlink:href="#path1_fill" transform="translate(8776.26 36170.4)" fill="#375F72"/>
</g>
<g id="Fill 404">
<use xlink:href="#path2_fill" transform="translate(8776.26 36180.8)" fill="#343B40"/>
</g>
<g id="Fill 406">
<use xlink:href="#path3_fill" transform="translate(8776.26 36160)" fill="#3585BA"/>
</g>
<g id="Fill 421">
<use xlink:href="#path4_fill" transform="translate(8622 36240.3)" fill="#FF1C5B"/>
</g>
<g id="Fill 426">
<use xlink:href="#path5_fill" transform="translate(8695.09 36209.8)" fill="#4E7D68"/>
</g>
<g id="Fill 428">
<use xlink:href="#path6_fill" transform="translate(8695.09 36220.6)" fill="#86BFA7"/>
</g>
<g id="Fill 430">
<use xlink:href="#path7_fill" transform="translate(8695.09 36199)" fill="#353936"/>
</g>
<g id="Fill 426.1">
<use xlink:href="#path5_fill" transform="translate(8622.02 36219)" fill="#F71B58"/>
</g>
<g id="Fill 428.1">
<use xlink:href="#path6_fill" transform="translate(8622.02 36229.7)" fill="#F71B58"/>
</g>
<g id="Fill 430.1">
<use xlink:href="#path7_fill" transform="translate(8622.02 36208.2)" fill="#C2083B"/>
</g>
<g id="Fill 430.2">
<use xlink:href="#path7_fill" transform="translate(8622.02 36197.4)" fill="#A10832"/>
</g>
<g id="Fill 430.3">
<use xlink:href="#path7_fill" transform="translate(8622.02 36186.6)" fill="#690722"/>
</g>
<g id="Fill 432">
<use xlink:href="#path8_fill" transform="translate(8695.09 36160.3)" fill="#333333"/>
</g>
<g id="Fill 434">
<use xlink:href="#path9_fill" transform="translate(8622 36160.2)" fill="#333333"/>
</g>
</g>
</g>
</g>
<defs>
<path id="path0_fill" fill-rule="evenodd" d="M 65.0378 0.69056C 64.5709 0.232051 63.9985 0 63.3216 0L 51.6232 0C 50.944 0 50.3715 0.232051 49.9067 0.69056C 49.439 1.15107 49.2076 1.67428 49.2076 2.2598L 49.2076 57.9951C 49.2076 60.6738 48.4013 63.1625 46.7911 65.4638C 45.1801 67.766 43.0186 69.586 40.3068 70.924C 37.5921 72.2636 34.6263 72.9326 31.4059 72.9326C 27.2515 72.9326 23.733 71.4888 20.8525 68.6019C 17.9691 65.7147 16.5293 62.1804 16.5293 57.9951L 16.5293 33.6418C 16.5293 32.9728 16.3161 32.4296 15.8929 32.0102C 15.4685 31.5912 14.9179 31.3827 14.2403 31.3827L 2.28822 31.3827C 1.69432 31.3827 1.16353 31.5912 0.698683 32.0102C 0.231815 32.4296 0 32.9728 0 33.6418L 0 57.9951C 0 63.603 1.41759 68.7904 4.25885 73.5596C 7.09849 78.3301 10.9131 82.0956 15.7024 84.857C 20.4908 87.6189 25.7263 89 31.4059 89C 38.0181 89 43.93 87.6189 49.1445 84.857C 54.3573 82.0956 58.4256 78.352 61.3502 73.6232C 64.2752 68.8963 65.7373 63.6865 65.7373 57.9951L 65.7373 2.2598C 65.7373 1.67428 65.5026 1.15107 65.0378 0.69056Z"/>
<path id="path1_fill" fill-rule="evenodd" d="M 14.2403 0L 2.28822 0C 1.69391 0 1.16353 0.210483 0.698278 0.627855C 0.231411 1.04722 0 1.59041 0 2.2598L 0 5.55204C 0 6.13876 0.231411 6.66237 0.698278 7.12168C 1.16353 7.58258 1.69391 7.81144 2.28822 7.81144L 14.2403 7.81144C 14.9179 7.81144 15.4681 7.58258 15.8929 7.12168C 16.3161 6.66237 16.5289 6.13876 16.5289 5.55204L 16.5289 2.2598C 16.5289 1.59041 16.3161 1.04722 15.8929 0.627855C 15.4681 0.210483 14.9179 0 14.2403 0Z"/>
<path id="path2_fill" fill-rule="evenodd" d="M 14.2403 0L 2.28822 0C 1.69391 0 1.16353 0.210084 0.698278 0.627056C 0.231411 1.04682 0 1.5908 0 2.2594L 0 5.55164C 0 6.13836 0.231411 6.66117 0.698278 7.12088C 1.16353 7.58139 1.69391 7.81104 2.28822 7.81104L 14.2403 7.81104C 14.9179 7.81104 15.4681 7.58139 15.8929 7.12088C 16.3161 6.66117 16.5289 6.13836 16.5289 5.55164L 16.5289 2.2594C 16.5289 1.5908 16.3161 1.04682 15.8929 0.627056C 15.4681 0.210084 14.9179 0 14.2403 0Z"/>
<path id="path3_fill" fill-rule="evenodd" d="M 15.8929 0.627855C 15.4681 0.209684 14.9179 0 14.2403 0L 2.28822 0C 1.69391 0 1.16353 0.209684 0.698278 0.627855C 0.231411 1.04762 0 1.59041 0 2.2598L 0 5.55164C 0 6.13796 0.231411 6.66197 0.698278 7.12088C 1.16353 7.58139 1.69391 7.81144 2.28822 7.81144L 14.2403 7.81144C 14.9179 7.81144 15.4681 7.58139 15.8929 7.12088C 16.3161 6.66197 16.5289 6.13796 16.5289 5.55164L 16.5289 2.2598C 16.5289 1.59041 16.3161 1.04762 15.8929 0.627855Z"/>
<path id="path4_fill" fill-rule="evenodd" d="M 14.2411 0L 2.28822 0C 1.69472 0 1.16474 0.209684 0.699087 0.627855C 0.23222 1.04762 0 1.5908 0 2.259L 0 5.55164C 0 6.13796 0.23222 6.66197 0.699087 7.12088C 1.16474 7.58178 1.69472 7.81104 2.28822 7.81104L 14.2411 7.81104C 14.9183 7.81104 15.4689 7.58178 15.8941 7.12088C 16.3173 6.66197 16.5301 6.13796 16.5301 5.55164L 16.5301 2.259C 16.5301 1.5908 16.3173 1.04762 15.8941 0.627855C 15.4689 0.209684 14.9183 0 14.2411 0Z"/>
<path id="path5_fill" fill-rule="evenodd" d="M 14.2411 0L 2.28822 0C 1.69391 0 1.16393 0.209684 0.699088 0.627056C 0.23222 1.04722 0 1.5908 0 2.2598L 0 5.55124C 0 6.13796 0.23222 6.66197 0.699088 7.12088C 1.16393 7.58099 1.69391 7.81104 2.28822 7.81104L 14.2411 7.81104C 14.9183 7.81104 15.4685 7.58099 15.8933 7.12088C 16.3169 6.66197 16.5293 6.13796 16.5293 5.55124L 16.5293 2.2598C 16.5293 1.5908 16.3169 1.04722 15.8933 0.627056C 15.4685 0.209684 14.9183 0 14.2411 0Z"/>
<path id="path6_fill" fill-rule="evenodd" d="M 14.2411 0L 2.28822 0C 1.69391 0 1.16393 0.210084 0.699088 0.627455C 0.23222 1.04762 0 1.59041 0 2.2598L 0 5.55164C 0 6.13756 0.23222 6.66197 0.699088 7.12088C 1.16393 7.58218 1.69391 7.81144 2.28822 7.81144L 14.2411 7.81144C 14.9183 7.81144 15.4685 7.58218 15.8933 7.12088C 16.3169 6.66197 16.5293 6.13756 16.5293 5.55164L 16.5293 2.2598C 16.5293 1.59041 16.3169 1.04762 15.8933 0.627455C 15.4685 0.210084 14.9183 0 14.2411 0Z"/>
<path id="path7_fill" fill-rule="evenodd" d="M 15.8933 0.627855C 15.4685 0.210084 14.9183 0 14.2411 0L 2.28822 0C 1.69391 0 1.16393 0.210084 0.699088 0.627855C 0.23222 1.04802 0 1.5908 0 2.2602L 0 5.55124C 0 6.13876 0.23222 6.66157 0.699088 7.12088C 1.16393 7.58178 1.69391 7.81144 2.28822 7.81144L 14.2411 7.81144C 14.9183 7.81144 15.4685 7.58178 15.8933 7.12088C 16.3169 6.66157 16.5293 6.13876 16.5293 5.55124L 16.5293 2.2602C 16.5293 1.5908 16.3169 1.04802 15.8933 0.627855Z"/>
<path id="path8_fill" fill-rule="evenodd" d="M 66.8154 21.8623C 62.826 15.162 57.4393 9.84318 50.6527 5.90471C 43.8637 1.96824 36.4399 0 28.381 0L 8.26444 0L 0 0L 0 2.76424L 0 6.85568L 0 32.96C 0 33.6314 0.273081 34.2388 0.826525 34.7828C 1.37714 35.3284 1.99248 35.6 2.67215 35.6L 13.7439 35.6C 14.5081 35.6 15.1639 35.3476 15.7169 34.8447C 16.2688 34.3423 16.5451 33.7144 16.5451 32.96L 16.5451 19.4367L 16.5293 19.4367L 16.5293 16.3334L 18.0719 16.3334L 20.346 16.3334L 28.381 16.3334C 33.4712 16.3334 38.1367 17.5703 42.3806 20.0402C 46.622 22.5117 49.9949 25.8411 52.4975 30.0288C 54.9993 34.2185 56.2523 38.8239 56.2523 43.8492C 56.2523 48.8748 54.9993 53.4827 52.4975 57.67C 49.9949 61.8597 46.622 65.189 42.3806 67.6589C 38.1367 70.1312 33.4712 71.3654 28.381 71.3654L 2.79999 71.3654C 2.03577 71.3654 1.37795 71.6166 0.826525 72.1194C 0.27389 72.6223 0 73.2936 0 74.13L 0 85.0607C 0 85.814 0.27389 86.4423 0.826525 86.9451C 1.37795 87.4479 2.03577 87.6992 2.79999 87.6992L 28.381 87.6992C 36.4399 87.6992 43.8637 85.7317 50.6527 81.7937C 57.4393 77.8576 62.826 72.5396 66.8154 65.8365C 70.8024 59.1366 72.7969 51.8084 72.7969 43.8492C 72.7969 35.8928 70.8024 28.5646 66.8154 21.8623Z"/>
<path id="path9_fill" fill-rule="evenodd" d="M 62.1638 49.0198C 59.704 44.9615 56.3567 41.7603 52.1184 39.4167C 54.831 35.1487 56.1875 30.5883 56.1875 25.7345C 56.1875 21.0483 55.0208 16.7392 52.6905 12.8043C 50.3582 8.87184 47.2014 5.75533 43.2172 3.4528C 39.233 1.15187 34.8678 0 30.121 0L 16.5301 0L 1.01708 0L 0 0L 0 0.879476L 0 8.44329L 0 22.5956C 0 23.1827 0.337811 23.4751 1.01708 23.4751L 15.6255 23.4751C 15.7946 23.4751 15.9852 23.3916 16.1984 23.2234C 16.4075 23.0565 16.5163 22.8468 16.5163 22.5956L 16.5163 19.3317C 16.5163 19.2346 16.5236 19.1412 16.5301 19.0473L 16.5301 15.0641L 20.9662 15.0641L 22.8951 15.0641L 30.121 15.0641C 33.0873 15.0641 35.63 16.1113 37.7503 18.2026C 39.8682 20.2954 40.929 22.8053 40.929 25.7345C 40.929 28.5802 39.8901 31.0489 37.8138 33.1405C 35.736 35.2326 33.2564 36.2786 30.3751 36.2786L 26.8671 36.2786L 26.8631 36.279L 23.2107 36.279C 21.927 36.279 20.9022 37.2911 20.9022 38.5396L 20.9022 49.2019C 20.9022 50.4504 21.927 51.4625 23.1921 51.4625L 27.1786 51.4625C 27.2029 51.4633 27.2236 51.4665 27.2478 51.4665L 39.6574 51.4665C 42.6237 51.4665 45.1664 52.4934 47.2867 54.5427C 49.4042 56.594 50.4654 59.125 50.4654 62.1376C 50.4654 65.1499 49.4269 67.7452 47.351 69.9199C 45.2716 72.0966 42.7091 73.1838 39.6574 73.1838L 29.3568 73.1838C 29.3281 73.183 29.2994 73.1802 29.2694 73.1802L 23.7552 73.1802C 22.491 73.1802 21.4658 74.1919 21.4658 75.4404L 21.4658 85.6095C 21.4658 86.858 22.491 87.8697 23.7552 87.8697L 25.6898 87.8697C 25.6939 87.8697 25.6979 87.8705 25.7024 87.8705L 39.6574 87.8705C 44.4042 87.8705 48.7909 86.7214 52.8175 84.4189C 56.8437 82.1184 60.022 79.0011 62.3543 75.067C 64.6842 71.1345 65.8506 66.8254 65.8506 62.1376C 65.8506 57.4511 64.6211 53.0801 62.1638 49.0198Z"/>
</defs>
</svg>
