<svg width="393" height="468" viewBox="0 0 393 468" version="1.1" xmlns="http://www.w3.org/2000/svg" xmlns:xlink="http://www.w3.org/1999/xlink">
<title>Group 69</title>
<desc>Created using Figma</desc>
<g id="Canvas" transform="matrix(0.5 0 0 0.5 7415.5 -10489.5)">
<g id="Group 69">
<g id="Vector 2.3">
<use xlink:href="#path0_fill" transform="translate(-14828.4 20992.8)" fill="#787878"/>
</g>
<g id="Vector 2.1">
<use xlink:href="#path0_fill" transform="translate(-14829 20981)" fill="#FFFFFF"/>
<use xlink:href="#path1_stroke" transform="translate(-14829 20981)"/>
</g>
<g id="bitcoinbay_horz">
<g id="Group">
<g id="Group">
<g id="Group">
<g id="Vector">
<use xlink:href="#path2_fill" transform="translate(-14600.8 21390.9)" fill="#A78F7C"/>
</g>
</g>
<g id="Vector">
<use xlink:href="#path3_fill" transform="translate(-14763.3 21035.6)" fill="#E56D85"/>
</g>
<g id="Vector">
<use xlink:href="#path4_fill" transform="translate(-14432.3 21268.4)" fill="#8DC63F"/>
</g>
<g id="Vector">
<use xlink:href="#path5_fill" transform="translate(-14592.9 21409.6)" fill="#31C0E8"/>
</g>
<g id="Group">
<g id="Vector">
<use xlink:href="#path6_fill" transform="translate(-14438.4 21541.4)" fill="#D8765A"/>
</g>
<g id="Vector">
<use xlink:href="#path7_fill" transform="translate(-14417.4 21561.4)" fill="#AEA2CF"/>
</g>
<g id="Vector">
<use xlink:href="#path8_fill" transform="translate(-14600.9 21253.4)" fill="#DBAE2E"/>
</g>
</g>
</g>
</g>
</g>
</g>
</g>
<defs>
<path id="path0_fill" d="M 302.209 202.636L 302.209 0L 3.20471 0C 3.20471 0 -8.74501 465.941 13.5056 558.159C 33.8826 642.611 134.405 719.54 172.414 732.887C 180.303 752.301 183.689 775.72 226.398 819.644C 269.108 863.569 327.672 895.279 385.908 910.042C 444.145 924.805 560.101 934.552 660.055 862.72C 760.009 790.887 787.424 675.049 781.359 620.042C 777.473 462.787 653.991 390.711 592.736 374.331C 586.913 351.034 548.46 295.242 529.047 277.866C 459.908 215.983 360.03 204.254 302.209 202.636Z"/>
<path id="path1_stroke" d="M 302.209 0L 303.709 0L 303.709 -1.5L 302.209 -1.5L 302.209 0ZM 302.209 202.636L 300.709 202.636L 300.709 204.095L 302.167 204.135L 302.209 202.636ZM 529.047 277.866L 530.047 276.748L 529.047 277.866ZM 781.359 620.042L 779.859 620.079L 779.861 620.143L 779.868 620.206L 781.359 620.042ZM 385.908 910.042L 386.277 908.588L 385.908 910.042ZM 226.398 819.644L 225.323 820.69L 225.323 820.69L 226.398 819.644ZM 172.414 732.887L 173.803 732.322L 173.549 731.696L 172.911 731.472L 172.414 732.887ZM 13.5056 558.159L 14.9637 557.807L 13.5056 558.159ZM 3.20471 0L 3.20471 -1.5L 1.74269 -1.5L 1.70521 -0.0384569L 3.20471 0ZM 592.736 374.331L 591.281 374.694L 591.495 375.551L 592.348 375.78L 592.736 374.331ZM 300.709 0L 300.709 202.636L 303.709 202.636L 303.709 0L 300.709 0ZM 302.167 204.135C 359.927 205.752 459.33 217.479 528.046 278.984L 530.047 276.748C 460.487 214.488 360.133 202.756 302.251 201.137L 302.167 204.135ZM 779.868 620.206C 785.88 674.736 758.647 790.019 659.18 861.502L 660.93 863.938C 761.372 791.755 788.967 675.362 782.85 619.878L 779.868 620.206ZM 659.18 861.502C 559.732 932.97 444.298 923.296 386.277 908.588L 385.54 911.496C 443.991 926.313 560.469 936.135 660.93 863.938L 659.18 861.502ZM 386.277 908.588C 328.282 893.886 269.971 862.305 227.474 818.599L 225.323 820.69C 268.245 864.833 327.062 896.672 385.54 911.496L 386.277 908.588ZM 227.474 818.599C 206.201 796.721 194.771 780.001 187.679 766.382C 180.543 752.677 177.833 742.24 173.803 732.322L 171.024 733.452C 174.883 742.949 177.811 753.927 185.018 767.767C 192.269 781.691 203.886 798.643 225.323 820.69L 227.474 818.599ZM 172.911 731.472C 154.197 724.9 119.747 702.496 87.3921 671.111C 55.0499 639.738 25.0556 599.633 14.9637 557.807L 12.0474 558.511C 22.3325 601.137 52.788 641.723 85.3033 673.264C 117.806 704.793 152.622 727.527 171.917 734.302L 172.911 731.472ZM 14.9637 557.807C 9.44308 534.927 6.01803 488.672 4.00816 431.989C 2.00041 375.366 1.40814 308.499 1.51118 244.5C 1.61421 180.504 2.41248 119.388 3.18501 74.2699C 3.57128 51.7112 3.9511 33.1525 4.23435 20.2339C 4.37597 13.7746 4.49345 8.72534 4.57552 5.29109C 4.61655 3.57397 4.64873 2.2606 4.67065 1.37662C 4.68161 0.934632 4.69001 0.599988 4.69566 0.375892C 4.69849 0.263845 4.70063 0.179434 4.70206 0.123062C 4.70278 0.0948752 4.70332 0.0736983 4.70368 0.0595808C 4.70386 0.0525221 4.70399 0.0472412 4.70408 0.0437055C 4.70417 0.0401956 4.70422 0.0384569 3.20471 0C 1.70521 -0.0384569 1.70516 -0.0366408 1.70507 -0.0330535C 1.70498 -0.0294919 1.70484 -0.0241333 1.70466 -0.0170227C 1.70429 -0.00280145 1.70375 0.0184796 1.70303 0.0467705C 1.70159 0.103352 1.69945 0.187973 1.69661 0.300233C 1.69095 0.524752 1.68254 0.859827 1.67157 1.30225C 1.64963 2.18711 1.61743 3.50137 1.57637 5.21942C 1.49426 8.65551 1.37674 13.7068 1.23507 20.1682C 0.951729 33.0909 0.571811 51.6544 0.185454 74.2186C -0.58725 119.346 -1.38575 180.479 -1.48882 244.496C -1.59189 308.51 -0.999606 375.419 1.01005 432.096C 3.01759 488.713 6.4428 535.282 12.0474 558.511L 14.9637 557.807ZM 3.20471 1.5L 302.209 1.5L 302.209 -1.5L 3.20471 -1.5L 3.20471 1.5ZM 528.046 278.984C 537.608 287.542 551.99 305.705 564.742 324.714C 571.106 334.2 577.039 343.859 581.737 352.584C 586.45 361.336 589.872 369.057 591.281 374.694L 594.191 373.967C 592.689 367.955 589.12 359.966 584.379 351.162C 579.623 342.331 573.637 332.588 567.233 323.042C 554.45 303.987 539.899 285.566 530.047 276.748L 528.046 278.984ZM 592.348 375.78C 653.243 392.064 775.997 463.741 779.859 620.079L 782.858 620.005C 778.95 461.832 654.739 389.359 593.123 372.882L 592.348 375.78Z"/>
<path id="path2_fill" d="M 84.982 157.141C 65.4813 157.141 46.9991 151.598 31.5348 141.11C 16.3225 130.793 5.12332 116.116 5.67976e-06 99.7858L 17.7636 94.2111C 25.95 120.302 53.5919 138.523 84.982 138.523C 123.372 138.523 154.603 111.628 154.603 78.57C 154.603 45.5118 123.372 18.6178 84.982 18.6178C 53.5919 18.6178 25.95 36.8388 17.7636 62.9302L 5.67976e-06 57.3567C 5.12462 41.0254 16.3238 26.3498 31.5348 16.0314C 46.9991 5.54372 65.4813 1.07291e-05 84.982 1.07291e-05C 108.325 1.07291e-05 130.327 8.0254 146.935 22.5989C 163.885 37.4735 173.224 57.3516 173.224 78.5713C 173.224 99.791 163.885 119.669 146.935 134.545C 130.327 149.116 108.324 157.141 84.982 157.141Z"/>
<path id="path3_fill" d="M 176.983 644.659C 151.813 638.116 128.078 628.089 106.436 614.862C 85.0414 601.786 66.1922 585.893 50.4099 567.623C 34.3963 549.088 21.9383 528.558 13.3783 506.604C 4.50294 483.839 0 459.977 0 435.682L 0 0L 180.99 0L 180.99 234.237L 162.372 234.237L 162.372 18.6191L 18.6192 18.6191L 18.6192 435.682C 18.6192 457.653 22.6905 479.24 30.7231 499.84C 38.5115 519.814 49.8748 538.525 64.499 555.452C 79.0198 572.262 96.397 586.905 116.145 598.975C 136.225 611.248 158.271 620.555 181.667 626.638L 176.983 644.659Z"/>
<path id="path4_fill" d="M 137.011 152.871C 118.832 91.551 67.6151 40.9815 -1.95636e-05 17.5954L 6.0862 7.10017e-06C 79.3624 25.343 134.98 80.5127 154.86 147.578L 137.011 152.871Z"/>
<path id="path5_fill" d="M 238.921 426.815C 210.956 426.815 183.514 422.726 157.357 414.658C 132.03 406.846 108.418 395.478 87.174 380.867C 66.0823 366.358 47.8883 349.049 33.1012 329.417C 18.013 309.388 6.87719 287.47 2.36657e-06 264.273L 17.8502 258.981C 24.0941 280.038 34.2283 299.966 47.9736 318.213C 61.5522 336.239 78.2909 352.158 97.7257 365.526C 117.412 379.068 139.322 389.611 162.844 396.865C 187.224 404.385 212.821 408.198 238.922 408.198C 269.896 408.198 299.928 402.88 328.185 392.391C 355.414 382.286 379.853 367.83 400.82 349.432C 421.698 331.109 438.079 309.803 449.502 286.104C 461.28 261.666 467.252 235.716 467.252 208.976C 467.252 187.004 463.181 165.419 455.148 144.817C 447.361 124.844 435.997 106.132 421.372 89.2064C 406.853 72.3968 389.477 57.7535 369.727 45.6837C 349.646 33.411 327.6 24.1034 304.206 18.0194L 308.888 1.48315e-05C 334.059 6.54417 357.795 16.5704 379.438 29.7983C 400.83 42.8724 419.679 58.7669 435.462 77.0344C 451.476 95.5708 463.936 116.102 472.493 138.056C 481.371 160.82 485.873 184.682 485.873 208.978C 485.873 238.539 479.279 267.209 466.274 294.19C 453.758 320.153 435.869 343.447 413.098 363.428C 390.417 383.33 364.027 398.948 334.661 409.849C 304.324 421.108 272.114 426.815 238.921 426.815Z"/>
<path id="path6_fill" d="M 88.239 18.6178C 100.472 18.6178 111.975 21.3529 121.975 26.1431C 125.32 20.8643 128.389 15.4433 131.186 9.88797C 118.201 3.43558 103.507 -1.26225e-06 88.239 -1.26225e-06C 64.8958 -1.26225e-06 42.8942 8.02543 26.2887 22.5989C 9.33546 37.4735 1.19906e-05 57.3516 1.19906e-05 78.5726C 1.19906e-05 91.087 3.24925 103.134 9.39103 113.963C 10.0295 113.731 10.6706 113.501 11.3065 113.263C 16.6055 111.297 21.7922 109.161 26.8742 106.869C 21.6087 98.4364 18.6166 88.8005 18.6166 78.5726C 18.6179 45.5144 49.8516 18.6178 88.239 18.6178Z"/>
<path id="path7_fill" d="M 129.178 2.68592C 128.128 1.76433 127.057 0.86989 125.965 6.31126e-06C 123.084 5.59931 119.95 11.0668 116.562 16.3998C 129.092 27.2481 136.85 42.1874 136.85 58.6596C 136.85 91.7178 105.616 118.612 67.2261 118.612C 48.3445 118.612 31.1962 112.101 18.6399 101.554C 12.5744 104.452 6.35893 107.127 1.54616e-05 109.582C 1.66858 111.322 3.42246 113.007 5.27585 114.633C 21.8814 129.205 43.883 137.231 67.2261 137.231C 90.5706 137.231 112.571 129.205 129.179 114.633C 146.132 99.7587 155.468 79.878 155.468 58.6596C 155.465 37.4386 146.131 17.5605 129.178 2.68592Z"/>
<path id="path8_fill" d="M 323.501 162.543L 322.007 157.502L 316.917 156.18C 294.294 150.297 270.751 147.315 246.949 147.315C 224.519 147.315 202.387 149.955 180.991 155.173L 180.991 17.1327L 174.725 14.9651C 146.016 5.03447 115.686 3.31341e-06 84.5787 3.31341e-06C 57.9527 3.31341e-06 31.7493 3.71994 6.69496 11.0551L -4.89091e-06 13.0146L -4.89091e-06 365.156C -4.89091e-06 383.88 2.70124 402.486 8.02748 420.452L 9.52157 425.493L 14.6113 426.815C 37.2346 432.698 60.7755 435.68 84.5787 435.68C 117.769 435.68 149.98 429.971 180.317 418.711C 181.4 418.309 182.475 417.901 183.545 417.487C 189.904 415.034 196.12 412.357 202.185 409.459C 222.897 399.569 241.857 387.12 258.756 372.291C 275.121 357.929 288.967 341.852 300.107 324.305C 303.495 318.973 306.63 313.506 309.51 307.905C 310.338 306.298 311.143 304.68 311.928 303.05C 324.933 276.071 331.527 247.401 331.527 217.838C 331.527 199.115 328.827 180.509 323.501 162.543ZM 295.16 294.968C 294.688 295.944 294.206 296.915 293.719 297.883C 290.922 303.438 287.852 308.859 284.507 314.138C 274.294 330.267 261.561 345.061 246.475 358.298C 229.588 373.118 210.445 385.371 189.408 394.862C 184.326 397.154 179.139 399.292 173.84 401.257C 173.204 401.494 172.563 401.725 171.925 401.956C 144.225 411.98 114.852 417.062 84.58 417.062C 64.1617 417.062 43.9631 414.717 24.456 410.08C 20.5825 395.416 18.6192 380.33 18.6192 365.156L 18.6192 27.0646C 39.9358 21.4575 62.0886 18.6191 84.5787 18.6191C 111.352 18.6191 137.49 22.6092 162.373 30.486L 162.373 179.728L 174.299 176.237C 197.649 169.4 222.094 165.933 246.949 165.933C 267.367 165.933 287.566 168.28 307.075 172.915C 310.95 187.578 312.912 202.666 312.912 217.84C 312.91 244.582 306.938 270.531 295.16 294.968Z"/>
</defs>
</svg>
