<svg width="128" height="127" viewBox="0 0 128 127" version="1.1" xmlns="http://www.w3.org/2000/svg" xmlns:xlink="http://www.w3.org/1999/xlink">
<title>PictoralMark</title>
<desc>Created using Figma</desc>
<g id="Canvas" transform="translate(-25542 -22488)">
<g id="PictoralMark">
<g id="Combined Shape">
<use xlink:href="#path0_fill" transform="translate(25543 22488)" fill="url(#paint0_linear)"/>
</g>
<g id="Path">
<use xlink:href="#path1_fill" transform="translate(25631.2 22514.8)" fill="url(#paint1_linear)"/>
</g>
</g>
</g>
<defs>
<linearGradient id="paint0_linear" x1="0" y1="0" x2="1" y2="0" gradientUnits="userSpaceOnUse" gradientTransform="matrix(76.7978 -109.797 88.2235 95.577 19.2516 109.797)">
<stop offset="0" stop-color="#CB1B1B"/>
<stop offset="1" stop-color="#FF3838"/>
</linearGradient>
<linearGradient id="paint1_linear" x1="0" y1="0" x2="1" y2="0" gradientUnits="userSpaceOnUse" gradientTransform="matrix(42.0383 -116.113 59.3527 21.5586 -20.4173 64.3445)">
<stop offset="0" stop-color="#333333" stop-opacity="0.03"/>
<stop offset="1" stop-color="#BDBDBD"/>
</linearGradient>
<path id="path0_fill" fill-rule="evenodd" d="M 50.1406 38.6074C 54.082 36.5 58.584 35.2988 63.3672 35.2988C 65.9707 35.2988 68.4922 35.6543 70.8867 36.3203C 72.8887 36.877 74.7988 37.6484 76.5938 38.6074L 101.998 13.1621C 91.3047 4.91016 77.9082 0 63.3652 0C 48.8223 0 35.4277 4.91016 24.7344 13.1621L 50.1406 38.6074ZM 35.8086 57.8262C 36.1797 56 36.7266 54.2383 37.4316 52.5586L 11.6719 26.7559C 4.32227 37.1191 0 49.7891 0 63.4688C 0 78.0352 4.9043 91.4531 13.1406 102.164L 38.5469 76.7168C 37.6211 74.9824 36.8711 73.1387 36.3223 71.2109C 35.6211 68.752 35.2441 66.1543 35.2441 63.4688C 35.2441 61.5352 35.4375 59.6484 35.8086 57.8262ZM 63.3691 91.6387C 67.2305 91.6387 70.9102 90.8574 74.2598 89.4473L 100.02 115.248C 89.6738 122.611 77.0254 126.939 63.3672 126.939C 49.7109 126.939 37.0645 122.611 26.7168 115.25L 52.4785 89.4473C 55.8281 90.8574 59.5078 91.6387 63.3691 91.6387Z"/>
<path id="path1_fill" d="M 26.8742 0L 1.11448 25.8024C 2.52272 29.1576 3.30236 32.844 3.30236 36.7116C 3.30236 41.5017 2.10435 46.0108 0 49.9601L 25.4054 75.4069C 33.6432 64.6972 38.5452 51.2786 38.5452 36.7116C 38.5445 23.0323 34.2237 10.3639 26.8742 0Z"/>
</defs>
</svg>
