<svg width="428" height="130" viewBox="0 0 428 130" version="1.1" xmlns="http://www.w3.org/2000/svg" xmlns:xlink="http://www.w3.org/1999/xlink">
<title>TODA_as_SVG</title>
<desc>Created using Figma</desc>
<g id="Canvas" transform="translate(-4894 -7173)">
<g id="TODA_as_SVG">
<g id="Group">
<g id="Vector">
<use xlink:href="#path0_fill" transform="translate(4894 7173)" fill="#3F5CC7"/>
</g>
<g id="Vector">
<use xlink:href="#path1_fill" transform="translate(5051.68 7204.57)" fill="#3F5CC7"/>
</g>
<g id="Vector">
<use xlink:href="#path2_fill" transform="translate(5110.72 7203.7)" fill="#3F5CC7"/>
</g>
<g id="Vector">
<use xlink:href="#path3_fill" transform="translate(5193 7204.64)" fill="#3F5CC7"/>
</g>
<g id="Vector">
<use xlink:href="#path4_fill" transform="translate(5256.17 7204.57)" fill="#3F5CC7"/>
</g>
</g>
</g>
</g>
<defs>
<path id="path0_fill" d="M 98.0268 50.7318L 69.5676 50.7318L 98.0268 98.2929L 31.6212 98.2929L 60.0805 50.7318L 31.6212 50.7318L 31.6212 31.706L 98.0268 31.706L 98.0268 50.7318ZM 64.824 -3.29898e-07C 27.2755 -3.29898e-07 1.80953e-07 27.3495 1.80953e-07 65C 1.80953e-07 102.649 27.2755 130 64.824 130C 102.373 130 129.648 102.649 129.648 65C 129.648 27.3495 102.373 -3.29898e-07 64.824 -3.29898e-07Z"/>
<path id="path1_fill" d="M -3.68485e-06 11.3333L 21.2027 11.3333L 21.2027 65.9297L 32.8556 65.9297L 32.8556 11.3333L 54.0594 11.3333L 54.0594 4.61857e-07L -3.68485e-06 4.61857e-07L -3.68485e-06 11.3333Z"/>
<path id="path2_fill" d="M 33.8798 56.2168C 21.0248 56.2168 12.0454 47.0153 12.0454 33.8421C 12.0454 20.6667 21.0248 11.4652 33.8798 11.4652C 46.7586 11.4652 55.7584 20.6667 55.7584 33.8421C 55.7574 47.0153 46.7586 56.2168 33.8798 56.2168ZM 33.8798 -1.02268e-06C 14.249 -1.02268e-06 2.10563e-06 14.2326 2.10563e-06 33.8421C 2.10563e-06 53.4494 14.249 67.6809 33.8798 67.6809C 53.5095 67.6809 67.7596 53.4494 67.7596 33.8421C 67.7586 14.2326 53.5095 -1.02268e-06 33.8798 -1.02268e-06Z"/>
<path id="path3_fill" d="M 25.3296 54.5953L 11.6961 54.5953L 11.6961 11.3333L 25.3296 11.3333C 39.8686 11.3333 48.2097 19.2171 48.2097 32.9654C 48.2087 46.7115 39.8686 54.5953 25.3296 54.5953ZM 25.3296 -1.31959e-07L -5.00087e-06 -1.31959e-07L -5.00087e-06 65.9308L 25.3296 65.9308C 46.5462 65.9308 60.2541 52.99 60.2541 32.9654C 60.253 12.9397 46.5451 -1.31959e-07 25.3296 -1.31959e-07Z"/>
<path id="path4_fill" d="M 23.8461 37.5337L 32.805 15.5017L 41.7628 37.5337L 23.8461 37.5337ZM 38.8196 -1.31959e-07L 27.0071 -1.31959e-07L -3.94806e-06 65.9307L 12.3484 65.9307L 19.2416 48.8681L 46.3295 48.8681L 53.2692 65.9307L 65.8278 65.9307L 38.8196 -1.31959e-07Z"/>
</defs>
</svg>
