<svg width="200" height="200" viewBox="0 0 200 200" version="1.1" xmlns="http://www.w3.org/2000/svg" xmlns:xlink="http://www.w3.org/1999/xlink">
<title>BB Timeline Logo</title>
<desc>Created using Figma</desc>
<g id="Canvas" transform="translate(4060 -24093)">
<clipPath id="clip-0" clip-rule="evenodd">
<path d="M -4060 24093L -3860 24093L -3860 24293L -4060 24293L -4060 24093Z" fill="#FFFFFF"/>
</clipPath>
<g id="BB Timeline Logo" clip-path="url(#clip-0)">
<g id="bitcoinbay_horz">
<g id="Group">
<g id="Group">
<g id="Group">
<g id="Vector">
<use xlink:href="#path0_fill" transform="translate(-3992.81 24184.5)" fill="#A78F7C"/>
</g>
</g>
<g id="Vector">
<use xlink:href="#path1_fill" transform="translate(-4025 24114)" fill="#E56D85"/>
</g>
<g id="Vector">
<use xlink:href="#path2_fill" transform="translate(-3959.43 24160.2)" fill="#8DC63F"/>
</g>
<g id="Vector">
<use xlink:href="#path3_fill" transform="translate(-3991.25 24188.3)" fill="#31C0E8"/>
</g>
<g id="Group">
<g id="Vector">
<use xlink:href="#path4_fill" transform="translate(-3960.64 24214.4)" fill="#D8765A"/>
</g>
<g id="Vector">
<use xlink:href="#path5_fill" transform="translate(-3956.48 24218.4)" fill="#AEA2CF"/>
</g>
<g id="Vector">
<use xlink:href="#path6_fill" transform="translate(-3992.84 24157.2)" fill="#DBAE2E"/>
</g>
</g>
</g>
</g>
</g>
</g>
</g>
<defs>
<path id="path0_fill" d="M 16.8339 31.199C 12.971 31.199 9.30993 30.0984 6.24665 28.0161C 3.23329 25.9678 1.01487 23.0538 1.12509e-06 19.8116L 3.51874 18.7048C 5.14038 23.885 10.6159 27.5026 16.8339 27.5026C 24.4384 27.5026 30.6249 22.1628 30.6249 15.5994C 30.6249 9.03598 24.4384 3.69641 16.8339 3.69641C 10.6159 3.69641 5.14038 7.31403 3.51874 12.4942L 1.12509e-06 11.3877C 1.01512 8.14524 3.23354 5.23153 6.24665 3.1829C 9.30993 1.10066 12.971 2.13018e-06 16.8339 2.13018e-06C 21.4579 2.13018e-06 25.8161 1.59337 29.106 4.48681C 32.4637 7.44003 34.3134 11.3867 34.3134 15.5996C 34.3134 19.8126 32.4637 23.7592 29.106 26.7127C 25.8161 29.6056 21.4576 31.199 16.8339 31.199Z"/>
<path id="path1_fill" d="M 35.0582 127.991C 30.0722 126.692 25.3706 124.702 21.0836 122.075C 16.8456 119.479 13.1118 116.324 9.98557 112.697C 6.81348 109.017 4.34569 104.941 2.65007 100.582C 0.891976 96.062 0 91.3244 0 86.5009L 0 0L 35.8518 0L 35.8518 46.5057L 32.1639 46.5057L 32.1639 3.69667L 3.68823 3.69667L 3.68823 86.5009C 3.68823 90.863 4.4947 95.1489 6.08587 99.239C 7.62865 103.205 9.87958 106.919 12.7765 110.28C 15.6528 113.618 19.095 116.525 23.0068 118.921C 26.9846 121.358 31.3515 123.206 35.986 124.414L 35.0582 127.991Z"/>
<path id="path2_fill" d="M 27.1402 30.3511C 23.539 18.1767 13.3937 8.13651 -3.87531e-06 3.49342L 1.2056 1.40968e-06C 15.7207 5.03162 26.7378 15.9851 30.6759 29.3003L 27.1402 30.3511Z"/>
<path id="path3_fill" d="M 47.3272 84.7405C 41.7877 84.7405 36.3519 83.9285 31.1705 82.3267C 26.1535 80.7757 21.4763 78.5186 17.2681 75.6178C 13.0901 72.7372 9.48608 69.3007 6.55694 65.4029C 3.56816 61.4262 1.36229 57.0747 4.68788e-07 52.469L 3.5359 51.4184C 4.77274 55.5991 6.78019 59.5557 9.50297 63.1785C 12.1927 66.7573 15.5084 69.9179 19.3582 72.5719C 23.2579 75.2606 27.598 77.3538 32.2573 78.794C 37.0866 80.287 42.1571 81.0441 47.3275 81.0441C 53.463 81.0441 59.4119 79.9883 65.0093 77.9058C 70.4031 75.8996 75.2442 73.0295 79.3974 69.3767C 83.5331 65.7388 86.7779 61.5086 89.0407 56.8034C 91.3738 51.9514 92.5568 46.7994 92.5568 41.4904C 92.5568 37.1281 91.7504 32.8424 90.1592 28.7521C 88.6167 24.7868 86.3655 21.0716 83.4686 17.7111C 80.5925 14.3738 77.1505 11.4665 73.2383 9.07011C 69.2605 6.63347 64.8936 4.78552 60.2593 3.57759L 61.1869 2.94466e-06C 66.1729 1.29929 70.8747 3.28992 75.162 5.9162C 79.3994 8.51195 83.1332 11.6677 86.2595 15.2945C 89.4319 18.9748 91.8999 23.051 93.595 27.4097C 95.3536 31.9294 96.2453 36.6669 96.2453 41.4907C 96.2453 47.3599 94.9391 53.0521 92.363 58.4089C 89.8837 63.5637 86.3401 68.1885 81.8296 72.1554C 77.3367 76.1069 72.1092 79.2077 66.2922 81.3721C 60.2829 83.6072 53.9023 84.7405 47.3272 84.7405Z"/>
<path id="path4_fill" d="M 17.479 3.69641C 19.9023 3.69641 22.1809 4.23943 24.1617 5.19048C 24.8243 4.14242 25.4323 3.06614 25.9863 1.96317C 23.4141 0.682104 20.5034 -2.50609e-07 17.479 -2.50609e-07C 12.8551 -2.50609e-07 8.49682 1.59338 5.20746 4.48681C 1.84924 7.44004 2.37519e-06 11.3867 2.37519e-06 15.5999C 2.37519e-06 18.0845 0.643636 20.4763 1.86025 22.6263C 1.98672 22.5803 2.11371 22.5346 2.23967 22.4874C 3.28935 22.0971 4.31677 21.6729 5.32344 21.2179C 4.28041 19.5437 3.68772 17.6306 3.68772 15.5999C 3.68798 9.03649 9.87498 3.69641 17.479 3.69641Z"/>
<path id="path5_fill" d="M 25.5885 0.533266C 25.3806 0.350293 25.1684 0.172709 24.952 1.25305e-06C 24.3814 1.1117 23.7605 2.19721 23.0895 3.25604C 25.5716 5.40988 27.1082 8.37594 27.1082 11.6464C 27.1082 18.2098 20.9212 23.5493 13.3167 23.5493C 9.57645 23.5493 6.17957 22.2567 3.69233 20.1627C 2.49083 20.738 1.25962 21.2692 3.06275e-06 21.7566C 0.330526 22.102 0.677946 22.4366 1.04508 22.7594C 4.33443 25.6526 8.69267 27.246 13.3167 27.246C 17.9409 27.246 22.2989 25.6526 25.5888 22.7594C 28.947 19.8062 30.7962 15.8591 30.7962 11.6464C 30.7957 7.43311 28.9467 3.48649 25.5885 0.533266Z"/>
<path id="path6_fill" d="M 64.0814 32.2715L 63.7855 31.2706L 62.7773 31.0081C 58.2959 29.8402 53.6325 29.2482 48.9176 29.2482C 44.4744 29.2482 40.0903 29.7722 35.8521 30.8082L 35.8521 3.40155L 34.6109 2.97119C 28.9239 0.999551 22.9159 6.57849e-07 16.754 6.57849e-07C 11.4797 6.57849e-07 6.28915 0.738562 1.32619 2.1949L -9.68828e-07 2.58395L -9.68828e-07 72.4985C -9.68828e-07 76.216 0.535082 79.9101 1.59014 83.4771L 1.8861 84.478L 2.89431 84.7405C 7.3757 85.9084 12.0389 86.5004 16.754 86.5004C 23.3286 86.5004 29.7091 85.3669 35.7185 83.1315C 35.933 83.0517 36.146 82.9706 36.358 82.8885C 37.6176 82.4014 38.8488 81.8699 40.0503 81.2946C 44.1531 79.3309 47.9089 76.8593 51.2563 73.9151C 54.4981 71.0638 57.2408 67.8719 59.4475 64.3879C 60.1185 63.3294 60.7396 62.2438 61.31 61.1319C 61.4741 60.8129 61.6336 60.4916 61.789 60.168C 64.3651 54.8115 65.6713 49.1193 65.6713 43.2498C 65.6713 39.5326 65.1365 35.8385 64.0814 32.2715ZM 58.4674 58.5633C 58.374 58.7571 58.2785 58.9498 58.182 59.142C 57.6279 60.245 57.0199 61.3213 56.3573 62.3693C 54.3342 65.5717 51.8119 68.5088 48.8236 71.1369C 45.4785 74.0793 41.6865 76.5121 37.5193 78.3965C 36.5126 78.8515 35.4852 79.276 34.4355 79.666C 34.3096 79.7133 34.1826 79.7589 34.0561 79.8049C 28.5691 81.795 22.7508 82.804 16.7542 82.804C 12.7096 82.804 8.70854 82.3385 4.84442 81.4177C 4.07713 78.5063 3.68823 75.5113 3.68823 72.4985L 3.68823 5.37344C 7.91078 4.26021 12.299 3.69667 16.754 3.69667C 22.0575 3.69667 27.235 4.48886 32.1641 6.05273L 32.1641 35.6835L 34.5264 34.9904C 39.1517 33.6329 43.9941 32.9446 48.9176 32.9446C 52.962 32.9446 56.9633 33.4106 60.8277 34.3309C 61.5952 37.242 61.9839 40.2376 61.9839 43.2503C 61.9836 48.5596 60.8005 53.7116 58.4674 58.5633Z"/>
</defs>
</svg>
