<svg width="200" height="200" viewBox="0 0 200 200" version="1.1" xmlns="http://www.w3.org/2000/svg" xmlns:xlink="http://www.w3.org/1999/xlink">
<title>BH Timeline Logo</title>
<desc>Created using Figma</desc>
<g id="Canvas" transform="translate(4037 -24811)">
<clipPath id="clip-0" clip-rule="evenodd">
<path d="M -4037 24811L -3837 24811L -3837 25011L -4037 25011L -4037 24811Z" fill="#FFFFFF"/>
</clipPath>
<g id="BH Timeline Logo" clip-path="url(#clip-0)">
<g id="Logo">
<g id="Block Hack Toronto / Colour">
<g id="HACK">
<use xlink:href="#path0_fill" transform="translate(-3990.14 24893.4)"/>
<use xlink:href="#path1_fill" transform="translate(-3990.14 24893.4)"/>
<use xlink:href="#path2_fill" transform="translate(-3990.14 24893.4)"/>
<use xlink:href="#path3_fill" transform="translate(-3990.14 24893.4)"/>
</g>
<g id="Group 62">
<g id="Rectangle 2.195">
<use xlink:href="#path4_fill" transform="translate(-4037 24855.9)"/>
<mask id="mask0_outline_ins">
<use xlink:href="#path4_fill" fill="white" transform="translate(-4037 24855.9)"/>
</mask>
<g mask="url(#mask0_outline_ins)">
<use xlink:href="#path5_stroke_2x" transform="translate(-4037 24855.9)"/>
</g>
</g>
<g id="BL">
<use xlink:href="#path6_fill" transform="translate(-4033.58 24858.7)" fill="#FFFFFF"/>
<use xlink:href="#path7_fill" transform="translate(-4033.58 24858.7)" fill="#FFFFFF"/>
</g>
<g id="CK">
<use xlink:href="#path8_fill" transform="translate(-3981.89 24859.1)" fill="#FFFFFF"/>
<use xlink:href="#path9_fill" transform="translate(-3981.89 24859.1)" fill="#FFFFFF"/>
</g>
<g id="Group 43.20">
<g id="Rectangle 2.141">
<use xlink:href="#path10_fill" transform="translate(-3998.63 24858.2)" fill="#31C0E8"/>
</g>
<g id="Rectangle 2.142">
<use xlink:href="#path11_fill" transform="translate(-4003.33 24865.5)" fill="#31C0E8"/>
</g>
<g id="Rectangle 2.143">
<use xlink:href="#path12_fill" transform="translate(-4002.98 24872.8)" fill="#31C0E8"/>
</g>
<g id="Rectangle 2.144">
<use xlink:href="#path13_fill" transform="translate(-3999.16 24880.5)" fill="#31C0E8"/>
</g>
</g>
</g>
<g id="Rectangle 2.196">
<use xlink:href="#path14_fill" transform="translate(-3958.76 24927.1)"/>
</g>
<g id="TORONTO">
<use xlink:href="#path15_fill" transform="translate(-3945.34 24939.5)" fill="#FFFFFF"/>
<use xlink:href="#path16_fill" transform="translate(-3945.34 24939.5)" fill="#FFFFFF"/>
<use xlink:href="#path17_fill" transform="translate(-3945.34 24939.5)" fill="#FFFFFF"/>
<use xlink:href="#path18_fill" transform="translate(-3945.34 24939.5)" fill="#FFFFFF"/>
<use xlink:href="#path19_fill" transform="translate(-3945.34 24939.5)" fill="#FFFFFF"/>
<use xlink:href="#path20_fill" transform="translate(-3945.34 24939.5)" fill="#FFFFFF"/>
<use xlink:href="#path21_fill" transform="translate(-3945.34 24939.5)" fill="#FFFFFF"/>
</g>
<g id="Group 60.2">
<g id="Line (Stroke)">
<use xlink:href="#path22_fill" transform="matrix(-0.813261 -0.581899 -0.372268 0.928125 -3959.23 24947.7)"/>
</g>
<g id="Line (Stroke)">
<use xlink:href="#path23_fill" transform="matrix(-0.813262 -0.581898 -0.372269 0.928125 -3997.65 24911.4)"/>
</g>
</g>
<g id="Group 61.2">
<g id="Line (Stroke)">
<use xlink:href="#path24_fill" transform="matrix(-0.889939 -0.456079 -0.488602 0.872507 -3886.82 24879.8)"/>
</g>
<g id="Line (Stroke)">
<use xlink:href="#path25_fill" transform="matrix(-0.889939 -0.456079 -0.488602 0.872507 -3839.93 24915.7)"/>
</g>
</g>
</g>
</g>
</g>
</g>
<defs>
<path id="path0_fill" d="M 21.5286 0.246415L 21.5286 25.1343L 15.4682 25.1343L 15.4682 14.7497L 6.02519 14.7497L 6.02519 25.1343L 0 25.1343L 0 0.246415L 6.02519 0.246415L 6.02519 9.89179L 15.4682 9.89179L 15.4682 0.246415L 21.5286 0.246415Z"/>
<path id="path1_fill" d="M 42.1593 20.5932L 32.822 20.5932L 31.2717 25.1343L 24.9293 25.1343L 34.0552 0.422425L 40.9965 0.422425L 50.1224 25.1343L 43.7096 25.1343L 42.1593 20.5932ZM 40.6089 16.017L 37.5083 6.86441L 34.3723 16.017L 40.6089 16.017Z"/>
<path id="path2_fill" d="M 62.0836 0C 65.2548 0 67.8739 0.833116 69.941 2.49935C 72.0316 4.16558 73.3823 6.41852 73.993 9.25815L 67.6155 9.25815C 67.1457 8.10822 66.4175 7.2047 65.4309 6.54759C 64.4678 5.89048 63.3168 5.56193 61.9779 5.56193C 60.2161 5.56193 58.795 6.2073 57.7145 7.49805C 56.6339 8.78879 56.0936 10.5137 56.0936 12.6728C 56.0936 14.8318 56.6339 16.5567 57.7145 17.8475C 58.795 19.1147 60.2161 19.7484 61.9779 19.7484C 63.3168 19.7484 64.4678 19.4198 65.4309 18.7627C 66.4175 18.1056 67.1457 17.2138 67.6155 16.0874L 73.993 16.0874C 73.3823 18.9035 72.0316 21.1565 69.941 22.8462C 67.8739 24.5124 65.2548 25.3455 62.0836 25.3455C 59.6641 25.3455 57.5383 24.8175 55.7061 23.7614C 53.8738 22.6819 52.4527 21.1799 51.4426 19.2556C 50.456 17.3312 49.9627 15.1369 49.9627 12.6728C 49.9627 10.2086 50.456 8.01435 51.4426 6.08996C 52.4527 4.16558 53.8738 2.67536 55.7061 1.6193C 57.5383 0.539766 59.6641 0 62.0836 0Z"/>
<path id="path3_fill" d="M 88.7508 12.4263L 98.7927 25.1343L 91.4991 25.1343L 83.0427 13.9752L 83.0427 25.1343L 77.0175 25.1343L 77.0175 0.246415L 83.0427 0.246415L 83.0427 11.1943L 91.5695 0.246415L 98.7927 0.246415L 88.7508 12.4263Z"/>
<path id="path4_fill" d="M 0 0L 103.415 0L 103.415 29.2177L 0 29.2177L 0 0Z"/>
<path id="path5_stroke_2x" d="M 0 0L 0 -2L -2 -2L -2 0L 0 0ZM 103.415 0L 105.415 0L 105.415 -2L 103.415 -2L 103.415 0ZM 103.415 29.2177L 103.415 31.2177L 105.415 31.2177L 105.415 29.2177L 103.415 29.2177ZM 0 29.2177L -2 29.2177L -2 31.2177L 0 31.2177L 0 29.2177ZM 0 2L 103.415 2L 103.415 -2L 0 -2L 0 2ZM 101.415 0L 101.415 29.2177L 105.415 29.2177L 105.415 0L 101.415 0ZM 103.415 27.2177L 0 27.2177L 0 31.2177L 103.415 31.2177L 103.415 27.2177ZM 2 29.2177L 2 0L -2 0L -2 29.2177L 2 29.2177Z"/>
<path id="path6_fill" d="M 14.1359 11.4035C 15.5584 11.736 16.6809 12.4231 17.5032 13.4648C 18.3478 14.5065 18.7701 15.7145 18.7701 17.0887C 18.7701 19.1056 18.0922 20.6793 16.7364 21.8096C 15.4029 22.94 13.4803 23.5052 10.9687 23.5052L 0 23.5052L 0 0L 10.702 0C 13.1024 0 14.9583 0.52086 16.2697 1.56258C 17.581 2.6043 18.2367 4.08931 18.2367 6.0176C 18.2367 7.43611 17.8589 8.6219 17.1032 9.57496C 16.3475 10.5059 15.3584 11.1154 14.1359 11.4035ZM 5.70105 9.60821L 9.43508 9.60821C 11.4132 9.60821 12.4023 8.76597 12.4023 7.08149C 12.4023 5.397 11.391 4.55476 9.3684 4.55476L 5.70105 4.55476L 5.70105 9.60821ZM 9.76847 18.884C 11.88 18.884 12.9357 18.0196 12.9357 16.2907C 12.9357 15.4485 12.6579 14.7947 12.1022 14.3292C 11.5466 13.8416 10.7575 13.5978 9.73513 13.5978L 5.70105 13.5978L 5.70105 18.884L 9.76847 18.884Z"/>
<path id="path7_fill" d="M 25.8155 19.1499L 33.4169 19.1499L 33.4169 23.5052L 20.1144 23.5052L 20.1144 0L 25.8155 0L 25.8155 19.1499Z"/>
<path id="path8_fill" d="M 11.4688 0C 14.4693 0 16.9476 0.786832 18.9035 2.36049C 20.8816 3.93416 22.1596 6.06193 22.7375 8.7438L 16.7031 8.7438C 16.2586 7.65776 15.5695 6.80443 14.636 6.18383C 13.7248 5.56323 12.6357 5.25293 11.3688 5.25293C 9.70179 5.25293 8.3571 5.86245 7.33469 7.08149C 6.31228 8.30052 5.80107 9.92959 5.80107 11.9687C 5.80107 14.0078 6.31228 15.6369 7.33469 16.8559C 8.3571 18.0528 9.70179 18.6512 11.3688 18.6512C 12.6357 18.6512 13.7248 18.3409 14.636 17.7203C 15.5695 17.0997 16.2586 16.2575 16.7031 15.1936L 22.7375 15.1936C 22.1596 17.8533 20.8816 19.9811 18.9035 21.5769C 16.9476 23.1506 14.4693 23.9374 11.4688 23.9374C 9.17947 23.9374 7.16799 23.4387 5.43434 22.4413C 3.70068 21.4218 2.35599 20.0033 1.40026 18.1858C 0.466753 16.3683 0 14.296 0 11.9687C 0 9.64146 0.466753 7.5691 1.40026 5.75163C 2.35599 3.93416 3.70068 2.52673 5.43434 1.52934C 7.16799 0.509777 9.17947 0 11.4688 0Z"/>
<path id="path9_fill" d="M 36.0345 11.736L 45.5363 23.7379L 38.635 23.7379L 30.6335 13.1988L 30.6335 23.7379L 24.9325 23.7379L 24.9325 0.232724L 30.6335 0.232724L 30.6335 10.5724L 38.7017 0.232724L 45.5363 0.232724L 36.0345 11.736Z"/>
<path id="path10_fill" d="M 3.47996 0L 11.4642 0L 14.9638 1.99478L 0 1.99478L 3.47996 0Z"/>
<path id="path11_fill" d="M 0.869991 0L 22.7938 0L 23.8377 1.99478L 0 1.99478L 0.869991 0Z"/>
<path id="path12_fill" d="M 0 0L 23.4898 0L 22.9678 1.99479L 0.347996 1.99479L 0 0Z"/>
<path id="path13_fill" d="M 0 0L 15.8338 0L 11.6186 1.99478L 4.87195 1.99478L 0 0Z"/>
<path id="path14_fill" d="M 0 0L 121.737 0L 121.737 32.7379L 0 32.7379L 0 0Z"/>
<path id="path15_fill" d="M 7.53681 0.143918L 7.53681 2.19802L 5.03762 2.19802L 5.03762 9.40701L 2.47301 9.40701L 2.47301 2.19802L 0 2.19802L 0 0.143918L 7.53681 0.143918Z"/>
<path id="path16_fill" d="M 18.2095 0C 19.0818 0 19.8756 0.204974 20.5909 0.614922C 21.3149 1.01615 21.8819 1.57874 22.2919 2.30269C 22.7106 3.02664 22.92 3.84217 22.92 4.74929C 22.92 5.65641 22.7106 6.47195 22.2919 7.1959C 21.8732 7.91985 21.3018 8.4868 20.5778 8.89675C 19.8625 9.29798 19.073 9.49859 18.2095 9.49859C 17.3459 9.49859 16.5521 9.29798 15.828 8.89675C 15.104 8.4868 14.5326 7.91985 14.1139 7.1959C 13.6952 6.47195 13.4859 5.65641 13.4859 4.74929C 13.4859 3.84217 13.6952 3.02664 14.1139 2.30269C 14.5326 1.57874 15.104 1.01615 15.828 0.614922C 16.5521 0.204974 17.3459 0 18.2095 0ZM 18.2095 2.38119C 17.5552 2.38119 17.0406 2.59489 16.6655 3.02228C 16.2904 3.44095 16.1028 4.01662 16.1028 4.74929C 16.1028 5.46452 16.2904 6.03583 16.6655 6.46323C 17.0406 6.89062 17.5552 7.10432 18.2095 7.10432C 18.855 7.10432 19.3653 6.89062 19.7404 6.46323C 20.1155 6.03583 20.303 5.46452 20.303 4.74929C 20.303 4.01662 20.1155 3.44095 19.7404 3.02228C 19.374 2.59489 18.8637 2.38119 18.2095 2.38119Z"/>
<path id="path17_fill" d="M 34.1475 9.40701L 32.2764 5.99222L 32.0147 5.99222L 32.0147 9.40701L 29.437 9.40701L 29.437 0.143918L 33.5063 0.143918C 34.2478 0.143918 34.8759 0.274752 35.3905 0.536421C 35.9139 0.789368 36.3065 1.14262 36.5682 1.59618C 36.8298 2.04974 36.9607 2.56 36.9607 3.12695C 36.9607 3.7724 36.7819 4.33498 36.4242 4.81471C 36.0666 5.28572 35.5519 5.61716 34.8802 5.80905L 36.9869 9.40701L 34.1475 9.40701ZM 32.0147 4.26521L 33.2839 4.26521C 33.9992 4.26521 34.3568 3.94248 34.3568 3.29703C 34.3568 2.99175 34.2652 2.75189 34.0821 2.57744C 33.9076 2.40299 33.6415 2.31577 33.2839 2.31577L 32.0147 2.31577L 32.0147 4.26521Z"/>
<path id="path18_fill" d="M 47.8121 0C 48.6844 0 49.4783 0.204974 50.1936 0.614922C 50.9176 1.01615 51.4846 1.57874 51.8946 2.30269C 52.3133 3.02664 52.5226 3.84217 52.5226 4.74929C 52.5226 5.65641 52.3133 6.47195 51.8946 7.1959C 51.4759 7.91985 50.9045 8.4868 50.1805 8.89675C 49.4652 9.29798 48.6757 9.49859 47.8121 9.49859C 46.9485 9.49859 46.1547 9.29798 45.4307 8.89675C 44.7067 8.4868 44.1353 7.91985 43.7166 7.1959C 43.2979 6.47195 43.0885 5.65641 43.0885 4.74929C 43.0885 3.84217 43.2979 3.02664 43.7166 2.30269C 44.1353 1.57874 44.7067 1.01615 45.4307 0.614922C 46.1547 0.204974 46.9485 0 47.8121 0ZM 47.8121 2.38119C 47.1579 2.38119 46.6432 2.59489 46.2681 3.02228C 45.893 3.44095 45.7055 4.01662 45.7055 4.74929C 45.7055 5.46452 45.893 6.03583 46.2681 6.46323C 46.6432 6.89062 47.1579 7.10432 47.8121 7.10432C 48.4576 7.10432 48.9679 6.89062 49.343 6.46323C 49.7181 6.03583 49.9057 5.46452 49.9057 4.74929C 49.9057 4.01662 49.7181 3.44095 49.343 3.02228C 48.9767 2.59489 48.4664 2.38119 47.8121 2.38119Z"/>
<path id="path19_fill" d="M 67.5971 9.40701L 65.0194 9.40701L 61.6173 4.23904L 61.6173 9.40701L 59.0396 9.40701L 59.0396 0.157001L 61.6173 0.157001L 65.0194 5.39038L 65.0194 0.157001L 67.5971 0.157001L 67.5971 9.40701Z"/>
<path id="path20_fill" d="M 81.3582 0.143918L 81.3582 2.19802L 78.859 2.19802L 78.859 9.40701L 76.2944 9.40701L 76.2944 2.19802L 73.8214 2.19802L 73.8214 0.143918L 81.3582 0.143918Z"/>
<path id="path21_fill" d="M 92.0309 0C 92.9032 0 93.697 0.204974 94.4123 0.614922C 95.1363 1.01615 95.7033 1.57874 96.1133 2.30269C 96.532 3.02664 96.7414 3.84217 96.7414 4.74929C 96.7414 5.65641 96.532 6.47195 96.1133 7.1959C 95.6946 7.91985 95.1232 8.4868 94.3992 8.89675C 93.6839 9.29798 92.8945 9.49859 92.0309 9.49859C 91.1673 9.49859 90.3735 9.29798 89.6494 8.89675C 88.9254 8.4868 88.3541 7.91985 87.9353 7.1959C 87.5166 6.47195 87.3073 5.65641 87.3073 4.74929C 87.3073 3.84217 87.5166 3.02664 87.9353 2.30269C 88.3541 1.57874 88.9254 1.01615 89.6494 0.614922C 90.3735 0.204974 91.1673 0 92.0309 0ZM 92.0309 2.38119C 91.3766 2.38119 90.862 2.59489 90.4869 3.02228C 90.1118 3.44095 89.9242 4.01662 89.9242 4.74929C 89.9242 5.46452 90.1118 6.03583 90.4869 6.46323C 90.862 6.89062 91.3766 7.10432 92.0309 7.10432C 92.6764 7.10432 93.1867 6.89062 93.5618 6.46323C 93.9369 6.03583 94.1244 5.46452 94.1244 4.74929C 94.1244 4.01662 93.9369 3.44095 93.5618 3.02228C 93.1954 2.59489 92.6851 2.38119 92.0309 2.38119Z"/>
<path id="path22_fill" fill-rule="evenodd" d="M 40.0013 1.91602L 0.284311 7.81281L 0 5.89679L 39.717 0L 40.0013 1.91602Z"/>
<path id="path23_fill" fill-rule="evenodd" d="M 42.2729 1.91937L 0.260724 7.62946L 0 5.71008L 42.0122 0L 42.2729 1.91937Z"/>
<path id="path24_fill" fill-rule="evenodd" d="M 45.8083 1.90913L 0.326769 9.69846L 0 7.78933L 45.4815 0L 45.8083 1.90913Z"/>
<path id="path25_fill" fill-rule="evenodd" d="M 45.2145 1.90773L 0.33484 9.78963L 0 7.88191L 44.8797 0L 45.2145 1.90773Z"/>
</defs>
</svg>
