<svg width="139" height="170" viewBox="0 0 139 170" version="1.1" xmlns="http://www.w3.org/2000/svg" xmlns:xlink="http://www.w3.org/1999/xlink">
<title>bitcoinbay_horz</title>
<desc>Created using Figma</desc>
<g id="Canvas" transform="translate(4320 -24096)">
<g id="bitcoinbay_horz">
<g id="Group">
<g id="Group">
<g id="Group">
<g id="Vector">
<use xlink:href="#path0_fill" transform="translate(-4285.58 24171.4)" fill="#A78F7C"/>
</g>
</g>
<g id="Vector">
<use xlink:href="#path1_fill" transform="translate(-4320 24096)" fill="#E56D85"/>
</g>
<g id="Vector">
<use xlink:href="#path2_fill" transform="translate(-4249.89 24145.4)" fill="#8DC63F"/>
</g>
<g id="Vector">
<use xlink:href="#path3_fill" transform="translate(-4283.91 24175.4)" fill="#31C0E8"/>
</g>
<g id="Group">
<g id="Vector">
<use xlink:href="#path4_fill" transform="translate(-4251.19 24203.4)" fill="#D8765A"/>
</g>
<g id="Vector">
<use xlink:href="#path5_fill" transform="translate(-4246.74 24207.6)" fill="#AEA2CF"/>
</g>
<g id="Vector">
<use xlink:href="#path6_fill" transform="translate(-4285.61 24142.2)" fill="#DBAE2E"/>
</g>
</g>
</g>
</g>
</g>
</g>
<defs>
<path id="path0_fill" d="M 17.9993 33.3576C 13.869 33.3576 9.95446 32.1808 6.6791 29.9545C 3.45713 27.7644 1.08513 24.6488 1.20298e-06 21.1823L 3.76235 19.9989C 5.49625 25.5375 11.3508 29.4055 17.9993 29.4055C 26.1303 29.4055 32.7451 23.6962 32.7451 16.6787C 32.7451 9.66115 26.1303 3.95215 17.9993 3.95215C 11.3508 3.95215 5.49625 7.82007 3.76235 13.3587L 1.20298e-06 12.1756C 1.0854 8.70879 3.4574 5.59348 6.6791 3.40312C 9.95446 1.17681 13.869 2.27756e-06 17.9993 2.27756e-06C 22.9434 2.27756e-06 27.6033 1.70361 31.121 4.79724C 34.7111 7.95479 36.6889 12.1745 36.6889 16.6789C 36.6889 21.1834 34.7111 25.4031 31.121 28.5609C 27.6033 31.654 22.9431 33.3576 17.9993 33.3576Z"/>
<path id="path1_fill" d="M 37.4853 136.847C 32.1541 135.458 27.127 133.329 22.5432 130.521C 18.0119 127.746 14.0196 124.372 10.6769 120.494C 7.28517 116.559 4.64655 112.201 2.83353 107.541C 0.953727 102.708 0 97.6429 0 92.4857L 0 0L 38.3339 0L 38.3339 49.7233L 34.3906 49.7233L 34.3906 3.95243L 3.94357 3.95243L 3.94357 92.4857C 3.94357 97.1496 4.80587 101.732 6.50719 106.105C 8.15678 110.345 10.5635 114.317 13.661 117.91C 16.7365 121.478 20.417 124.587 24.5995 127.149C 28.8527 129.754 33.522 131.73 38.4773 133.021L 37.4853 136.847Z"/>
<path id="path2_fill" d="M 29.0191 32.4511C 25.1687 19.4342 14.321 8.69945 -4.1436e-06 3.73512L 1.28906 1.50721e-06C 16.809 5.37975 28.5888 17.0911 32.7996 31.3275L 29.0191 32.4511Z"/>
<path id="path3_fill" d="M 50.6037 90.6035C 44.6806 90.6035 38.8685 89.7353 33.3284 88.0226C 27.9641 86.3643 22.9631 83.9511 18.4635 80.8496C 13.9963 77.7697 10.1428 74.0955 7.01088 69.9279C 3.81518 65.6761 1.4566 61.0235 5.01242e-07 56.0992L 3.78069 54.9759C 5.10315 59.4458 7.24959 63.6762 10.1609 67.5496C 13.0368 71.3761 16.5821 74.7553 20.6984 77.593C 24.8681 80.4676 29.5086 82.7057 34.4905 84.2455C 39.6541 85.8419 45.0757 86.6513 50.6039 86.6513C 57.1642 86.6513 63.525 85.5225 69.5099 83.2959C 75.2771 81.1508 80.4534 78.0822 84.894 74.1767C 89.3161 70.2871 92.7856 65.7642 95.2049 60.7335C 97.6996 55.5458 98.9645 50.0374 98.9645 44.361C 98.9645 39.6969 98.1022 35.1147 96.4009 30.7414C 94.7516 26.5017 92.3446 22.5295 89.2471 18.9365C 86.1719 15.3682 82.4917 12.2598 78.3086 9.69765C 74.0554 7.09242 69.3861 5.11661 64.4311 3.82511L 65.4228 3.14839e-06C 70.754 1.38918 75.7813 3.51754 80.3655 6.32553C 84.8962 9.10087 88.8885 12.4749 92.2312 16.3527C 95.6232 20.2876 98.2621 24.6458 100.075 29.3061C 101.955 34.1385 102.908 39.2038 102.908 44.3613C 102.908 50.6366 101.512 56.7226 98.7573 62.45C 96.1064 67.9614 92.3175 72.9063 87.4946 77.1476C 82.6907 81.3725 77.1014 84.6879 70.8816 87.002C 64.4563 89.3918 57.634 90.6035 50.6037 90.6035Z"/>
<path id="path4_fill" d="M 18.6891 3.95215C 21.2801 3.95215 23.7164 4.53274 25.8344 5.54959C 26.5429 4.42903 27.193 3.27828 27.7854 2.099C 25.0351 0.729297 21.9229 -2.67948e-07 18.6891 -2.67948e-07C 13.745 -2.67948e-07 9.08505 1.70362 5.56797 4.79724C 1.97726 7.95479 2.53963e-06 12.1745 2.53963e-06 16.6792C 2.53963e-06 19.3358 0.688195 21.893 1.98903 24.1917C 2.12426 24.1426 2.26004 24.0938 2.39472 24.0433C 3.51707 23.6259 4.61562 23.1724 5.69198 22.6859C 4.57674 20.8959 3.94302 18.8504 3.94302 16.6792C 3.9433 9.6617 10.5586 3.95215 18.6891 3.95215Z"/>
<path id="path5_fill" d="M 27.36 0.570161C 27.1377 0.374529 26.9108 0.184658 26.6795 1.33974e-06C 26.0693 1.18861 25.4054 2.34923 24.688 3.48132C 27.3419 5.78418 28.9849 8.95545 28.9849 12.4521C 28.9849 19.4697 22.3696 25.1786 14.2386 25.1786C 10.2394 25.1786 6.60738 23.7966 3.94795 21.5577C 2.66327 22.1728 1.34683 22.7408 3.27478e-06 23.2618C 0.353408 23.6312 0.72488 23.9889 1.11743 24.3341C 4.6345 27.4275 9.29446 29.1311 14.2386 29.1311C 19.1829 29.1311 23.8426 27.4275 27.3603 24.3341C 30.951 21.1766 32.9282 16.9563 32.9282 12.4521C 32.9277 7.94738 30.9507 3.72771 27.36 0.570161Z"/>
<path id="path6_fill" d="M 68.5178 34.5042L 68.2013 33.4342L 67.1233 33.1535C 62.3317 31.9048 57.3454 31.2718 52.3042 31.2718C 47.5533 31.2718 42.8657 31.8321 38.3341 32.9397L 38.3341 3.63689L 37.007 3.17676C 30.9263 1.06871 24.5024 7.03364e-07 17.9139 7.03364e-07C 12.2744 7.03364e-07 6.72454 0.789661 1.418 2.34676L -1.0359e-06 2.76272L -1.0359e-06 77.5145C -1.0359e-06 81.4891 0.572125 85.4388 1.70023 89.2527L 2.01668 90.3228L 3.09469 90.6035C 7.88632 91.8522 12.8723 92.4852 17.9139 92.4852C 24.9436 92.4852 31.7659 91.2732 38.1912 88.8831C 38.4206 88.7978 38.6484 88.7111 38.8751 88.6233C 40.2219 88.1025 41.5383 87.5343 42.823 86.9191C 47.2098 84.8196 51.2256 82.177 54.8048 79.0291C 58.271 75.9804 61.2036 72.5677 63.563 68.8428C 64.2805 67.7109 64.9446 66.5503 65.5545 65.3614C 65.73 65.0204 65.9005 64.6769 66.0667 64.3309C 68.8211 58.6038 70.2177 52.5178 70.2177 46.2422C 70.2177 42.2678 69.6459 38.3181 68.5178 34.5042ZM 62.5151 62.6152C 62.4152 62.8223 62.3131 63.0284 62.2099 63.2339C 61.6175 64.4132 60.9674 65.5639 60.2589 66.6845C 58.0958 70.1085 55.3988 73.2487 52.2037 76.0586C 48.6269 79.2047 44.5725 81.8058 40.1168 83.8205C 39.0404 84.307 37.9419 84.7608 36.8195 85.1779C 36.6848 85.2284 36.549 85.2772 36.4138 85.3263C 30.5469 87.4541 24.3258 88.533 17.9141 88.533C 13.5895 88.533 9.31143 88.0353 5.1798 87.0508C 4.35939 83.938 3.94357 80.7357 3.94357 77.5145L 3.94357 5.74522C 8.45844 4.55496 13.1504 3.95243 17.9139 3.95243C 23.5845 3.95243 29.1204 4.79943 34.3908 6.4715L 34.3908 38.1524L 36.9167 37.4113C 41.8622 35.9598 47.0398 35.2239 52.3042 35.2239C 56.6285 35.2239 60.9069 35.7222 65.0388 36.7061C 65.8595 39.8187 66.275 43.0215 66.275 46.2427C 66.2747 51.9193 65.0098 57.4278 62.5151 62.6152Z"/>
</defs>
</svg>
