<svg width="200" height="200" viewBox="0 0 200 200" version="1.1" xmlns="http://www.w3.org/2000/svg" xmlns:xlink="http://www.w3.org/1999/xlink">
<title>BitcoinBay Logo</title>
<desc>Created using Figma</desc>
<g id="Canvas" transform="translate(4361 -23770)">
<g id="BitcoinBay Logo">
<g id="White BKGD">
<use xlink:href="#path0_fill" transform="translate(-4337.58 23793.4)" fill="#FFFFFF"/>
</g>
<g id="Vector">
<use xlink:href="#path1_fill" transform="translate(-4275.57 23871.2)" fill="#ED6C0C"/>
</g>
<g id="Vector">
<use xlink:href="#path2_fill" transform="translate(-4275.57 23871.7)" fill="#E05A00"/>
</g>
<g id="Vector">
<use xlink:href="#path3_fill" transform="translate(-4266.83 23838.3)" fill="#ED6C0C"/>
</g>
<g id="Vector">
<use xlink:href="#path4_fill" transform="translate(-4266.83 23838.3)" fill="#E05A00"/>
</g>
<g id="Vector">
<use xlink:href="#path5_fill" transform="translate(-4361 23770)" fill="#FFB600"/>
</g>
<g id="Vector">
<use xlink:href="#path6_fill" transform="translate(-4361 23773)" fill="#F6921E"/>
</g>
<g id="Vector">
<use xlink:href="#path7_fill" transform="translate(-4286.4 23843.8)" fill="#D85107"/>
</g>
<g id="Group">
<g id="Vector">
<use xlink:href="#path8_fill" transform="translate(-4312.21 23900)" fill="#E26600"/>
</g>
<g id="Vector">
<use xlink:href="#path9_fill" transform="translate(-4238.93 23825.4)" fill="#E26600"/>
</g>
</g>
<g id="Group">
<g id="Vector">
<use xlink:href="#path10_fill" transform="translate(-4258.5 23807.9)" fill="#ED6C0C"/>
</g>
<g id="Vector">
<use xlink:href="#path11_fill" transform="translate(-4238.93 23812.5)" fill="#ED6C0C"/>
</g>
<g id="Vector">
<use xlink:href="#path12_fill" transform="translate(-4295.14 23908.3)" fill="#ED6C0C"/>
</g>
</g>
<g id="Vector">
<use xlink:href="#path13_fill" transform="translate(-4274.74 23913.3)" fill="#E05A00"/>
</g>
</g>
</g>
<defs>
<path id="path0_fill" d="M 153.534 76.7762C 153.534 119.179 119.164 153.552 76.767 153.552C 34.3697 153.552 0 119.179 0 76.7762C 0 34.3739 34.3697 0 76.767 0C 119.164 0 153.534 34.3739 153.534 76.7762Z"/>
<path id="path1_fill" d="M 5.82908 -1.96973e-06L 6.3532e-08 24.152C 7.49454 25.8176 30.3945 33.3131 33.7254 19.5714C 37.0563 5.41337 13.3236 2.08206 5.82908 -1.96973e-06Z"/>
<path id="path2_fill" d="M 33.7254 19.5714C 37.4727 5.41338 13.3236 1.66565 5.82908 -3.81238e-07L 6.3532e-08 23.7356"/>
<path id="path3_fill" d="M 5.41272 -3.81238e-07L 1.65183e-06 22.0699C 6.24545 23.7356 25.3982 29.9818 28.3127 17.4894C 31.2272 4.58055 11.6582 1.66565 5.41272 -3.81238e-07Z"/>
<path id="path4_fill" d="M 28.3127 17.4894C 31.6436 4.58055 11.6582 1.66565 5.41272 -3.81238e-07L 1.65183e-06 22.0699"/>
<path id="path5_fill" d="M 124.149 2.96354C 70.4382 -10.3617 16.311 22.535 2.98737 75.8359C -10.3363 129.553 22.1401 183.687 75.8509 197.012C 129.562 210.337 183.689 177.857 197.013 124.14C 210.336 70.8389 177.86 16.7052 124.149 2.96354ZM 144.134 85.8298C 142.885 95.4073 137.473 100.404 129.978 102.07C 139.971 107.067 144.967 114.979 139.971 128.72C 134.142 145.793 119.985 147.043 101.249 143.711L 96.6691 162.033L 85.8437 158.702L 90.4236 140.796C 87.5091 139.964 84.5946 139.131 81.68 138.714L 77.1 156.62L 66.2746 153.705L 70.8546 135.383C 68.3564 134.55 65.8582 134.134 62.9437 133.301L 48.7873 129.553L 54.2 117.061L 62.1109 119.143C 65.0255 119.976 66.6909 117.894 67.1073 116.644L 74.1855 87.9119C 74.6018 87.9119 75.0182 87.9118 75.4346 88.3283C 75.0182 88.3283 74.6018 87.9119 74.1855 87.9119L 79.1818 67.5076C 79.1818 65.0091 78.3491 62.0942 74.1855 61.2614L 66.2746 59.1793L 69.1891 47.5198L 84.1782 51.2675C 86.26 51.6839 88.7582 52.5167 91.2564 52.9331L 95.8364 35.0274L 106.662 37.9423L 102.082 55.4316C 104.996 56.2644 107.911 56.6809 110.825 57.5137L 114.989 40.0243L 125.815 42.9392L 121.235 60.845C 135.807 65.4255 146.216 72.5046 144.134 85.8298Z"/>
<path id="path6_fill" d="M 2.98737 72.8723C -10.3363 126.59 22.1401 180.723 75.8509 194.049C 129.562 207.374 183.689 174.894 197.013 121.176C 210.336 67.459 177.86 13.3252 124.149 -8.33958e-08L 2.98737 72.8723ZM 144.134 82.8663C 142.885 92.4438 137.473 97.4407 129.978 99.1064C 139.971 104.103 144.967 112.015 139.971 125.757C 134.142 142.83 119.985 144.079 101.249 140.748L 96.6691 159.07L 85.8437 155.739L 90.4236 137.833C 87.5091 137 84.5946 136.167 81.68 135.751L 77.1 153.657L 66.2746 150.742L 70.8546 132.419C 68.3564 131.587 65.8582 131.17 62.9437 130.337L 48.7873 126.59L 54.2 114.097L 62.1109 116.179C 65.0255 117.012 66.6909 114.93 67.1073 113.681L 74.1855 84.9483C 74.6018 84.9483 75.0182 84.9483 75.4346 85.3647C 75.0182 85.3647 74.6018 84.9483 74.1855 84.9483L 79.1818 64.5441C 79.1818 62.0456 78.3491 59.1307 74.1855 58.2979L 66.2746 56.2158L 69.1891 44.5562L 84.1782 48.3039C 86.26 48.7204 88.7582 49.5532 91.2564 49.9696L 95.8364 32.0638L 106.662 34.9787L 102.082 52.4681C 104.996 53.3009 107.911 53.7173 110.825 54.5501L 114.989 37.0608L 125.815 39.9757L 121.235 57.8814C 135.807 62.462 146.216 69.541 144.134 82.8663Z"/>
<path id="path7_fill" d="M 121.578 54.1337L 67.4509 -3.55822e-06C 69.5327 3.3313 70.7817 7.49544 69.949 12.4924C 68.6999 22.0699 63.2872 27.0669 55.7927 28.7325C 65.7854 33.7295 70.7817 41.6413 65.7854 55.383C 59.9563 72.4559 45.8 73.7052 27.0636 70.3739L 22.4836 88.696L 11.2418 84.9483L 15.8218 67.0425C 12.9073 66.2097 9.99272 65.3769 7.07818 64.9605L 2.49818 82.8663L -1.52477e-06 82.0334L 42.4691 124.508C 79.109 118.261 110.753 91.6109 121.578 54.1337Z"/>
<path id="path8_fill" d="M 3.24013e-06 -3.55822e-06L 18.7363 18.7386L 22.0672 5.41337C 19.5691 4.58054 17.0709 4.16413 14.1564 3.3313L 3.24013e-06 -3.55822e-06Z"/>
<path id="path9_fill" d="M 1.66545 -1.96973e-06L 4.82843e-06 5.41337C 4.99636 7.07903 9.57635 9.1611 13.3236 11.6596L 1.66545 -1.96973e-06Z"/>
<path id="path10_fill" d="M 4.57999 -1.17548e-06L 1.65183e-06 17.4894C 2.91454 18.3222 5.82908 18.7386 8.74362 19.5714L 11.6582 7.07902L 4.57999 -1.17548e-06Z"/>
<path id="path11_fill" d="M 4.57999 4.13008e-07L 4.82843e-06 17.9058L 0.416362 18.3222C 12.9073 22.4863 22.4836 29.1489 22.4836 40.3921L 72.4472 90.3617C 73.2799 87.4468 74.1127 84.5319 74.9454 82.0334C 75.7781 78.7021 76.1945 75.7872 76.6108 72.4559L 4.57999 4.13008e-07Z"/>
<path id="path12_fill" d="M 70.3654 54.9666L 32.4763 17.073L 30.8109 23.3192L 19.9854 20.4043L 23.3163 7.49543L 15.8218 -3.55822e-06L 11.2418 17.9058L 0.416362 14.9909L 0.416362 14.5745L -3.11307e-06 14.9909L 45.3836 60.3799C 54.1272 59.9635 62.4545 57.8815 70.3654 54.9666Z"/>
<path id="path13_fill" d="M 60.3727 44.9726L 15.4054 -3.81238e-07C 15.4054 -3.81238e-07 15.4054 -3.81238e-07 14.9891 -3.81238e-07L 10.4091 18.3222L 3.24013e-06 15.8237L 37.8891 53.7173C 45.8 51.6353 53.2945 48.7204 60.3727 44.9726Z"/>
</defs>
</svg>
