<svg width="200" height="200" viewBox="0 0 200 200" version="1.1" xmlns="http://www.w3.org/2000/svg" xmlns:xlink="http://www.w3.org/1999/xlink">
<title>handshake</title>
<desc>Created using Figma</desc>
<g id="Canvas" transform="translate(4351 -24386)">
<g id="handshake">
<g id="Vector">
<use xlink:href="#path0_fill" transform="translate(-4351 24386)" fill="#31C0E8"/>
</g>
<g id="Vector">
<use xlink:href="#path1_fill" transform="translate(-4284.93 24408.9)" fill="#D55400"/>
</g>
<g id="Vector">
<use xlink:href="#path2_fill" transform="translate(-4252.42 24519.1)" fill="#455AA4"/>
</g>
<g id="Vector">
<use xlink:href="#path3_fill" transform="translate(-4305.58 24408.8)" fill="#F2B850"/>
</g>
<g id="Vector">
<use xlink:href="#path4_fill" transform="translate(-4321.24 24519.9)" fill="#8DC63F"/>
</g>
</g>
</g>
<defs>
<path id="path0_fill" d="M 100 200C 155.228 200 200 155.228 200 100C 200 44.7715 155.228 0 100 0C 44.7715 0 0 44.7715 0 100C 0 155.228 44.7715 200 100 200Z"/>
<path id="path1_fill" d="M 4.6421 31.7385C 7.94919 30.7936 11.4138 32.6833 12.5161 35.833L 18.9728 55.518C 19.1303 55.833 19.4452 56.1479 19.9177 55.9904C 20.2327 55.833 20.5476 55.518 20.3901 55.0456L 9.83895 23.5495C 8.89407 20.3999 9.99643 16.9353 12.9886 15.3605C 16.7681 13.4707 21.0201 15.3605 22.2799 19.14L 31.7287 47.8015C 31.8862 48.1164 32.2012 48.4314 32.6736 48.2739C 32.9886 48.1164 33.3035 47.8015 33.146 47.329L 20.8626 9.8487C 19.7602 6.22665 21.65 2.44713 25.1145 1.18729L 25.272 1.18729C 25.4295 1.18729 25.7445 1.0298 25.9019 1.0298C 29.209 0.399883 32.3586 2.60461 33.461 5.91169L 46.2169 45.1243C 46.3744 45.4393 46.6893 45.7542 47.1618 45.5967C 47.4767 45.4393 47.7917 45.1243 47.6342 44.6519L 36.2956 9.0613C 35.0358 5.28177 37.2405 1.34477 41.0201 0.242403C 44.4846 -0.702479 48.2642 1.18729 49.3665 4.65185L 63.0673 45.1243C 63.8547 37.2503 66.0594 30.0062 70.3114 25.4393C 72.5161 23.077 76.7681 24.3369 78.5004 27.0141C 79.2878 28.1164 79.9177 30.0062 79.4453 32.2109C 79.4453 32.2109 74.5634 40.7148 80.2327 54.5731C 85.9019 68.2739 74.2484 89.6912 74.2484 89.6912C 70.4689 98.1952 81.65 129.534 81.65 129.534L 47.6342 139.14C 42.4374 124.494 29.6815 104.967 29.6815 104.967L 24.3271 96.4629C 18.1854 86.6991 13.146 76.1479 9.36651 65.2818L 0.390135 39.6125C -0.869708 36.4629 1.02006 32.6833 4.6421 31.7385Z"/>
<path id="path2_fill" d="M 16.378 65.8268C 36.378 62.8346 54.3307 54.0157 68.5039 41.1024L 53.0709 0L -2.40296e-06 22.2047L 16.378 65.8268Z"/>
<path id="path3_fill" d="M 76.3121 30.6241C 73.005 29.8367 69.5405 31.7265 68.5956 35.0336L 62.6113 54.8761C 62.4538 55.191 62.1389 55.506 61.6664 55.3485C 61.3515 55.191 61.0365 54.8761 61.194 54.4036L 70.8003 22.5926C 71.7452 19.443 70.4853 15.9784 67.4932 14.5611C 63.7137 12.8288 59.4617 14.7186 58.3594 18.4981L 49.5405 47.317C 49.383 47.632 49.068 47.9469 48.5956 47.7895C 48.2806 47.632 48.1231 47.317 48.2806 47.0021L 59.6192 9.36427C 60.7216 5.74222 58.6743 1.96269 55.0523 0.86033L 54.8948 0.86033C 54.7373 0.86033 54.4224 0.702849 54.2649 0.702849C 50.9578 0.230408 47.8082 2.59261 46.8633 5.74222L 35.0523 45.2698C 34.8948 45.5847 34.5798 45.8997 34.1074 45.7422C 33.7924 45.5847 33.4775 45.2698 33.635 44.7973L 44.1861 8.89183C 45.2885 5.1123 43.0838 1.17529 39.3042 0.230409C 35.6822 -0.714472 32.0601 1.33277 30.9578 4.79734L 18.3594 45.7422C 17.4145 37.8682 15.0523 30.6241 10.6428 26.2147C 8.4381 23.8525 4.18613 25.4273 2.45385 28.1044C 1.66645 29.3643 1.19401 31.254 1.66645 33.3013C 1.66645 33.3013 6.70582 41.6477 1.35149 55.6635C -4.00284 69.5217 8.28062 90.6241 8.28062 90.6241C 12.2176 98.9706 1.98141 130.782 1.98141 130.782L 36.1546 139.6C 41.0365 124.797 53.1625 104.955 53.1625 104.955L 58.3594 96.2934C 64.3436 86.3721 69.068 75.821 72.5326 64.7973L 80.7216 38.9706C 81.9814 35.191 79.9342 31.569 76.3121 30.6241Z"/>
<path id="path4_fill" d="M -6.0074e-07 37.3228C 13.8583 51.0236 31.6535 60.6299 51.4961 64.4094L 66.6142 20.9449L 12.9134 0L -6.0074e-07 37.3228Z"/>
</defs>
</svg>
