<svg width="571" height="297" viewBox="0 0 571 297" version="1.1" xmlns="http://www.w3.org/2000/svg" xmlns:xlink="http://www.w3.org/1999/xlink">
<title>Lockup1</title>
<desc>Created using Figma</desc>
<g id="Canvas" transform="matrix(0.5 0 0 0.5 22046.5 -17930.5)">
<g id="Lockup1">
<g id="Lockup1">
<g id="HACK">
<use xlink:href="#path0_fill" transform="translate(-43825.7 36075.9)"/>
<use xlink:href="#path1_fill" transform="translate(-43825.7 36075.9)"/>
<use xlink:href="#path2_fill" transform="translate(-43825.7 36075.9)"/>
<use xlink:href="#path3_fill" transform="translate(-43825.7 36075.9)"/>
</g>
<g id="Group 62">
<g id="Rectangle 2.195">
<use xlink:href="#path4_fill" transform="translate(-44093 35861.7)"/>
<mask id="mask0_outline_ins">
<use xlink:href="#path4_fill" fill="white" transform="translate(-44093 35861.7)"/>
</mask>
<g mask="url(#mask0_outline_ins)">
<use xlink:href="#path5_stroke_2x" transform="translate(-44093 35861.7)"/>
</g>
</g>
<g id="BL">
<use xlink:href="#path6_fill" transform="translate(-44073.5 35877.4)" fill="#FFFFFF"/>
<use xlink:href="#path7_fill" transform="translate(-44073.5 35877.4)" fill="#FFFFFF"/>
</g>
<g id="CK">
<use xlink:href="#path8_fill" transform="translate(-43778.6 35879.9)" fill="#FFFFFF"/>
<use xlink:href="#path9_fill" transform="translate(-43778.6 35879.9)" fill="#FFFFFF"/>
</g>
<g id="Group 43.20">
<g id="Rectangle 2.141">
<use xlink:href="#path10_fill" transform="translate(-43874.1 35875)" fill="#31C0E8"/>
</g>
<g id="Rectangle 2.142">
<use xlink:href="#path11_fill" transform="translate(-43900.9 35916.7)" fill="#31C0E8"/>
</g>
<g id="Rectangle 2.143">
<use xlink:href="#path12_fill" transform="translate(-43898.9 35958.5)" fill="#31C0E8"/>
</g>
<g id="Rectangle 2.144">
<use xlink:href="#path13_fill" transform="translate(-43877.1 36002.2)" fill="#31C0E8"/>
</g>
</g>
</g>
<g id="Rectangle 2.196">
<use xlink:href="#path14_fill" transform="translate(-43646.6 36268.1)"/>
</g>
<g id="TORONTO">
<use xlink:href="#path15_fill" transform="translate(-43570.1 36339)" fill="#FFFFFF"/>
<use xlink:href="#path16_fill" transform="translate(-43570.1 36339)" fill="#FFFFFF"/>
<use xlink:href="#path17_fill" transform="translate(-43570.1 36339)" fill="#FFFFFF"/>
<use xlink:href="#path18_fill" transform="translate(-43570.1 36339)" fill="#FFFFFF"/>
<use xlink:href="#path19_fill" transform="translate(-43570.1 36339)" fill="#FFFFFF"/>
<use xlink:href="#path20_fill" transform="translate(-43570.1 36339)" fill="#FFFFFF"/>
<use xlink:href="#path21_fill" transform="translate(-43570.1 36339)" fill="#FFFFFF"/>
</g>
<g id="Group 60.2">
<g id="Line">
<use xlink:href="#path22_stroke" transform="matrix(-0.813013 -0.582245 -0.371979 0.928241 -43652 36390.4)"/>
</g>
<g id="Line">
<use xlink:href="#path23_stroke" transform="matrix(-0.813013 -0.582245 -0.371979 0.928241 -43871.2 36183.5)"/>
</g>
</g>
<g id="Group 61.2">
<g id="Line">
<use xlink:href="#path24_stroke" transform="matrix(-0.889772 -0.456405 -0.488266 0.872695 -43239.7 36002.3)"/>
</g>
<g id="Line">
<use xlink:href="#path25_stroke" transform="matrix(-0.889772 -0.456405 -0.488266 0.872695 -42972.2 36207.5)"/>
</g>
</g>
</g>
</g>
</g>
<defs>
<path id="path0_fill" d="M 122.821 1.40706L 122.821 143.521L 88.246 143.521L 88.246 84.2228L 34.3737 84.2228L 34.3737 143.521L 0 143.521L 0 1.40706L 34.3737 1.40706L 34.3737 56.4836L 88.246 56.4836L 88.246 1.40706L 122.821 1.40706Z"/>
<path id="path1_fill" d="M 240.519 117.59L 187.249 117.59L 178.405 143.521L 142.222 143.521L 194.285 2.41211L 233.885 2.41211L 285.948 143.521L 249.363 143.521L 240.519 117.59ZM 231.674 91.4592L 213.985 39.1968L 196.094 91.4592L 231.674 91.4592Z"/>
<path id="path2_fill" d="M 354.187 0C 372.278 0 387.221 4.75722 399.014 14.2716C 410.94 23.7861 418.646 36.6507 422.13 52.8654L 385.746 52.8654C 383.066 46.2991 378.912 41.1399 373.283 37.3877C 367.789 33.6355 361.223 31.7594 353.584 31.7594C 343.533 31.7594 335.425 35.4446 329.261 42.8149C 323.096 50.1853 320.014 60.0347 320.014 72.3633C 320.014 84.6918 323.096 94.5413 329.261 101.912C 335.425 109.148 343.533 112.766 353.584 112.766C 361.223 112.766 367.789 110.89 373.283 107.138C 378.912 103.386 383.066 98.2935 385.746 91.8612L 422.13 91.8612C 418.646 107.942 410.94 120.806 399.014 130.455C 387.221 139.969 372.278 144.727 354.187 144.727C 340.384 144.727 328.256 141.711 317.803 135.681C 307.35 129.517 299.243 120.94 293.48 109.952C 287.852 98.9635 285.037 86.4339 285.037 72.3633C 285.037 58.2926 287.852 45.7631 293.48 34.7746C 299.243 23.7861 307.35 15.2767 317.803 9.24642C 328.256 3.08214 340.384 0 354.187 0Z"/>
<path id="path3_fill" d="M 506.323 70.9562L 563.613 143.521L 522.002 143.521L 473.758 79.8006L 473.758 143.521L 439.385 143.521L 439.385 1.40706L 473.758 1.40706L 473.758 63.9209L 522.404 1.40706L 563.613 1.40706L 506.323 70.9562Z"/>
<path id="path4_fill" d="M 0 0L 589.982 0L 589.982 166.838L 0 166.838L 0 0Z"/>
<path id="path5_stroke_2x" d="M 0 0L 0 -2L -2 -2L -2 0L 0 0ZM 589.982 0L 591.982 0L 591.982 -2L 589.982 -2L 589.982 0ZM 589.982 166.838L 589.982 168.838L 591.982 168.838L 591.982 166.838L 589.982 166.838ZM 0 166.838L -2 166.838L -2 168.838L 0 168.838L 0 166.838ZM 0 2L 589.982 2L 589.982 -2L 0 -2L 0 2ZM 587.982 0L 587.982 166.838L 591.982 166.838L 591.982 0L 587.982 0ZM 589.982 164.838L 0 164.838L 0 168.838L 589.982 168.838L 589.982 164.838ZM 2 166.838L 2 0L -2 0L -2 166.838L 2 166.838Z"/>
<path id="path6_fill" d="M 80.6456 65.1158C 88.7609 67.0142 95.1643 70.9376 99.856 76.886C 104.674 82.8344 107.084 89.7319 107.084 97.5787C 107.084 109.096 103.216 118.082 95.4813 124.536C 87.8733 130.991 76.9049 134.218 62.5764 134.218L 0 134.218L 0 0L 61.0548 0C 74.7493 0 85.3372 2.97419 92.8185 8.92257C 100.3 14.871 104.04 23.3506 104.04 34.3614C 104.04 42.4613 101.885 49.2323 97.5735 54.6745C 93.2623 59.99 87.6197 63.4705 80.6456 65.1158ZM 32.5245 54.8643L 53.8271 54.8643C 65.1124 54.8643 70.7551 50.055 70.7551 40.4363C 70.7551 30.8177 64.9856 26.0083 53.4467 26.0083L 32.5245 26.0083L 32.5245 54.8643ZM 55.7291 107.83C 67.7753 107.83 73.7983 102.894 73.7983 93.0225C 73.7983 88.2132 72.2133 84.4797 69.0433 81.8219C 65.8732 79.0375 61.3718 77.6453 55.5389 77.6453L 32.5245 77.6453L 32.5245 107.83L 55.7291 107.83Z"/>
<path id="path7_fill" d="M 147.277 109.349L 190.643 109.349L 190.643 134.218L 114.753 134.218L 114.753 0L 147.277 0L 147.277 109.349Z"/>
<path id="path8_fill" d="M 65.4294 0C 82.5476 0 96.6859 4.49293 107.844 13.4788C 119.13 22.4646 126.421 34.6145 129.718 49.9284L 95.2911 49.9284C 92.7551 43.7269 88.8242 38.8543 83.4986 35.3106C 78.2997 31.7669 72.0865 29.995 64.8588 29.995C 55.3487 29.995 47.6772 33.4754 41.8444 40.4363C 36.0115 47.3972 33.0951 56.6994 33.0951 68.3431C 33.0951 79.9867 36.0115 89.289 41.8444 96.2498C 47.6772 103.084 55.3487 106.501 64.8588 106.501C 72.0865 106.501 78.2997 104.729 83.4986 101.186C 88.8242 97.642 92.7551 92.8327 95.2911 86.7577L 129.718 86.7577C 126.421 101.945 119.13 114.095 107.844 123.207C 96.6859 132.193 82.5476 136.686 65.4294 136.686C 52.3689 136.686 40.8934 133.839 31.0029 128.143C 21.1124 122.321 13.4409 114.222 7.98847 103.844C 2.66282 93.4655 0 81.632 0 68.3431C 0 55.0542 2.66282 43.2207 7.98847 32.8426C 13.4409 22.4646 21.1124 14.428 31.0029 8.73273C 40.8934 2.9109 52.3689 0 65.4294 0Z"/>
<path id="path9_fill" d="M 205.577 67.0142L 259.784 135.547L 220.413 135.547L 174.764 75.3672L 174.764 135.547L 142.24 135.547L 142.24 1.32889L 174.764 1.32889L 174.764 60.3697L 220.793 1.32889L 259.784 1.32889L 205.577 67.0142Z"/>
<path id="path10_fill" d="M 19.8532 0L 65.4036 0L 85.3687 11.3905L 0 11.3905L 19.8532 0Z"/>
<path id="path11_fill" d="M 4.9633 0L 130.038 0L 135.994 11.3905L 0 11.3905L 4.9633 0Z"/>
<path id="path12_fill" d="M 0 0L 134.009 0L 131.031 11.3905L 1.98532 11.3905L 0 0Z"/>
<path id="path13_fill" d="M 0 0L 90.332 0L 66.2844 11.3905L 27.7944 11.3905L 0 0Z"/>
<path id="path14_fill" d="M 0 0L 694.51 0L 694.51 186.938L 0 186.938L 0 0Z"/>
<path id="path15_fill" d="M 42.9975 0.821792L 42.9975 12.551L 28.7396 12.551L 28.7396 53.7154L 14.1085 53.7154L 14.1085 12.551L 0 12.551L 0 0.821792L 42.9975 0.821792Z"/>
<path id="path16_fill" d="M 103.885 0C 108.861 0 113.39 1.17043 117.471 3.5113C 121.601 5.80235 124.836 9.01482 127.175 13.1487C 129.564 17.2825 130.758 21.9394 130.758 27.1192C 130.758 32.2989 129.564 36.9558 127.175 41.0896C 124.786 45.2235 121.527 48.4609 117.396 50.8017C 113.316 53.0928 108.812 54.2383 103.885 54.2383C 98.9581 54.2383 94.4295 53.0928 90.2989 50.8017C 86.1684 48.4609 82.9087 45.2235 80.52 41.0896C 78.1312 36.9558 76.9369 32.2989 76.9369 27.1192C 76.9369 21.9394 78.1312 17.2825 80.52 13.1487C 82.9087 9.01482 86.1684 5.80235 90.2989 3.5113C 94.4295 1.17043 98.9581 0 103.885 0ZM 103.885 13.5969C 100.153 13.5969 97.2163 14.8172 95.0764 17.2576C 92.9365 19.6483 91.8665 22.9355 91.8665 27.1192C 91.8665 31.2032 92.9365 34.4655 95.0764 36.906C 97.2163 39.3464 100.153 40.5667 103.885 40.5667C 107.568 40.5667 110.479 39.3464 112.619 36.906C 114.759 34.4655 115.829 31.2032 115.829 27.1192C 115.829 22.9355 114.759 19.6483 112.619 17.2576C 110.529 14.8172 107.617 13.5969 103.885 13.5969Z"/>
<path id="path17_fill" d="M 194.811 53.7154L 184.137 34.2165L 182.644 34.2165L 182.644 53.7154L 167.938 53.7154L 167.938 0.821792L 191.154 0.821792C 195.384 0.821792 198.967 1.56888 201.903 3.06304C 204.889 4.50741 207.128 6.52454 208.621 9.11443C 210.114 11.7043 210.861 14.6179 210.861 17.8553C 210.861 21.5409 209.841 24.7534 207.8 27.4927C 205.76 30.1822 202.824 32.0748 198.992 33.1705L 211.01 53.7154L 194.811 53.7154ZM 182.644 24.3549L 189.885 24.3549C 193.965 24.3549 196.006 22.5121 196.006 18.8265C 196.006 17.0833 195.483 15.7137 194.438 14.7176C 193.443 13.7214 191.925 13.2234 189.885 13.2234L 182.644 13.2234L 182.644 24.3549Z"/>
<path id="path18_fill" d="M 272.768 0C 277.745 0 282.273 1.17043 286.354 3.5113C 290.485 5.80235 293.72 9.01482 296.059 13.1487C 298.447 17.2825 299.642 21.9394 299.642 27.1192C 299.642 32.2989 298.447 36.9558 296.059 41.0896C 293.67 45.2235 290.41 48.4609 286.28 50.8017C 282.199 53.0928 277.695 54.2383 272.768 54.2383C 267.841 54.2383 263.313 53.0928 259.182 50.8017C 255.052 48.4609 251.792 45.2235 249.403 41.0896C 247.015 36.9558 245.82 32.2989 245.82 27.1192C 245.82 21.9394 247.015 17.2825 249.403 13.1487C 251.792 9.01482 255.052 5.80235 259.182 3.5113C 263.313 1.17043 267.841 0 272.768 0ZM 272.768 13.5969C 269.036 13.5969 266.1 14.8172 263.96 17.2576C 261.82 19.6483 260.75 22.9355 260.75 27.1192C 260.75 31.2032 261.82 34.4655 263.96 36.906C 266.1 39.3464 269.036 40.5667 272.768 40.5667C 276.451 40.5667 279.362 39.3464 281.502 36.906C 283.642 34.4655 284.712 31.2032 284.712 27.1192C 284.712 22.9355 283.642 19.6483 281.502 17.2576C 279.412 14.8172 276.501 13.5969 272.768 13.5969Z"/>
<path id="path19_fill" d="M 385.641 53.7154L 370.936 53.7154L 351.527 24.2055L 351.527 53.7154L 336.821 53.7154L 336.821 0.896501L 351.527 0.896501L 370.936 30.7799L 370.936 0.896501L 385.641 0.896501L 385.641 53.7154Z"/>
<path id="path20_fill" d="M 464.149 0.821792L 464.149 12.551L 449.891 12.551L 449.891 53.7154L 435.26 53.7154L 435.26 12.551L 421.151 12.551L 421.151 0.821792L 464.149 0.821792Z"/>
<path id="path21_fill" d="M 525.036 0C 530.013 0 534.541 1.17043 538.622 3.5113C 542.753 5.80235 545.987 9.01482 548.326 13.1487C 550.715 17.2825 551.91 21.9394 551.91 27.1192C 551.91 32.2989 550.715 36.9558 548.326 41.0896C 545.938 45.2235 542.678 48.4609 538.547 50.8017C 534.467 53.0928 529.963 54.2383 525.036 54.2383C 520.109 54.2383 515.581 53.0928 511.45 50.8017C 507.32 48.4609 504.06 45.2235 501.671 41.0896C 499.282 36.9558 498.088 32.2989 498.088 27.1192C 498.088 21.9394 499.282 17.2825 501.671 13.1487C 504.06 9.01482 507.32 5.80235 511.45 3.5113C 515.581 1.17043 520.109 0 525.036 0ZM 525.036 13.5969C 521.304 13.5969 518.367 14.8172 516.228 17.2576C 514.088 19.6483 513.018 22.9355 513.018 27.1192C 513.018 31.2032 514.088 34.4655 516.228 36.906C 518.367 39.3464 521.304 40.5667 525.036 40.5667C 528.719 40.5667 531.63 39.3464 533.77 36.906C 535.91 34.4655 536.98 31.2032 536.98 27.1192C 536.98 22.9355 535.91 19.6483 533.77 17.2576C 531.68 14.8172 528.768 13.5969 525.036 13.5969Z"/>
<path id="path22_stroke" d="M 0.73464 38.6131L 227.389 4.94574L 225.92 -4.94574L -0.73464 28.7216L 0.73464 38.6131Z"/>
<path id="path23_stroke" d="M 0.673695 37.5558L 240.427 4.95441L 239.079 -4.95441L -0.673695 27.6469L 0.673695 37.5558Z"/>
<path id="path24_stroke" d="M 0.844439 49.3968L 260.365 4.92818L 258.676 -4.92818L -0.844439 39.5405L 0.844439 49.3968Z"/>
<path id="path25_stroke" d="M 0.865298 49.9217L 256.952 4.92456L 255.221 -4.92456L -0.865298 40.0726L 0.865298 49.9217Z"/>
</defs>
</svg>
